<svg width="20" height="20" viewBox="0 0 20 20" fill="none" xmlns="http://www.w3.org/2000/svg">
<path fill-rule="evenodd" clip-rule="evenodd" d="M5.83333 13.3333C5.83333 12.875 6.20833 12.5 6.66667 12.5C7.125 12.5 7.5 12.875 7.5 13.3333C7.5 13.7916 7.125 14.1666 6.66667 14.1666C6.20833 14.1666 5.83333 13.7916 5.83333 13.3333ZM10 12.5H13.3333C13.7917 12.5 14.1667 12.875 14.1667 13.3333C14.1667 13.7916 13.7917 14.1666 13.3333 14.1666H10C9.54167 14.1666 9.16667 13.7916 9.16667 13.3333C9.16667 12.875 9.54167 12.5 10 12.5ZM15 16.6666H5C4.54083 16.6666 4.16667 16.2925 4.16667 15.8333V10.8333H15.8333V15.8333C15.8333 16.2925 15.4592 16.6666 15 16.6666M5 4.99996H5.83333V5.83329C5.83333 6.29163 6.20833 6.66663 6.66667 6.66663C7.125 6.66663 7.5 6.29163 7.5 5.83329V4.99996H12.5V5.83329C12.5 6.29163 12.875 6.66663 13.3333 6.66663C13.7917 6.66663 14.1667 6.29163 14.1667 5.83329V4.99996H15C15.4592 4.99996 15.8333 5.37413 15.8333 5.83329V9.16663H4.16667V5.83329C4.16667 5.37413 4.54083 4.99996 5 4.99996M15 3.33329H14.1667V2.49996C14.1667 2.04163 13.7917 1.66663 13.3333 1.66663C12.875 1.66663 12.5 2.04163 12.5 2.49996V3.33329H7.5V2.49996C7.5 2.04163 7.125 1.66663 6.66667 1.66663C6.20833 1.66663 5.83333 2.04163 5.83333 2.49996V3.33329H5C3.62167 3.33329 2.5 4.45496 2.5 5.83329V15.8333C2.5 17.2116 3.62167 18.3333 5 18.3333H15C16.3783 18.3333 17.5 17.2116 17.5 15.8333V5.83329C17.5 4.45496 16.3783 3.33329 15 3.33329" fill="#9597A3"/>
<mask id="mask0_6782_5291" style="mask-type:luminance" maskUnits="userSpaceOnUse" x="2" y="1" width="16" height="18">
<path fill-rule="evenodd" clip-rule="evenodd" d="M5.83333 13.3333C5.83333 12.875 6.20833 12.5 6.66667 12.5C7.125 12.5 7.5 12.875 7.5 13.3333C7.5 13.7916 7.125 14.1666 6.66667 14.1666C6.20833 14.1666 5.83333 13.7916 5.83333 13.3333ZM10 12.5H13.3333C13.7917 12.5 14.1667 12.875 14.1667 13.3333C14.1667 13.7916 13.7917 14.1666 13.3333 14.1666H10C9.54167 14.1666 9.16667 13.7916 9.16667 13.3333C9.16667 12.875 9.54167 12.5 10 12.5ZM15 16.6666H5C4.54083 16.6666 4.16667 16.2925 4.16667 15.8333V10.8333H15.8333V15.8333C15.8333 16.2925 15.4592 16.6666 15 16.6666M5 4.99996H5.83333V5.83329C5.83333 6.29163 6.20833 6.66663 6.66667 6.66663C7.125 6.66663 7.5 6.29163 7.5 5.83329V4.99996H12.5V5.83329C12.5 6.29163 12.875 6.66663 13.3333 6.66663C13.7917 6.66663 14.1667 6.29163 14.1667 5.83329V4.99996H15C15.4592 4.99996 15.8333 5.37413 15.8333 5.83329V9.16663H4.16667V5.83329C4.16667 5.37413 4.54083 4.99996 5 4.99996M15 3.33329H14.1667V2.49996C14.1667 2.04163 13.7917 1.66663 13.3333 1.66663C12.875 1.66663 12.5 2.04163 12.5 2.49996V3.33329H7.5V2.49996C7.5 2.04163 7.125 1.66663 6.66667 1.66663C6.20833 1.66663 5.83333 2.04163 5.83333 2.49996V3.33329H5C3.62167 3.33329 2.5 4.45496 2.5 5.83329V15.8333C2.5 17.2116 3.62167 18.3333 5 18.3333H15C16.3783 18.3333 17.5 17.2116 17.5 15.8333V5.83329C17.5 4.45496 16.3783 3.33329 15 3.33329" fill="white"/>
</mask>
<g mask="url(#mask0_6782_5291)">
<rect width="20" height="20" fill="#9597A3"/>
</g>
</svg>
