<svg width="16" height="16" viewBox="0 0 16 16" fill="none" xmlns="http://www.w3.org/2000/svg">
<path fill-rule="evenodd" clip-rule="evenodd" d="M6.71822 11.6C6.55262 11.6 6.39422 11.5316 6.28082 11.411L3.36302 8.30361C3.13562 8.06241 3.14822 7.68261 3.38942 7.45581C3.63122 7.22901 4.01102 7.24101 4.23722 7.48221L6.71222 10.1168L11.757 4.59561C11.9814 4.35021 12.3606 4.33401 12.6054 4.55721C12.8496 4.78041 12.8664 5.16021 12.6432 5.40441L7.16102 11.4044C7.04882 11.528 6.88922 11.5988 6.72242 11.6H6.71822Z" fill="white"/>
<mask id="mask0_6782_7360" style="mask-type:luminance" maskUnits="userSpaceOnUse" x="3" y="4" width="10" height="8">
<path fill-rule="evenodd" clip-rule="evenodd" d="M6.71822 11.6C6.55262 11.6 6.39422 11.5316 6.28082 11.411L3.36302 8.30361C3.13562 8.06241 3.14822 7.68261 3.38942 7.45581C3.63122 7.22901 4.01102 7.24101 4.23722 7.48221L6.71222 10.1168L11.757 4.59561C11.9814 4.35021 12.3606 4.33401 12.6054 4.55721C12.8496 4.78041 12.8664 5.16021 12.6432 5.40441L7.16102 11.4044C7.04882 11.528 6.88922 11.5988 6.72242 11.6H6.71822Z" fill="white"/>
</mask>
<g mask="url(#mask0_6782_7360)">
<rect x="0.799805" y="0.799988" width="14.4" height="14.4" fill="white"/>
</g>
</svg>
