<svg width="24" height="25" viewBox="0 0 24 25" fill="none" xmlns="http://www.w3.org/2000/svg">
<path fill-rule="evenodd" clip-rule="evenodd" d="M9 13.5V12.5C9 10.846 10.346 9.5 12 9.5H13V6.167C13 5.799 12.701 5.5 12.333 5.5H5.667C5.299 5.5 5 5.799 5 6.167V12.833C5 13.201 5.299 13.5 5.667 13.5H9ZM9 15.5H5.667C4.196 15.5 3 14.304 3 12.833V6.167C3 4.696 4.196 3.5 5.667 3.5H12.333C13.804 3.5 15 4.696 15 6.167V9.5H18C19.654 9.5 21 10.846 21 12.5V18.5C21 20.154 19.654 21.5 18 21.5H12C10.346 21.5 9 20.154 9 18.5V15.5ZM11 12.5C11 11.949 11.449 11.5 12 11.5H18C18.552 11.5 19 11.949 19 12.5V18.5C19 19.051 18.552 19.5 18 19.5H12C11.449 19.5 11 19.051 11 18.5V12.5Z" fill="#094282"/>
<mask id="mask0_1347_12686" style="mask-type:luminance" maskUnits="userSpaceOnUse" x="3" y="3" width="18" height="19">
<path fill-rule="evenodd" clip-rule="evenodd" d="M9 13.5V12.5C9 10.846 10.346 9.5 12 9.5H13V6.167C13 5.799 12.701 5.5 12.333 5.5H5.667C5.299 5.5 5 5.799 5 6.167V12.833C5 13.201 5.299 13.5 5.667 13.5H9ZM9 15.5H5.667C4.196 15.5 3 14.304 3 12.833V6.167C3 4.696 4.196 3.5 5.667 3.5H12.333C13.804 3.5 15 4.696 15 6.167V9.5H18C19.654 9.5 21 10.846 21 12.5V18.5C21 20.154 19.654 21.5 18 21.5H12C10.346 21.5 9 20.154 9 18.5V15.5ZM11 12.5C11 11.949 11.449 11.5 12 11.5H18C18.552 11.5 19 11.949 19 12.5V18.5C19 19.051 18.552 19.5 18 19.5H12C11.449 19.5 11 19.051 11 18.5V12.5Z" fill="white"/>
</mask>
<g mask="url(#mask0_1347_12686)">
<rect y="0.5" width="24" height="24" fill="#094282"/>
</g>
</svg>
