<svg width="24" height="24" viewBox="0 0 24 24" fill="none" xmlns="http://www.w3.org/2000/svg">
<path fill-rule="evenodd" clip-rule="evenodd" d="M8.39097 15.6094C8.65095 15.8693 8.99225 16 9.33356 16C9.67486 16 10.0162 15.8693 10.2761 15.6094L12 13.8854L13.7239 15.6094C13.9838 15.8693 14.3251 16 14.6664 16C15.0077 16 15.3491 15.8693 15.609 15.6094C16.1303 15.088 16.1303 14.2454 15.609 13.7241L13.8852 12.0002L15.609 10.2762C16.1303 9.75493 16.1303 8.9123 15.609 8.39098C15.0877 7.86967 14.2451 7.86967 13.7239 8.39098L12 10.1149L10.2761 8.39098C9.75485 7.86967 8.91226 7.86967 8.39097 8.39098C7.86968 8.9123 7.86968 9.75493 8.39097 10.2762L10.1148 12.0002L8.39097 13.7241C7.86968 14.2454 7.86968 15.088 8.39097 15.6094ZM12 20C7.589 20 4 16.411 4 12C4 7.589 7.589 4 12 4C16.411 4 20 7.589 20 12C20 16.411 16.411 20 12 20ZM12 2C6.477 2 2 6.478 2 12C2 17.522 6.477 22 12 22C17.523 22 22 17.522 22 12C22 6.478 17.523 2 12 2Z" fill="#094282"/>
<mask id="mask0_1332_9892" style="mask-type:alpha" maskUnits="userSpaceOnUse" x="2" y="2" width="20" height="20">
<path fill-rule="evenodd" clip-rule="evenodd" d="M8.39097 15.6094C8.65095 15.8693 8.99225 16 9.33356 16C9.67486 16 10.0162 15.8693 10.2761 15.6094L12 13.8854L13.7239 15.6094C13.9838 15.8693 14.3251 16 14.6664 16C15.0077 16 15.3491 15.8693 15.609 15.6094C16.1303 15.088 16.1303 14.2454 15.609 13.7241L13.8852 12.0002L15.609 10.2762C16.1303 9.75493 16.1303 8.9123 15.609 8.39098C15.0877 7.86967 14.2451 7.86967 13.7239 8.39098L12 10.1149L10.2761 8.39098C9.75485 7.86967 8.91226 7.86967 8.39097 8.39098C7.86968 8.9123 7.86968 9.75493 8.39097 10.2762L10.1148 12.0002L8.39097 13.7241C7.86968 14.2454 7.86968 15.088 8.39097 15.6094ZM12 20C7.589 20 4 16.411 4 12C4 7.589 7.589 4 12 4C16.411 4 20 7.589 20 12C20 16.411 16.411 20 12 20ZM12 2C6.477 2 2 6.478 2 12C2 17.522 6.477 22 12 22C17.523 22 22 17.522 22 12C22 6.478 17.523 2 12 2Z" fill="#0D0D0D"/>
</mask>
<g mask="url(#mask0_1332_9892)">
<rect width="24" height="24" fill="#D40202"/>
</g>
</svg>
