<svg width="30" height="30" viewBox="0 0 30 30" fill="none" xmlns="http://www.w3.org/2000/svg">
<path d="M18.6454 7.37646C17.3704 7.60741 16.2493 8.53604 15.7537 9.76779C15.6863 9.94101 15.6142 10.1527 15.5997 10.2345L15.5709 10.3789H10.461C5.58692 10.3789 5.34635 10.3837 5.1587 10.4703C4.86519 10.605 4.73047 10.8215 4.73047 11.1583C4.73047 11.4615 4.82189 11.625 5.09133 11.8079L5.25011 11.9185H10.4033H15.5564L15.6863 12.342C15.9895 13.3091 16.7256 14.1559 17.6639 14.613C18.275 14.9065 18.5829 14.9739 19.3335 14.9739C20.0841 14.9691 20.3872 14.9065 21.0031 14.6082C21.9413 14.1607 22.6583 13.338 22.9758 12.3516L23.1105 11.9185H24.4145C25.6847 11.9185 25.7232 11.9137 25.8772 11.8079C26.1178 11.6491 26.2236 11.4711 26.2477 11.2113C26.2717 10.8985 26.1226 10.6339 25.8291 10.4847C25.6222 10.3837 25.5692 10.3789 24.3567 10.3789H23.1009L23.0672 10.2345C23.0143 9.96025 22.7834 9.44061 22.5717 9.10861C21.9798 8.1848 21.0416 7.5593 19.983 7.37165C19.4778 7.28504 19.1458 7.28504 18.6454 7.37646ZM19.8195 8.90653C20.7577 9.10861 21.4698 9.87365 21.6093 10.8311C21.8451 12.4671 20.3391 13.8047 18.732 13.3861C17.8804 13.1599 17.2164 12.4334 17.0624 11.5432C16.8604 10.3548 17.6495 9.16635 18.8187 8.91134C19.2084 8.82473 19.4345 8.82473 19.8195 8.90653Z" fill="white"/>
<path d="M10.947 15.0749C9.67192 15.3059 8.55083 16.2345 8.05524 17.4663C7.98788 17.6395 7.91571 17.8512 7.90127 17.933L7.8724 18.0773H6.61178C5.49069 18.0773 5.33672 18.087 5.1587 18.1688C4.86519 18.3035 4.73047 18.52 4.73047 18.8568C4.73047 19.1599 4.82189 19.3235 5.09133 19.5064C5.2453 19.6122 5.2838 19.617 6.55404 19.617H7.85797L7.98788 20.0405C8.29101 21.0076 9.02717 21.8544 9.96542 22.3115C10.5765 22.605 10.8844 22.6724 11.635 22.6724C12.3856 22.6676 12.6888 22.605 13.3046 22.3067C14.2429 21.8592 14.9598 21.0364 15.2774 20.0501L15.4121 19.617H20.5652H25.7184L25.8772 19.5064C26.1178 19.3476 26.2236 19.1696 26.2477 18.9097C26.2717 18.597 26.1226 18.3324 25.8291 18.1832L25.6174 18.0773H20.5075H15.4025L15.3688 17.933C15.3159 17.6587 15.0849 17.1391 14.8732 16.8071C14.2814 15.8833 13.3431 15.2578 12.2846 15.0701C11.7794 14.9835 11.4474 14.9835 10.947 15.0749ZM12.121 16.605C13.0592 16.8071 13.7714 17.5721 13.9109 18.5296C14.1467 20.1656 12.6406 21.5032 11.0336 21.0846C10.1819 20.8584 9.51795 20.1319 9.36398 19.2417C9.1619 18.0533 9.95099 16.8648 11.1202 16.6098C11.5099 16.5232 11.7361 16.5232 12.121 16.605Z" fill="white"/>
</svg>
