<svg width="24" height="24" viewBox="0 0 24 24" fill="none" xmlns="http://www.w3.org/2000/svg">
<path d="M19.4992 12C19.4994 10.5406 19.0738 9.11283 18.2745 7.89173C17.4753 6.67063 16.3372 5.70924 14.9996 5.1254C13.6621 4.54155 12.1833 4.36062 10.7445 4.60478C9.30562 4.84895 7.96928 5.50759 6.89922 6.49999H8.24922C8.44813 6.49999 8.6389 6.579 8.77955 6.71966C8.9202 6.86031 8.99922 7.05107 8.99922 7.24999C8.99922 7.4489 8.9202 7.63966 8.77955 7.78032C8.6389 7.92097 8.44813 7.99999 8.24922 7.99999H5.24922C5.05031 7.99999 4.85954 7.92097 4.71889 7.78032C4.57824 7.63966 4.49922 7.4489 4.49922 7.24999V4.24999C4.49922 4.05107 4.57824 3.86031 4.71889 3.71966C4.85954 3.579 5.05031 3.49999 5.24922 3.49999C5.44813 3.49999 5.6389 3.579 5.77955 3.71966C5.9202 3.86031 5.99922 4.05107 5.99922 4.24999V5.29199C7.57965 3.8789 9.60818 3.06909 11.7273 3.0053C13.8463 2.94151 15.9199 3.62783 17.5825 4.94329C19.245 6.25875 20.3899 8.11889 20.8151 10.1958C21.2404 12.2728 20.9188 14.4332 19.9071 16.2962C18.8954 18.1593 17.2584 19.6054 15.2848 20.3796C13.3112 21.1538 11.1277 21.2065 9.11902 20.5283C7.11039 19.8501 5.40564 18.4846 4.30527 16.6725C3.20491 14.8604 2.77956 12.718 3.10422 10.623C3.13433 10.4464 3.22676 10.2864 3.36473 10.1721C3.50271 10.0578 3.67708 9.99672 3.85622 9.99999C4.31622 9.99999 4.64722 10.438 4.58022 10.892C4.42911 11.9118 4.48989 12.9519 4.75877 13.9472C5.02764 14.9425 5.49883 15.8717 6.14291 16.6767C6.78699 17.4817 7.59014 18.1453 8.50219 18.6261C9.41423 19.1068 10.4156 19.3943 11.4437 19.4706C12.4719 19.547 13.5048 19.4106 14.4778 19.0698C15.4509 18.7291 16.3432 18.1915 17.0992 17.4904C17.8551 16.7893 18.4584 15.94 18.8713 14.9953C19.2843 14.0506 19.498 13.031 19.4992 12ZM12.4992 7.74999C12.4992 7.55107 12.4202 7.36031 12.2796 7.21966C12.1389 7.079 11.9481 6.99999 11.7492 6.99999C11.5503 6.99999 11.3595 7.079 11.2189 7.21966C11.0782 7.36031 10.9992 7.55107 10.9992 7.74999V12.25C10.9992 12.664 11.3352 13 11.7492 13H14.2492C14.4481 13 14.6389 12.921 14.7796 12.7803C14.9202 12.6397 14.9992 12.4489 14.9992 12.25C14.9992 12.0511 14.9202 11.8603 14.7796 11.7197C14.6389 11.579 14.4481 11.5 14.2492 11.5H12.4992V7.74999Z" fill="#3B59BF"/>
</svg>
