<svg width="25" height="24" viewBox="0 0 25 24" fill="none" xmlns="http://www.w3.org/2000/svg">
<path fill-rule="evenodd" clip-rule="evenodd" d="M19.2402 20H16.2502V13C16.2502 12.447 15.8022 12 15.2502 12H9.25024C8.69724 12 8.25024 12.447 8.25024 13V20H5.25024L5.25624 11.583L12.2482 4.432L19.2502 11.624L19.2402 20ZM10.25 22H14.25V14H10.25V22ZM20.6742 10.185L12.9652 2.301C12.5882 1.916 11.9122 1.916 11.5352 2.301L3.82524 10.186C3.46024 10.561 3.25024 11.085 3.25024 11.624V20C3.25024 21.103 4.09724 22 5.13824 22H9.25024H15.2502H19.3612C20.4022 22 21.2502 21.103 21.2502 20V11.624C21.2502 11.085 21.0402 10.561 20.6742 10.185Z" fill="#9597A3"/>
<mask id="mask0_6759_1094" style="mask-type:luminance" maskUnits="userSpaceOnUse" x="3" y="2" width="19" height="20">
<path fill-rule="evenodd" clip-rule="evenodd" d="M19.2402 20H16.2502V13C16.2502 12.447 15.8022 12 15.2502 12H9.25024C8.69724 12 8.25024 12.447 8.25024 13V20H5.25024L5.25624 11.583L12.2482 4.432L19.2502 11.624L19.2402 20ZM10.2502 20H14.2502V14H10.2502V20ZM20.6742 10.185L12.9652 2.301C12.5882 1.916 11.9122 1.916 11.5352 2.301L3.82524 10.186C3.46024 10.561 3.25024 11.085 3.25024 11.624V20C3.25024 21.103 4.09724 22 5.13824 22H9.25024H15.2502H19.3612C20.4022 22 21.2502 21.103 21.2502 20V11.624C21.2502 11.085 21.0402 10.561 20.6742 10.185Z" fill="white"/>
</mask>
<g mask="url(#mask0_6759_1094)">
<rect x="0.25" width="24" height="24" fill="#9597A3"/>
</g>
</svg>
