<svg width="24" height="24" viewBox="0 0 24 24" fill="none" xmlns="http://www.w3.org/2000/svg">
<path fill-rule="evenodd" clip-rule="evenodd" d="M11.374 20H12.625V19.233C12.625 18.298 13.2 17.458 14.089 17.091C15.009 16.708 16.014 16.896 16.676 17.562L17.215 18.103L18.103 17.215L17.558 16.671C16.895 16.009 16.708 15.005 17.081 14.114C17.081 14.114 17.082 14.113 17.082 14.112L17.093 14.084C17.457 13.201 18.298 12.625 19.233 12.625H19.999V11.375H19.233C18.298 11.375 17.457 10.8 17.091 9.911C16.706 8.991 16.895 7.986 17.561 7.323L18.102 6.784L17.215 5.897L16.67 6.442C16.008 7.104 15.005 7.291 14.114 6.919C13.201 6.542 12.625 5.702 12.625 4.767V4H11.374V4.767C11.374 5.702 10.799 6.542 9.91002 6.909C8.99102 7.294 7.98602 7.105 7.32302 6.438L6.78402 5.897L5.89602 6.785L6.44102 7.329C7.10302 7.991 7.29102 8.995 6.91802 9.886C6.54202 10.799 5.70102 11.375 4.76602 11.375H3.99902V12.625H4.76602C5.70102 12.625 6.54202 13.2 6.90802 14.089C7.29302 15.009 7.10402 16.014 6.43802 16.677L5.89702 17.216L6.78402 18.103L7.32902 17.558C7.99102 16.896 8.99402 16.709 9.88502 17.081C10.798 17.458 11.374 18.298 11.374 19.233V20ZM12.942 22H11.05C10.126 22 9.37402 21.248 9.37402 20.324V19.233C9.37402 19.086 9.25702 18.985 9.14702 18.94C9.00302 18.881 8.84902 18.869 8.74302 18.972L7.97302 19.743C7.31702 20.397 6.25102 20.399 5.59602 19.743L4.25602 18.403C3.93802 18.085 3.76402 17.663 3.76402 17.213C3.76502 16.764 3.94002 16.342 4.25902 16.024L5.02702 15.259C5.13202 15.154 5.12102 15 5.07402 14.889C5.01402 14.742 4.91402 14.625 4.76602 14.625H3.68202C2.75402 14.625 1.99902 13.871 1.99902 12.943V11.051C1.99902 10.126 2.75102 9.375 3.67602 9.375H4.76602C4.91302 9.375 5.01402 9.257 5.05902 9.147C5.11902 9.003 5.13102 8.848 5.02702 8.744L4.25602 7.974C3.60202 7.317 3.60202 6.251 4.25602 5.597L5.59602 4.257C5.91402 3.939 6.33502 3.765 6.78402 3.765H6.78602C7.23502 3.765 7.65802 3.94 7.97502 4.259L8.74002 5.028C8.84502 5.134 9.00002 5.122 9.11102 5.075C9.25702 5.014 9.37402 4.914 9.37402 4.767V3.683C9.37402 2.755 10.129 2 11.057 2H12.949C13.873 2 14.625 2.752 14.625 3.676V4.767C14.625 4.914 14.742 5.015 14.852 5.06C14.997 5.12 15.151 5.133 15.256 5.028L16.026 4.257C16.682 3.603 17.748 3.601 18.403 4.257L19.744 5.598C20.062 5.915 20.236 6.337 20.235 6.787C20.235 7.235 20.06 7.658 19.741 7.975L18.972 8.741C18.867 8.846 18.878 9 18.925 9.111C18.985 9.258 19.085 9.375 19.233 9.375H20.317C21.245 9.375 21.999 10.129 21.999 11.057V12.949C21.999 13.874 21.248 14.625 20.323 14.625H19.233C19.086 14.625 18.985 14.743 18.94 14.853C18.939 14.854 18.927 14.884 18.926 14.886C18.88 14.997 18.868 15.152 18.972 15.256L19.743 16.026C20.397 16.683 20.397 17.749 19.743 18.403L18.403 19.743C18.085 20.061 17.664 20.235 17.215 20.235H17.213C16.764 20.235 16.341 20.06 16.024 19.741L15.259 18.972C15.154 18.867 14.998 18.879 14.888 18.925C14.742 18.986 14.625 19.086 14.625 19.233V20.317C14.625 21.245 13.87 22 12.942 22ZM11.9995 10.5C11.1725 10.5 10.4995 11.173 10.4995 12C10.4995 12.827 11.1725 13.5 11.9995 13.5C12.8265 13.5 13.4995 12.827 13.4995 12C13.4995 11.173 12.8265 10.5 11.9995 10.5ZM11.9995 15.5C10.0695 15.5 8.49952 13.93 8.49952 12C8.49952 10.07 10.0695 8.5 11.9995 8.5C13.9295 8.5 15.4995 10.07 15.4995 12C15.4995 13.93 13.9295 15.5 11.9995 15.5Z" fill="white"/>
<mask id="mask0_6759_13116" style="mask-type:luminance" maskUnits="userSpaceOnUse" x="1" y="2" width="21" height="20">
<path fill-rule="evenodd" clip-rule="evenodd" d="M11.374 20H12.625V19.233C12.625 18.298 13.2 17.458 14.089 17.091C15.009 16.708 16.014 16.896 16.676 17.562L17.215 18.103L18.103 17.215L17.558 16.671C16.895 16.009 16.708 15.005 17.081 14.114C17.081 14.114 17.082 14.113 17.082 14.112L17.093 14.084C17.457 13.201 18.298 12.625 19.233 12.625H19.999V11.375H19.233C18.298 11.375 17.457 10.8 17.091 9.911C16.706 8.991 16.895 7.986 17.561 7.323L18.102 6.784L17.215 5.897L16.67 6.442C16.008 7.104 15.005 7.291 14.114 6.919C13.201 6.542 12.625 5.702 12.625 4.767V4H11.374V4.767C11.374 5.702 10.799 6.542 9.91002 6.909C8.99102 7.294 7.98602 7.105 7.32302 6.438L6.78402 5.897L5.89602 6.785L6.44102 7.329C7.10302 7.991 7.29102 8.995 6.91802 9.886C6.54202 10.799 5.70102 11.375 4.76602 11.375H3.99902V12.625H4.76602C5.70102 12.625 6.54202 13.2 6.90802 14.089C7.29302 15.009 7.10402 16.014 6.43802 16.677L5.89702 17.216L6.78402 18.103L7.32902 17.558C7.99102 16.896 8.99402 16.709 9.88502 17.081C10.798 17.458 11.374 18.298 11.374 19.233V20ZM12.942 22H11.05C10.126 22 9.37402 21.248 9.37402 20.324V19.233C9.37402 19.086 9.25702 18.985 9.14702 18.94C9.00302 18.881 8.84902 18.869 8.74302 18.972L7.97302 19.743C7.31702 20.397 6.25102 20.399 5.59602 19.743L4.25602 18.403C3.93802 18.085 3.76402 17.663 3.76402 17.213C3.76502 16.764 3.94002 16.342 4.25902 16.024L5.02702 15.259C5.13202 15.154 5.12102 15 5.07402 14.889C5.01402 14.742 4.91402 14.625 4.76602 14.625H3.68202C2.75402 14.625 1.99902 13.871 1.99902 12.943V11.051C1.99902 10.126 2.75102 9.375 3.67602 9.375H4.76602C4.91302 9.375 5.01402 9.257 5.05902 9.147C5.11902 9.003 5.13102 8.848 5.02702 8.744L4.25602 7.974C3.60202 7.317 3.60202 6.251 4.25602 5.597L5.59602 4.257C5.91402 3.939 6.33502 3.765 6.78402 3.765H6.78602C7.23502 3.765 7.65802 3.94 7.97502 4.259L8.74002 5.028C8.84502 5.134 9.00002 5.122 9.11102 5.075C9.25702 5.014 9.37402 4.914 9.37402 4.767V3.683C9.37402 2.755 10.129 2 11.057 2H12.949C13.873 2 14.625 2.752 14.625 3.676V4.767C14.625 4.914 14.742 5.015 14.852 5.06C14.997 5.12 15.151 5.133 15.256 5.028L16.026 4.257C16.682 3.603 17.748 3.601 18.403 4.257L19.744 5.598C20.062 5.915 20.236 6.337 20.235 6.787C20.235 7.235 20.06 7.658 19.741 7.975L18.972 8.741C18.867 8.846 18.878 9 18.925 9.111C18.985 9.258 19.085 9.375 19.233 9.375H20.317C21.245 9.375 21.999 10.129 21.999 11.057V12.949C21.999 13.874 21.248 14.625 20.323 14.625H19.233C19.086 14.625 18.985 14.743 18.94 14.853C18.939 14.854 18.927 14.884 18.926 14.886C18.88 14.997 18.868 15.152 18.972 15.256L19.743 16.026C20.397 16.683 20.397 17.749 19.743 18.403L18.403 19.743C18.085 20.061 17.664 20.235 17.215 20.235H17.213C16.764 20.235 16.341 20.06 16.024 19.741L15.259 18.972C15.154 18.867 14.998 18.879 14.888 18.925C14.742 18.986 14.625 19.086 14.625 19.233V20.317C14.625 21.245 13.87 22 12.942 22ZM11.9995 10.5C11.1725 10.5 10.4995 11.173 10.4995 12C10.4995 12.827 11.1725 13.5 11.9995 13.5C12.8265 13.5 13.4995 12.827 13.4995 12C13.4995 11.173 12.8265 10.5 11.9995 10.5ZM11.9995 15.5C10.0695 15.5 8.49952 13.93 8.49952 12C8.49952 10.07 10.0695 8.5 11.9995 8.5C13.9295 8.5 15.4995 10.07 15.4995 12C15.4995 13.93 13.9295 15.5 11.9995 15.5Z" fill="white"/>
</mask>
<g mask="url(#mask0_6759_13116)">
<rect width="24" height="24" fill="white"/>
</g>
</svg>
