<svg width="25" height="24" viewBox="0 0 25 24" fill="none" xmlns="http://www.w3.org/2000/svg">
<g clip-path="url(#clip0_6759_3535)">
<path d="M7.25 4C5.05 4 3.25 5.8 3.25 8C3.25 10.2 5.05 12 7.25 12C9.45 12 11.25 10.2 11.25 8C11.25 5.8 9.45 4 7.25 4ZM7.25 10C6.15 10 5.25 9.1 5.25 8C5.25 6.9 6.15 6 7.25 6C8.35 6 9.25 6.9 9.25 8C9.25 9.1 8.35 10 7.25 10ZM7.25 14C3.35 14 0.25 15.8 0.25 18V20H11.25V18H2.25C2.25 17.4 4.05 16 7.25 16C9.05 16 10.45 16.5 11.25 17V14.8C10.15 14.3 8.75 14 7.25 14ZM22.25 4H15.25C14.15 4 13.25 4.9 13.25 6V18C13.25 19.1 14.15 20 15.25 20H22.25C23.35 20 24.25 19.1 24.25 18V6C24.25 4.9 23.35 4 22.25 4ZM16.25 18H15.25V6H16.25V18ZM22.25 18H18.25V6H22.25V18Z" fill="#9597A3"/>
</g>
<defs>
<clipPath id="clip0_6759_3535">
<rect width="24" height="24" fill="white" transform="translate(0.25)"/>
</clipPath>
</defs>
</svg>
