<svg width="25" height="24" viewBox="0 0 25 24" fill="none" xmlns="http://www.w3.org/2000/svg">
<path fill-rule="evenodd" clip-rule="evenodd" d="M8.5 5C8.5 5.55 8.05 6 7.5 6H6.5V18H7.5C8.05 18 8.5 18.45 8.5 19C8.5 19.55 8.05 20 7.5 20H5.5C4.95 20 4.5 19.55 4.5 19V5C4.5 4.45 4.95 4 5.5 4H7.5C8.05 4 8.5 4.45 8.5 5ZM18.5039 7.4248L21.3179 11.4248C21.5679 11.7788 21.5599 12.2538 21.2999 12.5998L18.2999 16.5998C18.1039 16.8618 17.8029 16.9998 17.4989 16.9998C17.2909 16.9998 17.0799 16.9348 16.8999 16.7998C16.4579 16.4688 16.3689 15.8418 16.6999 15.4008L18.5009 12.9998H18.4999H10.4999C9.9479 12.9998 9.4999 12.5528 9.4999 11.9998C9.4999 11.4468 9.9479 10.9998 10.4999 10.9998H18.4999C18.5164 10.9998 18.5317 11.0044 18.5472 11.0089C18.5598 11.0127 18.5724 11.0165 18.5859 11.0178L16.8679 8.5748C16.5499 8.1238 16.6589 7.4998 17.1109 7.1818C17.5619 6.8628 18.1859 6.9728 18.5039 7.4248Z" fill="white"/>
<mask id="mask0_6782_9580" style="mask-type:luminance" maskUnits="userSpaceOnUse" x="4" y="4" width="18" height="16">
<path fill-rule="evenodd" clip-rule="evenodd" d="M8.5 5C8.5 5.55 8.05 6 7.5 6H6.5V18H7.5C8.05 18 8.5 18.45 8.5 19C8.5 19.55 8.05 20 7.5 20H5.5C4.95 20 4.5 19.55 4.5 19V5C4.5 4.45 4.95 4 5.5 4H7.5C8.05 4 8.5 4.45 8.5 5ZM18.5039 7.4248L21.3179 11.4248C21.5679 11.7788 21.5599 12.2538 21.2999 12.5998L18.2999 16.5998C18.1039 16.8618 17.8029 16.9998 17.4989 16.9998C17.2909 16.9998 17.0799 16.9348 16.8999 16.7998C16.4579 16.4688 16.3689 15.8418 16.6999 15.4008L18.5009 12.9998H18.4999H10.4999C9.9479 12.9998 9.4999 12.5528 9.4999 11.9998C9.4999 11.4468 9.9479 10.9998 10.4999 10.9998H18.4999C18.5164 10.9998 18.5317 11.0044 18.5472 11.0089C18.5598 11.0127 18.5724 11.0165 18.5859 11.0178L16.8679 8.5748C16.5499 8.1238 16.6589 7.4998 17.1109 7.1818C17.5619 6.8628 18.1859 6.9728 18.5039 7.4248Z" fill="white"/>
</mask>
<g mask="url(#mask0_6782_9580)">
<rect x="0.5" width="24" height="24" fill="white"/>
</g>
</svg>
