<svg width="24" height="24" viewBox="0 0 24 24" fill="none" xmlns="http://www.w3.org/2000/svg">
<path fill-rule="evenodd" clip-rule="evenodd" d="M11.1 18.2222C10.6032 18.2222 10.2 17.824 10.2 17.3333C10.2 16.8427 10.6032 16.4445 11.1 16.4445C11.5968 16.4445 12 16.8427 12 17.3333C12 17.824 11.5968 18.2222 11.1 18.2222ZM20.1 16.4444H13.6335C13.2609 15.4124 12.2718 14.6667 11.1 14.6667C9.9282 14.6667 8.9391 15.4124 8.5665 16.4444H3.9C3.4023 16.4444 3 16.8418 3 17.3333C3 17.8249 3.4023 18.2222 3.9 18.2222H8.5665C8.9391 19.2542 9.9282 20 11.1 20C12.2718 20 13.2609 19.2542 13.6335 18.2222H20.1C20.5977 18.2222 21 17.8249 21 17.3333C21 16.8418 20.5977 16.4444 20.1 16.4444ZM18.2999 12.8889C17.8031 12.8889 17.3999 12.4906 17.3999 12C17.3999 11.5093 17.8031 11.1111 18.2999 11.1111C18.7967 11.1111 19.1999 11.5093 19.1999 12C19.1999 12.4906 18.7967 12.8889 18.2999 12.8889ZM18.3 9.33333C17.1282 9.33333 16.1391 10.0791 15.7665 11.1111H3.9C3.4023 11.1111 3 11.5084 3 12C3 12.4916 3.4023 12.8889 3.9 12.8889H15.7665C16.1391 13.9209 17.1282 14.6667 18.3 14.6667C19.7886 14.6667 21 13.4702 21 12C21 10.5298 19.7886 9.33333 18.3 9.33333ZM7.49999 5.77783C7.99679 5.77783 8.39999 6.17605 8.39999 6.66672C8.39999 7.15739 7.99679 7.55561 7.49999 7.55561C7.00319 7.55561 6.59999 7.15739 6.59999 6.66672C6.59999 6.17605 7.00319 5.77783 7.49999 5.77783ZM3.9 7.55556H4.9665C5.3391 8.58756 6.3282 9.33333 7.5 9.33333C8.6718 9.33333 9.6609 8.58756 10.0335 7.55556H20.1C20.5977 7.55556 21 7.15822 21 6.66667C21 6.17511 20.5977 5.77778 20.1 5.77778H10.0335C9.6609 4.74578 8.6718 4 7.5 4C6.3282 4 5.3391 4.74578 4.9665 5.77778H3.9C3.4023 5.77778 3 6.17511 3 6.66667C3 7.15822 3.4023 7.55556 3.9 7.55556Z" fill="#0B0C0D"/>
<mask id="mask0_271_13642" style="mask-type:luminance" maskUnits="userSpaceOnUse" x="3" y="4" width="18" height="16">
<path fill-rule="evenodd" clip-rule="evenodd" d="M11.1 18.2222C10.6032 18.2222 10.2 17.824 10.2 17.3333C10.2 16.8427 10.6032 16.4445 11.1 16.4445C11.5968 16.4445 12 16.8427 12 17.3333C12 17.824 11.5968 18.2222 11.1 18.2222ZM20.1 16.4444H13.6335C13.2609 15.4124 12.2718 14.6667 11.1 14.6667C9.9282 14.6667 8.9391 15.4124 8.5665 16.4444H3.9C3.4023 16.4444 3 16.8418 3 17.3333C3 17.8249 3.4023 18.2222 3.9 18.2222H8.5665C8.9391 19.2542 9.9282 20 11.1 20C12.2718 20 13.2609 19.2542 13.6335 18.2222H20.1C20.5977 18.2222 21 17.8249 21 17.3333C21 16.8418 20.5977 16.4444 20.1 16.4444ZM18.2999 12.8889C17.8031 12.8889 17.3999 12.4906 17.3999 12C17.3999 11.5093 17.8031 11.1111 18.2999 11.1111C18.7967 11.1111 19.1999 11.5093 19.1999 12C19.1999 12.4906 18.7967 12.8889 18.2999 12.8889ZM18.3 9.33333C17.1282 9.33333 16.1391 10.0791 15.7665 11.1111H3.9C3.4023 11.1111 3 11.5084 3 12C3 12.4916 3.4023 12.8889 3.9 12.8889H15.7665C16.1391 13.9209 17.1282 14.6667 18.3 14.6667C19.7886 14.6667 21 13.4702 21 12C21 10.5298 19.7886 9.33333 18.3 9.33333ZM7.49999 5.77783C7.99679 5.77783 8.39999 6.17605 8.39999 6.66672C8.39999 7.15739 7.99679 7.55561 7.49999 7.55561C7.00319 7.55561 6.59999 7.15739 6.59999 6.66672C6.59999 6.17605 7.00319 5.77783 7.49999 5.77783ZM3.9 7.55556H4.9665C5.3391 8.58756 6.3282 9.33333 7.5 9.33333C8.6718 9.33333 9.6609 8.58756 10.0335 7.55556H20.1C20.5977 7.55556 21 7.15822 21 6.66667C21 6.17511 20.5977 5.77778 20.1 5.77778H10.0335C9.6609 4.74578 8.6718 4 7.5 4C6.3282 4 5.3391 4.74578 4.9665 5.77778H3.9C3.4023 5.77778 3 6.17511 3 6.66667C3 7.15822 3.4023 7.55556 3.9 7.55556Z" fill="white"/>
</mask>
<g mask="url(#mask0_271_13642)">
<rect width="24" height="24" fill="#0B0C0D"/>
</g>
</svg>
