<svg width="20" height="20" viewBox="0 0 20 20" fill="none" xmlns="http://www.w3.org/2000/svg">
<path fill-rule="evenodd" clip-rule="evenodd" d="M11.668 5.83333C11.668 4.91417 10.9205 4.16667 10.0013 4.16667C9.08214 4.16667 8.33464 4.91417 8.33464 5.83333C8.33464 6.7525 9.08214 7.5 10.0013 7.5C10.9205 7.5 11.668 6.7525 11.668 5.83333ZM13.3346 5.83333C13.3346 7.67167 11.8396 9.16667 10.0013 9.16667C8.16297 9.16667 6.66797 7.67167 6.66797 5.83333C6.66797 3.995 8.16297 2.5 10.0013 2.5C11.8396 2.5 13.3346 3.995 13.3346 5.83333ZM4.16797 16.6667C4.16797 13.45 6.78547 10.8333 10.0013 10.8333C13.2171 10.8333 15.8346 13.45 15.8346 16.6667C15.8346 17.1267 15.4621 17.5 15.0013 17.5C14.5405 17.5 14.168 17.1267 14.168 16.6667C14.168 14.3692 12.2988 12.5 10.0013 12.5C7.7038 12.5 5.83464 14.3692 5.83464 16.6667C5.83464 17.1267 5.46214 17.5 5.0013 17.5C4.54047 17.5 4.16797 17.1267 4.16797 16.6667Z" fill="#0B0C0D"/>
<mask id="mask0_6782_188" style="mask-type:luminance" maskUnits="userSpaceOnUse" x="4" y="2" width="12" height="16">
<path fill-rule="evenodd" clip-rule="evenodd" d="M11.668 5.83333C11.668 4.91417 10.9205 4.16667 10.0013 4.16667C9.08214 4.16667 8.33464 4.91417 8.33464 5.83333C8.33464 6.7525 9.08214 7.5 10.0013 7.5C10.9205 7.5 11.668 6.7525 11.668 5.83333ZM13.3346 5.83333C13.3346 7.67167 11.8396 9.16667 10.0013 9.16667C8.16297 9.16667 6.66797 7.67167 6.66797 5.83333C6.66797 3.995 8.16297 2.5 10.0013 2.5C11.8396 2.5 13.3346 3.995 13.3346 5.83333ZM4.16797 16.6667C4.16797 13.45 6.78547 10.8333 10.0013 10.8333C13.2171 10.8333 15.8346 13.45 15.8346 16.6667C15.8346 17.1267 15.4621 17.5 15.0013 17.5C14.5405 17.5 14.168 17.1267 14.168 16.6667C14.168 14.3692 12.2988 12.5 10.0013 12.5C7.7038 12.5 5.83464 14.3692 5.83464 16.6667C5.83464 17.1267 5.46214 17.5 5.0013 17.5C4.54047 17.5 4.16797 17.1267 4.16797 16.6667Z" fill="white"/>
</mask>
<g mask="url(#mask0_6782_188)">
<rect width="20" height="20" fill="#0B0C0D"/>
</g>
</svg>
