<svg width="24" height="24" viewBox="0 0 24 24" fill="none" xmlns="http://www.w3.org/2000/svg">
<path d="M1.4 16.94C1.17909 16.94 1 16.7609 1 16.54V3.4C1 3.17909 1.17909 3 1.4 3H5.6C6.73333 3 7.64667 3.16667 8.34 3.5C9.03333 3.82 9.54 4.28667 9.86 4.9C10.1933 5.5 10.36 6.21333 10.36 7.04C10.36 8.32 9.99333 9.31333 9.26 10.02C8.54 10.7133 7.50667 11.1 6.16 11.18C5.85333 11.1933 5.54 11.2 5.22 11.2C4.9 11.2 4.62667 11.2 4.4 11.2H3.98C3.75909 11.2 3.58 11.3791 3.58 11.6V16.54C3.58 16.7609 3.40091 16.94 3.18 16.94H1.4ZM8.81052 16.94C8.66784 16.94 8.53596 16.864 8.46442 16.7406L5.38403 11.4247C5.24008 11.1763 5.39697 10.8616 5.68199 10.827L7.46316 10.6111C7.61947 10.5922 7.77234 10.6667 7.85372 10.8015L11.1937 16.3333C11.3546 16.5998 11.1626 16.94 10.8512 16.94H8.81052ZM3.58 8.48C3.58 8.70091 3.75909 8.88 3.98 8.88H5.34C5.78 8.88 6.18 8.83333 6.54 8.74C6.91333 8.63333 7.21333 8.45333 7.44 8.2C7.66667 7.93333 7.78 7.56 7.78 7.08C7.78 6.58667 7.66667 6.21333 7.44 5.96C7.21333 5.70667 6.91333 5.54 6.54 5.46C6.18 5.36667 5.78 5.32 5.34 5.32H3.98C3.75909 5.32 3.58 5.49909 3.58 5.72V8.48Z" fill="#0B0C0D"/>
<path d="M13.5261 21.02C13.3052 21.02 13.1261 20.8409 13.1261 20.62V7.48C13.1261 7.25909 13.3052 7.08 13.5261 7.08H15.2061C15.427 7.08 15.6061 7.25909 15.6061 7.48V9.53643C15.6061 9.64606 15.5359 9.74338 15.4319 9.77805C15.2443 9.84059 15.0613 9.67484 15.1159 9.48476C15.2828 8.90351 15.5062 8.43526 15.7861 8.08C16.1461 7.64 16.5528 7.33333 17.0061 7.16C17.4594 6.97333 17.9328 6.88 18.4261 6.88C19.2928 6.88 20.0394 7.10667 20.6661 7.56C21.3061 8 21.7928 8.60667 22.1261 9.38C22.4594 10.1533 22.6261 11.0333 22.6261 12.02C22.6261 13.0867 22.4394 14.0067 22.0661 14.78C21.6928 15.54 21.1861 16.1267 20.5461 16.54C19.9061 16.94 19.1994 17.14 18.4261 17.14C17.9061 17.14 17.4128 17.0333 16.9461 16.82C16.4794 16.6067 16.0794 16.2867 15.7461 15.86C15.4786 15.4923 15.281 15.0454 15.1533 14.5193C15.1156 14.3639 15.2506 14.2253 15.4086 14.2496C15.5222 14.2671 15.6061 14.3649 15.6061 14.4798V20.62C15.6061 20.8409 15.427 21.02 15.2061 21.02H13.5261ZM17.7461 14.86C18.2394 14.86 18.6594 14.7467 19.0061 14.52C19.3661 14.28 19.6461 13.9467 19.8461 13.52C20.0461 13.0933 20.1461 12.5933 20.1461 12.02C20.1461 11.4333 20.0461 10.9267 19.8461 10.5C19.6461 10.0733 19.3661 9.74667 19.0061 9.52C18.6594 9.28 18.2394 9.16 17.7461 9.16C17.2661 9.16 16.8461 9.28 16.4861 9.52C16.1394 9.76 15.8661 10.0933 15.6661 10.52C15.4794 10.9333 15.3861 11.4333 15.3861 12.02C15.3861 12.5933 15.4794 13.0933 15.6661 13.52C15.8661 13.9467 16.1394 14.28 16.4861 14.52C16.8461 14.7467 17.2661 14.86 17.7461 14.86Z" fill="#0B0C0D"/>
<mask id="mask0_271_11467" style="mask-type:alpha" maskUnits="userSpaceOnUse" x="1" y="3" width="22" height="19">
<path d="M1.4 16.94C1.17909 16.94 1 16.7609 1 16.54V3.4C1 3.17909 1.17909 3 1.4 3H5.6C6.73333 3 7.64667 3.16667 8.34 3.5C9.03333 3.82 9.54 4.28667 9.86 4.9C10.1933 5.5 10.36 6.21333 10.36 7.04C10.36 8.32 9.99333 9.31333 9.26 10.02C8.54 10.7133 7.50667 11.1 6.16 11.18C5.85333 11.1933 5.54 11.2 5.22 11.2C4.9 11.2 4.62667 11.2 4.4 11.2H3.98C3.75909 11.2 3.58 11.3791 3.58 11.6V16.54C3.58 16.7609 3.40091 16.94 3.18 16.94H1.4ZM8.81052 16.94C8.66784 16.94 8.53596 16.864 8.46442 16.7406L5.38403 11.4247C5.24008 11.1763 5.39697 10.8616 5.68199 10.827L7.46316 10.6111C7.61947 10.5922 7.77234 10.6667 7.85372 10.8015L11.1937 16.3333C11.3546 16.5998 11.1626 16.94 10.8512 16.94H8.81052ZM3.58 8.48C3.58 8.70091 3.75909 8.88 3.98 8.88H5.34C5.78 8.88 6.18 8.83333 6.54 8.74C6.91333 8.63333 7.21333 8.45333 7.44 8.2C7.66667 7.93333 7.78 7.56 7.78 7.08C7.78 6.58667 7.66667 6.21333 7.44 5.96C7.21333 5.70667 6.91333 5.54 6.54 5.46C6.18 5.36667 5.78 5.32 5.34 5.32H3.98C3.75909 5.32 3.58 5.49909 3.58 5.72V8.48Z" fill="#1E1E1E"/>
<path d="M13.5261 21.02C13.3052 21.02 13.1261 20.8409 13.1261 20.62V7.48C13.1261 7.25909 13.3052 7.08 13.5261 7.08H15.2061C15.427 7.08 15.6061 7.25909 15.6061 7.48V9.53643C15.6061 9.64606 15.5359 9.74338 15.4319 9.77805C15.2443 9.84059 15.0613 9.67484 15.1159 9.48476C15.2828 8.90351 15.5062 8.43526 15.7861 8.08C16.1461 7.64 16.5528 7.33333 17.0061 7.16C17.4594 6.97333 17.9328 6.88 18.4261 6.88C19.2928 6.88 20.0394 7.10667 20.6661 7.56C21.3061 8 21.7928 8.60667 22.1261 9.38C22.4594 10.1533 22.6261 11.0333 22.6261 12.02C22.6261 13.0867 22.4394 14.0067 22.0661 14.78C21.6928 15.54 21.1861 16.1267 20.5461 16.54C19.9061 16.94 19.1994 17.14 18.4261 17.14C17.9061 17.14 17.4128 17.0333 16.9461 16.82C16.4794 16.6067 16.0794 16.2867 15.7461 15.86C15.4786 15.4923 15.281 15.0454 15.1533 14.5193C15.1156 14.3639 15.2506 14.2253 15.4086 14.2496C15.5222 14.2671 15.6061 14.3649 15.6061 14.4798V20.62C15.6061 20.8409 15.427 21.02 15.2061 21.02H13.5261ZM17.7461 14.86C18.2394 14.86 18.6594 14.7467 19.0061 14.52C19.3661 14.28 19.6461 13.9467 19.8461 13.52C20.0461 13.0933 20.1461 12.5933 20.1461 12.02C20.1461 11.4333 20.0461 10.9267 19.8461 10.5C19.6461 10.0733 19.3661 9.74667 19.0061 9.52C18.6594 9.28 18.2394 9.16 17.7461 9.16C17.2661 9.16 16.8461 9.28 16.4861 9.52C16.1394 9.76 15.8661 10.0933 15.6661 10.52C15.4794 10.9333 15.3861 11.4333 15.3861 12.02C15.3861 12.5933 15.4794 13.0933 15.6661 13.52C15.8661 13.9467 16.1394 14.28 16.4861 14.52C16.8461 14.7467 17.2661 14.86 17.7461 14.86Z" fill="#1E1E1E"/>
</mask>
<g mask="url(#mask0_271_11467)">
<rect width="24" height="24" fill="#0B0C0D"/>
</g>
</svg>
