<svg width="25" height="24" viewBox="0 0 25 24" fill="none" xmlns="http://www.w3.org/2000/svg">
<path d="M16.55 10.5H21.05C21.4479 10.5 21.8294 10.342 22.1107 10.0607C22.392 9.77936 22.55 9.39782 22.55 9V4.5C22.55 4.10218 22.392 3.72064 22.1107 3.43934C21.8294 3.15804 21.4479 3 21.05 3H16.55C16.1522 3 15.7707 3.15804 15.4894 3.43934C15.2081 3.72064 15.05 4.10218 15.05 4.5V6H14.3C13.5044 6 12.7413 6.31607 12.1787 6.87868C11.6161 7.44129 11.3 8.20435 11.3 9V11.25H8.30005V10.5C8.30005 10.1022 8.14201 9.72064 7.86071 9.43934C7.5794 9.15804 7.19787 9 6.80005 9H3.80005C3.40222 9 3.02069 9.15804 2.73939 9.43934C2.45808 9.72064 2.30005 10.1022 2.30005 10.5V13.5C2.30005 13.8978 2.45808 14.2794 2.73939 14.5607C3.02069 14.842 3.40222 15 3.80005 15H6.80005C7.19787 15 7.5794 14.842 7.86071 14.5607C8.14201 14.2794 8.30005 13.8978 8.30005 13.5V12.75H11.3V15C11.3 15.7956 11.6161 16.5587 12.1787 17.1213C12.7413 17.6839 13.5044 18 14.3 18H15.05V19.5C15.05 19.8978 15.2081 20.2794 15.4894 20.5607C15.7707 20.842 16.1522 21 16.55 21H21.05C21.4479 21 21.8294 20.842 22.1107 20.5607C22.392 20.2794 22.55 19.8978 22.55 19.5V15C22.55 14.6022 22.392 14.2206 22.1107 13.9393C21.8294 13.658 21.4479 13.5 21.05 13.5H16.55C16.1522 13.5 15.7707 13.658 15.4894 13.9393C15.2081 14.2206 15.05 14.6022 15.05 15V16.5H14.3C13.9022 16.5 13.5207 16.342 13.2394 16.0607C12.9581 15.7794 12.8 15.3978 12.8 15V9C12.8 8.60218 12.9581 8.22064 13.2394 7.93934C13.5207 7.65804 13.9022 7.5 14.3 7.5H15.05V9C15.05 9.39782 15.2081 9.77936 15.4894 10.0607C15.7707 10.342 16.1522 10.5 16.55 10.5ZM6.80005 13.5H3.80005V10.5H6.80005V13.5ZM16.55 15H21.05V19.5H16.55V15ZM16.55 4.5H21.05V9H16.55V4.5Z" fill="#9597A3"/>
</svg>
