<svg width="25" height="24" viewBox="0 0 25 24" fill="none" xmlns="http://www.w3.org/2000/svg">
<path d="M8.25 12H17.25V13.5H8.25V12ZM8.25 7.5H17.25V9H8.25V7.5Z" fill="#9597A3"/>
<path d="M12.75 22.5L8.118 20.0303C6.7975 19.3277 5.69323 18.2789 4.9237 16.9963C4.15416 15.7137 3.74842 14.2457 3.75 12.75V3C3.7504 2.6023 3.90856 2.221 4.18978 1.93978C4.471 1.65856 4.8523 1.5004 5.25 1.5H20.25C20.6477 1.5004 21.029 1.65856 21.3102 1.93978C21.5914 2.221 21.7496 2.6023 21.75 3V12.75C21.7516 14.2457 21.3458 15.7137 20.5763 16.9963C19.8068 18.2789 18.7025 19.3277 17.382 20.0303L12.75 22.5ZM5.25 3V12.75C5.24876 13.9739 5.58083 15.1749 6.21058 16.2243C6.84032 17.2737 7.74396 18.1318 8.8245 18.7065L12.75 20.7997L16.6755 18.7073C17.7562 18.1325 18.6599 17.2743 19.2896 16.2248C19.9194 15.1752 20.2514 13.974 20.25 12.75V3H5.25Z" fill="#9597A3"/>
</svg>
