<svg width="25" height="25" viewBox="0 0 25 25" fill="none" xmlns="http://www.w3.org/2000/svg">
<path d="M12.4997 8.33342H4.16634C3.61381 8.33342 3.0839 8.55291 2.6932 8.94361C2.3025 9.33431 2.08301 9.86421 2.08301 10.4167V14.5834C2.08301 15.1359 2.3025 15.6659 2.6932 16.0566C3.0839 16.4473 3.61381 16.6667 4.16634 16.6667H5.20801V20.8334C5.20801 21.1097 5.31775 21.3746 5.5131 21.57C5.70846 21.7653 5.97341 21.8751 6.24967 21.8751H8.33301C8.60927 21.8751 8.87423 21.7653 9.06958 21.57C9.26493 21.3746 9.37467 21.1097 9.37467 20.8334V16.6667H12.4997L17.708 20.8334V4.16675L12.4997 8.33342ZM22.3955 12.5001C22.3955 14.2813 21.3955 15.8959 19.7913 16.6667V8.33342C21.3851 9.11467 22.3955 10.7292 22.3955 12.5001Z" fill="#0B0C0D"/>
</svg>
