<svg width="19" height="18" viewBox="0 0 19 18" fill="none" xmlns="http://www.w3.org/2000/svg">
<path fill-rule="evenodd" clip-rule="evenodd" d="M11.667 9.96975C11.9602 10.263 11.9602 10.737 11.667 11.0302C11.5207 11.1765 11.3287 11.25 11.1367 11.25C10.9447 11.25 10.7527 11.1765 10.6065 11.0302L9.63672 10.0605L8.66697 11.0302C8.52072 11.1765 8.32872 11.25 8.13672 11.25C7.94472 11.25 7.75272 11.1765 7.60647 11.0302C7.31322 10.737 7.31322 10.263 7.60647 9.96975L8.57622 9L7.60647 8.03025C7.31322 7.737 7.31322 7.263 7.60647 6.96975C7.89972 6.6765 8.37372 6.6765 8.66697 6.96975L9.63672 7.9395L10.6065 6.96975C10.8997 6.6765 11.3737 6.6765 11.667 6.96975C11.9602 7.263 11.9602 7.737 11.667 8.03025L10.6972 9L11.667 9.96975ZM9.63672 1.5C5.50122 1.5 2.13672 4.8645 2.13672 9C2.13672 13.1355 5.50122 16.5 9.63672 16.5C13.7722 16.5 17.1367 13.1355 17.1367 9C17.1367 4.8645 13.7722 1.5 9.63672 1.5V1.5Z" fill="#D40202"/>
<mask id="mask0_1813_18630" style="mask-type:luminance" maskUnits="userSpaceOnUse" x="2" y="1" width="16" height="16">
<path fill-rule="evenodd" clip-rule="evenodd" d="M11.667 9.96975C11.9602 10.263 11.9602 10.737 11.667 11.0302C11.5207 11.1765 11.3287 11.25 11.1367 11.25C10.9447 11.25 10.7527 11.1765 10.6065 11.0302L9.63672 10.0605L8.66697 11.0302C8.52072 11.1765 8.32872 11.25 8.13672 11.25C7.94472 11.25 7.75272 11.1765 7.60647 11.0302C7.31322 10.737 7.31322 10.263 7.60647 9.96975L8.57622 9L7.60647 8.03025C7.31322 7.737 7.31322 7.263 7.60647 6.96975C7.89972 6.6765 8.37372 6.6765 8.66697 6.96975L9.63672 7.9395L10.6065 6.96975C10.8997 6.6765 11.3737 6.6765 11.667 6.96975C11.9602 7.263 11.9602 7.737 11.667 8.03025L10.6972 9L11.667 9.96975ZM9.63672 1.5C5.50122 1.5 2.13672 4.8645 2.13672 9C2.13672 13.1355 5.50122 16.5 9.63672 16.5C13.7722 16.5 17.1367 13.1355 17.1367 9C17.1367 4.8645 13.7722 1.5 9.63672 1.5V1.5Z" fill="white"/>
</mask>
<g mask="url(#mask0_1813_18630)">
<rect x="0.636719" width="18" height="18" fill="#D40202"/>
</g>
</svg>
