<svg width="45" height="45" viewBox="0 0 45 45" fill="none" xmlns="http://www.w3.org/2000/svg">
<path fill-rule="evenodd" clip-rule="evenodd" d="M27.5888 15C26.85 15 26.25 14.2856 26.25 13.4063V7.45875L33.2663 15H27.5888ZM28.125 33.75H16.875C15.84 33.75 15 32.91 15 31.875C15 30.84 15.84 30 16.875 30H28.125C29.1619 30 30 30.84 30 31.875C30 32.91 29.1619 33.75 28.125 33.75V33.75ZM16.875 22.5H22.5C23.535 22.5 24.375 23.34 24.375 24.375C24.375 25.41 23.535 26.25 22.5 26.25H16.875C15.84 26.25 15 25.41 15 24.375C15 23.34 15.84 22.5 16.875 22.5V22.5ZM37.0125 13.74L28.68 4.365C28.3256 3.97313 27.8212 3.75 27.2925 3.75H12.2925C9.65062 3.75 7.5 5.85375 7.5 8.4375V36.5625C7.5 39.1463 9.65062 41.25 12.2925 41.25H32.7075C35.3513 41.25 37.5 39.1463 37.5 36.5625V15C37.5 14.5331 37.3256 14.085 37.0125 13.74V13.74Z" fill="#0B0C0D"/>
<mask id="mask0_521_9102" style="mask-type:luminance" maskUnits="userSpaceOnUse" x="7" y="3" width="31" height="39">
<path fill-rule="evenodd" clip-rule="evenodd" d="M27.5888 15C26.85 15 26.25 14.2856 26.25 13.4063V7.45875L33.2663 15H27.5888ZM28.125 33.75H16.875C15.84 33.75 15 32.91 15 31.875C15 30.84 15.84 30 16.875 30H28.125C29.1619 30 30 30.84 30 31.875C30 32.91 29.1619 33.75 28.125 33.75V33.75ZM16.875 22.5H22.5C23.535 22.5 24.375 23.34 24.375 24.375C24.375 25.41 23.535 26.25 22.5 26.25H16.875C15.84 26.25 15 25.41 15 24.375C15 23.34 15.84 22.5 16.875 22.5V22.5ZM37.0125 13.74L28.68 4.365C28.3256 3.97313 27.8212 3.75 27.2925 3.75H12.2925C9.65062 3.75 7.5 5.85375 7.5 8.4375V36.5625C7.5 39.1463 9.65062 41.25 12.2925 41.25H32.7075C35.3513 41.25 37.5 39.1463 37.5 36.5625V15C37.5 14.5331 37.3256 14.085 37.0125 13.74V13.74Z" fill="white"/>
</mask>
<g mask="url(#mask0_521_9102)">
<rect width="45" height="45" fill="#0B0C0D"/>
</g>
</svg>
