<svg width="45" height="45" viewBox="0 0 45 45" fill="none" xmlns="http://www.w3.org/2000/svg">
<path fill-rule="evenodd" clip-rule="evenodd" d="M22.5 23.4375C20.9494 23.4375 19.6875 24.6994 19.6875 26.25C19.6875 27.8006 20.9494 29.0625 22.5 29.0625C24.0506 29.0625 25.3125 27.8006 25.3125 26.25C25.3125 24.6994 24.0506 23.4375 22.5 23.4375M22.5 32.8125C18.8813 32.8125 15.9375 29.8687 15.9375 26.25C15.9375 22.6313 18.8813 19.6875 22.5 19.6875C26.1187 19.6875 29.0625 22.6313 29.0625 26.25C29.0625 29.8687 26.1187 32.8125 22.5 32.8125V32.8125ZM18.75 10.3125C18.75 9.795 19.1719 9.375 19.6875 9.375H25.3125C25.8281 9.375 26.25 9.795 26.25 10.3125V13.125H18.75V10.3125ZM35.625 13.125H30V10.3125C30 7.72875 27.8981 5.625 25.3125 5.625H19.6875C17.1019 5.625 15 7.72875 15 10.3125V13.125H9.375C6.27375 13.125 3.75 15.6487 3.75 18.75V33.75C3.75 36.8513 6.27375 39.375 9.375 39.375H35.625C38.7263 39.375 41.25 36.8513 41.25 33.75V18.75C41.25 15.6487 38.7263 13.125 35.625 13.125V13.125Z" fill="#0B0C0D"/>
<mask id="mask0_391_5015" style="mask-type:luminance" maskUnits="userSpaceOnUse" x="3" y="5" width="39" height="35">
<path fill-rule="evenodd" clip-rule="evenodd" d="M22.5 23.4375C20.9494 23.4375 19.6875 24.6994 19.6875 26.25C19.6875 27.8006 20.9494 29.0625 22.5 29.0625C24.0506 29.0625 25.3125 27.8006 25.3125 26.25C25.3125 24.6994 24.0506 23.4375 22.5 23.4375M22.5 32.8125C18.8813 32.8125 15.9375 29.8687 15.9375 26.25C15.9375 22.6313 18.8813 19.6875 22.5 19.6875C26.1187 19.6875 29.0625 22.6313 29.0625 26.25C29.0625 29.8687 26.1187 32.8125 22.5 32.8125V32.8125ZM18.75 10.3125C18.75 9.795 19.1719 9.375 19.6875 9.375H25.3125C25.8281 9.375 26.25 9.795 26.25 10.3125V13.125H18.75V10.3125ZM35.625 13.125H30V10.3125C30 7.72875 27.8981 5.625 25.3125 5.625H19.6875C17.1019 5.625 15 7.72875 15 10.3125V13.125H9.375C6.27375 13.125 3.75 15.6487 3.75 18.75V33.75C3.75 36.8513 6.27375 39.375 9.375 39.375H35.625C38.7263 39.375 41.25 36.8513 41.25 33.75V18.75C41.25 15.6487 38.7263 13.125 35.625 13.125V13.125Z" fill="white"/>
</mask>
<g mask="url(#mask0_391_5015)">
<rect width="45" height="45" fill="#0B0C0D"/>
</g>
</svg>
