<svg width="19" height="18" viewBox="0 0 19 18" fill="none" xmlns="http://www.w3.org/2000/svg">
<path fill-rule="evenodd" clip-rule="evenodd" d="M12.4029 7.20424L8.97689 11.7042C8.83589 11.8895 8.61764 11.999 8.38514 12.0005H8.37989C8.14964 12.0005 7.93214 11.894 7.78964 11.7125L5.96564 9.38224C5.71064 9.05674 5.76764 8.58499 6.09389 8.32999C6.41939 8.07424 6.89189 8.13124 7.14689 8.45824L8.37164 10.0227L11.2096 6.29599C11.4601 5.96674 11.9304 5.90224 12.2611 6.15349C12.5904 6.40474 12.6541 6.87499 12.4029 7.20424M9.18164 1.50049C5.03939 1.50049 1.68164 4.85824 1.68164 9.00049C1.68164 13.142 5.03939 16.5005 9.18164 16.5005C13.3239 16.5005 16.6816 13.142 16.6816 9.00049C16.6816 4.85824 13.3239 1.50049 9.18164 1.50049" fill="#27D18A"/>
<mask id="mask0_1813_18628" style="mask-type:luminance" maskUnits="userSpaceOnUse" x="1" y="1" width="16" height="16">
<path fill-rule="evenodd" clip-rule="evenodd" d="M12.4029 7.20424L8.97689 11.7042C8.83589 11.8895 8.61764 11.999 8.38514 12.0005H8.37989C8.14964 12.0005 7.93214 11.894 7.78964 11.7125L5.96564 9.38224C5.71064 9.05674 5.76764 8.58499 6.09389 8.32999C6.41939 8.07424 6.89189 8.13124 7.14689 8.45824L8.37164 10.0227L11.2096 6.29599C11.4601 5.96674 11.9304 5.90224 12.2611 6.15349C12.5904 6.40474 12.6541 6.87499 12.4029 7.20424M9.18164 1.50049C5.03939 1.50049 1.68164 4.85824 1.68164 9.00049C1.68164 13.142 5.03939 16.5005 9.18164 16.5005C13.3239 16.5005 16.6816 13.142 16.6816 9.00049C16.6816 4.85824 13.3239 1.50049 9.18164 1.50049" fill="white"/>
</mask>
<g mask="url(#mask0_1813_18628)">
<rect x="0.181641" width="18" height="18" fill="#27D18A"/>
</g>
</svg>
