<svg width="24" height="24" viewBox="0 0 24 24" fill="none" xmlns="http://www.w3.org/2000/svg">
<path fill-rule="evenodd" clip-rule="evenodd" d="M17.9654 6.72871L15.2714 4.03471L13.3234 5.98371L16.0184 8.67871L17.9654 6.72871ZM5.09038 17.9957C5.06038 17.9987 5.03038 17.9997 5.00038 17.9997C4.73638 17.9997 4.48138 17.8957 4.29238 17.7067C4.08338 17.4967 3.97738 17.2047 4.00338 16.9097L4.38238 12.7397C4.42438 12.2827 4.62638 11.8507 4.95238 11.5257L13.9484 2.52971C14.6504 1.82471 15.9234 1.85971 16.6644 2.59871L19.4024 5.33671L19.4034 5.33771C20.1684 6.1037 20.1994 7.32171 19.4714 8.05171L10.4744 17.0487C10.1494 17.3737 9.71838 17.5757 9.26038 17.6177L5.09038 17.9957ZM4.99988 20H18.9999C19.5499 20 19.9999 20.45 19.9999 21C19.9999 21.55 19.5499 22 18.9999 22H4.99988C4.44988 22 3.99988 21.55 3.99988 21C3.99988 20.45 4.44988 20 4.99988 20Z" fill="#0B0C0D"/>
<mask id="mask0_271_15447" style="mask-type:luminance" maskUnits="userSpaceOnUse" x="3" y="2" width="17" height="20">
<path fill-rule="evenodd" clip-rule="evenodd" d="M17.9654 6.72871L15.2714 4.03471L13.3234 5.98371L16.0184 8.67871L17.9654 6.72871ZM5.09038 17.9957C5.06038 17.9987 5.03038 17.9997 5.00038 17.9997C4.73638 17.9997 4.48138 17.8957 4.29238 17.7067C4.08338 17.4967 3.97738 17.2047 4.00338 16.9097L4.38238 12.7397C4.42438 12.2827 4.62638 11.8507 4.95238 11.5257L13.9484 2.52971C14.6504 1.82471 15.9234 1.85971 16.6644 2.59871L19.4024 5.33671L19.4034 5.33771C20.1684 6.1037 20.1994 7.32171 19.4714 8.05171L10.4744 17.0487C10.1494 17.3737 9.71838 17.5757 9.26038 17.6177L5.09038 17.9957ZM4.99988 20H18.9999C19.5499 20 19.9999 20.45 19.9999 21C19.9999 21.55 19.5499 22 18.9999 22H4.99988C4.44988 22 3.99988 21.55 3.99988 21C3.99988 20.45 4.44988 20 4.99988 20Z" fill="white"/>
</mask>
<g mask="url(#mask0_271_15447)">
<rect width="24" height="24" fill="#0B0C0D"/>
</g>
</svg>
