<svg width="24" height="24" viewBox="0 0 24 24" fill="none" xmlns="http://www.w3.org/2000/svg">
<path fill-rule="evenodd" clip-rule="evenodd" d="M16.0184 10.6787L13.3234 7.98371L15.2714 6.03471L17.9654 8.72871L16.0184 10.6787ZM19.4034 7.33771L19.4024 7.33671L16.6644 4.59871C15.9234 3.85971 14.6504 3.82471 13.9484 4.52971L4.95241 13.5257C4.62641 13.8507 4.42441 14.2827 4.38241 14.7397L4.00341 18.9097C3.97741 19.2047 4.08241 19.4967 4.29241 19.7067C4.48141 19.8957 4.73641 19.9997 4.99941 19.9997C5.03041 19.9997 5.06041 19.9987 5.09041 19.9957L9.26041 19.6167C9.71841 19.5747 10.1494 19.3737 10.4744 19.0487L19.4714 10.0517C20.1994 9.32171 20.1684 8.1037 19.4034 7.33771Z" fill="#0B0C0D"/>
<mask id="mask0_271_15489" style="mask-type:luminance" maskUnits="userSpaceOnUse" x="3" y="4" width="17" height="16">
<path fill-rule="evenodd" clip-rule="evenodd" d="M16.0184 10.6787L13.3234 7.98371L15.2714 6.03471L17.9654 8.72871L16.0184 10.6787ZM19.4034 7.33771L19.4024 7.33671L16.6644 4.59871C15.9234 3.85971 14.6504 3.82471 13.9484 4.52971L4.95241 13.5257C4.62641 13.8507 4.42441 14.2827 4.38241 14.7397L4.00341 18.9097C3.97741 19.2047 4.08241 19.4967 4.29241 19.7067C4.48141 19.8957 4.73641 19.9997 4.99941 19.9997C5.03041 19.9997 5.06041 19.9987 5.09041 19.9957L9.26041 19.6167C9.71841 19.5747 10.1494 19.3737 10.4744 19.0487L19.4714 10.0517C20.1994 9.32171 20.1684 8.1037 19.4034 7.33771Z" fill="white"/>
</mask>
<g mask="url(#mask0_271_15489)">
<rect width="24" height="24" fill="#0B0C0D"/>
</g>
</svg>
