<svg width="20" height="20" viewBox="0 0 20 20" fill="none" xmlns="http://www.w3.org/2000/svg">
<g clip-path="url(#clip0_6759_13029)">
<path d="M7.40544 2.675L7.32711 2.74416L2.74378 7.3275C2.6033 7.46873 2.51805 7.6556 2.50349 7.85427C2.48893 8.05294 2.54602 8.25025 2.66441 8.41045C2.7828 8.57065 2.95465 8.68314 3.14884 8.72755C3.34303 8.77195 3.5467 8.74533 3.72294 8.6525L6.36627 11.295L7.55294 14.4592C7.5842 14.5427 7.62866 14.6206 7.68461 14.69L7.74294 14.7567L8.99294 16.0067C9.13654 16.15 9.32751 16.2361 9.53003 16.2486C9.73255 16.2612 9.9327 16.1995 10.0929 16.075L10.1721 16.0058L12.4996 13.6792L15.6604 16.8392C15.8104 16.9886 16.0116 17.0754 16.2233 17.0819C16.4349 17.0883 16.641 17.014 16.7998 16.874C16.9586 16.7339 17.0582 16.5387 17.0783 16.3279C17.0984 16.1172 17.0375 15.9067 16.9079 15.7392L16.8388 15.6608L13.6788 12.5L16.0054 10.1725C16.1489 10.029 16.2351 9.83809 16.2478 9.63556C16.2606 9.43304 16.199 9.23283 16.0746 9.0725L16.0054 8.99416L14.7554 7.74416C14.6926 7.68106 14.62 7.62845 14.5404 7.58833L14.4588 7.55333L11.2954 6.36583L8.65294 3.72416C8.74305 3.55569 8.77253 3.36137 8.73645 3.17375C8.70037 2.98613 8.60091 2.81661 8.45473 2.69358C8.30856 2.57055 8.12455 2.50148 7.93353 2.49795C7.7425 2.49441 7.55607 2.55746 7.40544 2.675Z" fill="#D40202"/>
</g>
<defs>
<clipPath id="clip0_6759_13029">
<rect width="20" height="20" fill="white"/>
</clipPath>
</defs>
</svg>
