<svg width="24" height="24" viewBox="0 0 24 24" fill="none" xmlns="http://www.w3.org/2000/svg">
<path fill-rule="evenodd" clip-rule="evenodd" d="M10 4.3276C10 4.1726 10.214 3.9996 10.5 3.9996H13.5C13.786 3.9996 14 4.1726 14 4.3276V5.9996H10V4.3276ZM21 5.9996H20H16V4.3276C16 3.0436 14.879 1.9996 13.5 1.9996H10.5C9.121 1.9996 8 3.0436 8 4.3276V5.9996H4H3C2.45 5.9996 2 6.4506 2 6.9996C2 7.5496 2.45 7.9996 3 7.9996H4V18.9996C4 20.6546 5.346 21.9996 7 21.9996H17C18.654 21.9996 20 20.6546 20 18.9996V7.9996H21C21.55 7.9996 22 7.5496 22 6.9996C22 6.4506 21.55 5.9996 21 5.9996Z" fill="#0B0C0D"/>
<mask id="mask0_271_15441" style="mask-type:luminance" maskUnits="userSpaceOnUse" x="2" y="1" width="20" height="21">
<path fill-rule="evenodd" clip-rule="evenodd" d="M10 4.3276C10 4.1726 10.214 3.9996 10.5 3.9996H13.5C13.786 3.9996 14 4.1726 14 4.3276V5.9996H10V4.3276ZM21 5.9996H20H16V4.3276C16 3.0436 14.879 1.9996 13.5 1.9996H10.5C9.121 1.9996 8 3.0436 8 4.3276V5.9996H4H3C2.45 5.9996 2 6.4506 2 6.9996C2 7.5496 2.45 7.9996 3 7.9996H4V18.9996C4 20.6546 5.346 21.9996 7 21.9996H17C18.654 21.9996 20 20.6546 20 18.9996V7.9996H21C21.55 7.9996 22 7.5496 22 6.9996C22 6.4506 21.55 5.9996 21 5.9996Z" fill="white"/>
</mask>
<g mask="url(#mask0_271_15441)">
<rect width="24" height="24" fill="#0B0C0D"/>
</g>
</svg>
