<svg width="25" height="24" viewBox="0 0 25 24" fill="none" xmlns="http://www.w3.org/2000/svg">
<g clip-path="url(#clip0_6759_9004)">
<path d="M7.25 12C9.45 12 11.25 10.2 11.25 8C11.25 5.8 9.45 4 7.25 4C5.05 4 3.25 5.8 3.25 8C3.25 10.2 5.05 12 7.25 12ZM11.25 20V14.7C10.15 14.3 8.75 14 7.25 14C3.35 14 0.25 15.8 0.25 18V20H11.25ZM22.25 4H15.25C14.15 4 13.25 4.9 13.25 6V18C13.25 19.1 14.15 20 15.25 20H22.25C23.35 20 24.25 19.1 24.25 18V6C24.25 4.9 23.35 4 22.25 4ZM18.25 18H16.25V6H18.25V18Z" fill="url(#paint0_linear_6759_9004)"/>
</g>
<defs>
<linearGradient id="paint0_linear_6759_9004" x1="4.38023" y1="-7.14451" x2="29.6723" y2="11.5199" gradientUnits="userSpaceOnUse">
<stop stop-color="#6EE2F5"/>
<stop offset="1" stop-color="#6454F0"/>
</linearGradient>
<clipPath id="clip0_6759_9004">
<rect width="24" height="24" fill="white" transform="translate(0.25)"/>
</clipPath>
</defs>
</svg>
