<svg width="200" height="200" viewBox="0 0 200 200" fill="none" xmlns="http://www.w3.org/2000/svg">
<path d="M51.5401 157.54L49.0281 153.1H47.9481V157.54H45.6641V146.148H49.9401C50.718 146.124 51.4907 146.283 52.1961 146.612C52.7741 146.885 53.2594 147.322 53.5921 147.868C53.9033 148.406 54.0636 149.018 54.0561 149.64C54.0616 150.37 53.8331 151.082 53.4041 151.672C52.9242 152.305 52.2353 152.747 51.4601 152.92L54.1881 157.54H51.5401ZM47.9401 151.388H49.8521C50.3563 151.427 50.8556 151.265 51.2401 150.936C51.3979 150.771 51.5199 150.574 51.5984 150.36C51.6768 150.145 51.7101 149.916 51.6961 149.688C51.707 149.467 51.6722 149.247 51.5937 149.04C51.5152 148.834 51.3948 148.646 51.2401 148.488C50.8501 148.171 50.353 148.016 49.8521 148.056H47.9401V151.388Z" fill="url(#paint0_linear_388_1849)"/>
<path d="M67.444 146.148V148H64.4V157.548H62.12V148H59.084V146.156L67.444 146.148Z" fill="url(#paint1_linear_388_1849)"/>
<path d="M82.4602 156.904C81.5784 156.415 80.8457 155.696 80.3402 154.824C79.8277 153.907 79.5586 152.874 79.5586 151.824C79.5586 150.774 79.8277 149.741 80.3402 148.824C80.8457 147.952 81.5784 147.233 82.4602 146.744C83.3623 146.251 84.374 145.992 85.4022 145.992C86.4304 145.992 87.4421 146.251 88.3442 146.744C89.2226 147.233 89.9513 147.952 90.4522 148.824C90.9596 149.742 91.2258 150.775 91.2258 151.824C91.2258 152.873 90.9596 153.905 90.4522 154.824C89.9495 155.697 89.2178 156.416 88.3362 156.904C87.4355 157.397 86.4252 157.656 85.3982 157.656C84.3713 157.656 83.3609 157.397 82.4602 156.904ZM87.2002 155.148C87.7273 154.832 88.1522 154.371 88.4242 153.82C88.7261 153.197 88.8769 152.512 88.8642 151.82C88.8794 151.128 88.7285 150.442 88.4242 149.82C88.1503 149.273 87.7256 148.817 87.2002 148.504C86.6417 148.205 86.0179 148.048 85.3842 148.048C84.7506 148.048 84.1267 148.205 83.5682 148.504C83.0376 148.813 82.6092 149.27 82.3362 149.82C82.0287 150.441 81.8763 151.127 81.8922 151.82C81.8787 152.513 82.0309 153.198 82.3362 153.82C82.6077 154.374 83.0362 154.836 83.5682 155.148C84.1242 155.455 84.749 155.616 85.3842 155.616C86.0194 155.616 86.6442 155.455 87.2002 155.148Z" fill="url(#paint2_linear_388_1849)"/>
<path d="M106.228 157.54H103.944L98.7681 149.72V157.54H96.4841V146.132H98.7681L103.944 153.968V146.132H106.228V157.54Z" fill="url(#paint3_linear_388_1849)"/>
<path d="M114.328 155.728H118.08V157.54H112.04V146.148H114.328V155.728Z" fill="url(#paint4_linear_388_1849)"/>
<path d="M125.376 146.148V157.54H123.092V146.148H125.376Z" fill="url(#paint5_linear_388_1849)"/>
<path d="M140.936 157.54H138.648L133.476 149.72V157.54H131.2V146.132H133.488L138.66 153.968V146.132H140.948L140.936 157.54Z" fill="url(#paint6_linear_388_1849)"/>
<path d="M149.032 148V150.856H152.868V152.668H149.032V155.688H153.36V157.548H146.748V146.132H153.36V148H149.032Z" fill="url(#paint7_linear_388_1849)"/>
<path d="M113.664 56.22H55.916L44.908 72.848H71.2V129.696H87.828V72.848H113.668C114.761 72.8501 115.844 72.6367 116.854 72.22C117.865 71.8032 118.783 71.1914 119.557 70.4194C120.331 69.6474 120.945 68.7304 121.364 67.7209C121.783 66.7113 121.999 65.6291 122 64.536C122 63.4422 121.784 62.3592 121.365 61.349C120.946 60.3387 120.332 59.4211 119.557 58.6486C118.783 57.8761 117.864 57.264 116.853 56.8473C115.841 56.4305 114.758 56.2174 113.664 56.22Z" fill="url(#paint8_linear_388_1849)"/>
<path d="M117.004 95.84L145.324 129.696H122.676L94.348 95.84L93.664 95.04V78.468H113.816C117.57 78.468 121.171 76.9766 123.826 74.3218C126.481 71.667 127.972 68.0664 127.972 64.312C127.972 60.5576 126.481 56.957 123.826 54.3022C121.171 51.6474 117.57 50.156 113.816 50.156H55.712L42.136 33.128V32.776H113.816C121.916 32.7707 129.708 35.8829 135.575 41.4672C141.443 47.0515 144.936 54.6797 145.331 62.7702C145.726 70.8607 142.992 78.7929 137.697 84.9223C132.401 91.0517 124.95 94.9081 116.888 95.692L117.004 95.84Z" fill="url(#paint9_linear_388_1849)"/>
<defs>
<linearGradient id="paint0_linear_388_1849" x1="47.131" y1="138.209" x2="59.3506" y2="142.706" gradientUnits="userSpaceOnUse">
<stop stop-color="#6EE2F5"/>
<stop offset="1" stop-color="#6454F0"/>
</linearGradient>
<linearGradient id="paint1_linear_388_1849" x1="60.5227" y1="138.208" x2="72.5633" y2="142.552" gradientUnits="userSpaceOnUse">
<stop stop-color="#6EE2F5"/>
<stop offset="1" stop-color="#6454F0"/>
</linearGradient>
<linearGradient id="paint2_linear_388_1849" x1="81.5664" y1="137.868" x2="96.855" y2="145.392" gradientUnits="userSpaceOnUse">
<stop stop-color="#6EE2F5"/>
<stop offset="1" stop-color="#6454F0"/>
</linearGradient>
<linearGradient id="paint3_linear_388_1849" x1="98.161" y1="138.186" x2="111.641" y2="143.851" gradientUnits="userSpaceOnUse">
<stop stop-color="#6EE2F5"/>
<stop offset="1" stop-color="#6454F0"/>
</linearGradient>
<linearGradient id="paint4_linear_388_1849" x1="113.079" y1="138.213" x2="122.285" y2="140.614" gradientUnits="userSpaceOnUse">
<stop stop-color="#6EE2F5"/>
<stop offset="1" stop-color="#6454F0"/>
</linearGradient>
<linearGradient id="paint5_linear_388_1849" x1="123.485" y1="138.213" x2="127.167" y2="138.576" gradientUnits="userSpaceOnUse">
<stop stop-color="#6EE2F5"/>
<stop offset="1" stop-color="#6454F0"/>
</linearGradient>
<linearGradient id="paint6_linear_388_1849" x1="132.878" y1="138.186" x2="146.362" y2="143.855" gradientUnits="userSpaceOnUse">
<stop stop-color="#6EE2F5"/>
<stop offset="1" stop-color="#6454F0"/>
</linearGradient>
<linearGradient id="paint7_linear_388_1849" x1="147.886" y1="138.18" x2="157.84" y2="141.017" gradientUnits="userSpaceOnUse">
<stop stop-color="#6EE2F5"/>
<stop offset="1" stop-color="#6454F0"/>
</linearGradient>
<linearGradient id="paint8_linear_388_1849" x1="58.1749" y1="5.0416" x2="157.26" y2="56.1874" gradientUnits="userSpaceOnUse">
<stop stop-color="#6EE2F5"/>
<stop offset="1" stop-color="#6454F0"/>
</linearGradient>
<linearGradient id="paint9_linear_388_1849" x1="59.9016" y1="-34.7318" x2="191.736" y2="34.3514" gradientUnits="userSpaceOnUse">
<stop stop-color="#6EE2F5"/>
<stop offset="1" stop-color="#6454F0"/>
</linearGradient>
</defs>
</svg>
