<svg width="201" height="62" viewBox="0 0 201 62" fill="none" xmlns="http://www.w3.org/2000/svg">
<path d="M64.7866 23.2565H48.0047L44.8057 28.4034H52.4463V45.9998H57.2785V28.4034H64.7877C65.1054 28.4041 65.42 28.338 65.7137 28.209C66.0074 28.08 66.2743 27.8906 66.4992 27.6517C66.7241 27.4127 66.9025 27.1289 67.0243 26.8164C67.1461 26.5039 67.2089 26.1689 67.2091 25.8306C67.2091 25.492 67.1464 25.1568 67.0245 24.8441C66.9027 24.5314 66.7242 24.2473 66.4992 24.0082C66.2741 23.7691 66.007 23.5796 65.7132 23.4506C65.4193 23.3216 65.1044 23.2557 64.7866 23.2565Z" fill="url(#paint0_linear_388_1851)"/>
<path d="M65.7571 35.5204L73.987 46H67.4054L59.1731 35.5204L58.9743 35.2728V30.1432H64.8306C65.9217 30.1432 66.968 29.6816 67.7395 28.8598C68.511 28.0381 68.9444 26.9236 68.9444 25.7615C68.9444 24.5993 68.511 23.4848 67.7395 22.6631C66.968 21.8413 65.9217 21.3797 64.8306 21.3797H47.9453L44 16.109V16H64.8306C67.1846 15.9984 69.4488 16.9617 71.154 18.6902C72.8591 20.4188 73.8743 22.7799 73.9891 25.2842C74.1039 27.7885 73.3095 30.2438 71.7706 32.141C70.2316 34.0383 68.0663 35.232 65.7234 35.4746L65.7571 35.5204Z" fill="url(#paint1_linear_388_1851)"/>
<path d="M94.4195 35.4106L92.5301 31.9845H91.7178V35.4106H90V26.6202H93.2161C93.8012 26.6017 94.3823 26.7244 94.9129 26.9782C95.3476 27.1891 95.7127 27.526 95.9628 27.9474C96.1969 28.3626 96.3175 28.835 96.3118 29.3147C96.316 29.8777 96.1441 30.4272 95.8214 30.8826C95.4605 31.371 94.9424 31.7123 94.3593 31.8456L96.4111 35.4106H94.4195ZM91.7118 30.6635H93.1499C93.5292 30.6938 93.9047 30.5683 94.1938 30.3147C94.3126 30.1871 94.4043 30.0357 94.4633 29.87C94.5223 29.7043 94.5474 29.5278 94.5368 29.3517C94.5451 29.1815 94.5188 29.0113 94.4598 28.8519C94.4008 28.6925 94.3102 28.5475 94.1938 28.4258C93.9005 28.1812 93.5267 28.0618 93.1499 28.0924H91.7118V30.6635Z" fill="url(#paint2_linear_388_1851)"/>
<path d="M104.382 26.6202V28.0492H102.093V35.4168H100.378V28.0492H98.0942V26.6264L104.382 26.6202Z" fill="url(#paint3_linear_388_1851)"/>
<path d="M112.676 34.9199C112.013 34.5427 111.461 33.988 111.081 33.3149C110.696 32.6074 110.493 31.8105 110.493 31C110.493 30.1895 110.696 29.3925 111.081 28.6851C111.461 28.012 112.013 27.4573 112.676 27.0801C113.354 26.6995 114.115 26.5 114.889 26.5C115.662 26.5 116.423 26.6995 117.101 27.0801C117.762 27.4576 118.31 28.0124 118.687 28.6851C119.068 29.3938 119.269 30.1903 119.269 31C119.269 31.8097 119.068 32.6061 118.687 33.3149C118.309 33.9886 117.758 34.5435 117.095 34.9199C116.418 35.3005 115.658 35.5001 114.886 35.5001C114.113 35.5001 113.353 35.3005 112.676 34.9199ZM116.241 33.5649C116.637 33.3211 116.957 32.9653 117.161 32.5402C117.389 32.0596 117.502 31.5309 117.492 30.9969C117.504 30.4628 117.39 29.9336 117.161 29.4536C116.955 29.0319 116.636 28.6795 116.241 28.4382C115.821 28.2072 115.352 28.0863 114.875 28.0863C114.398 28.0863 113.929 28.2072 113.509 28.4382C113.11 28.6763 112.788 29.0294 112.583 29.4536C112.351 29.9328 112.237 30.4623 112.249 30.9969C112.238 31.5313 112.353 32.0604 112.583 32.5402C112.787 32.9676 113.109 33.324 113.509 33.5649C113.927 33.8019 114.397 33.9262 114.875 33.9262C115.353 33.9262 115.823 33.8019 116.241 33.5649Z" fill="url(#paint4_linear_388_1851)"/>
<path d="M128.551 35.4106H126.833L122.94 29.3764V35.4106H121.222V26.6078H122.94L126.833 32.6543V26.6078H128.551V35.4106Z" fill="url(#paint5_linear_388_1851)"/>
<path d="M132.644 34.0124H135.466V35.4106H130.923V26.6202H132.644V34.0124Z" fill="url(#paint6_linear_388_1851)"/>
<path d="M138.953 26.6202V35.4106H137.235V26.6202H138.953Z" fill="url(#paint7_linear_388_1851)"/>
<path d="M148.657 35.4106H146.936L143.046 29.3764V35.4106H141.334V26.6078H143.055L146.945 32.6543V26.6078H148.666L148.657 35.4106Z" fill="url(#paint8_linear_388_1851)"/>
<path d="M152.745 28.0492V30.253H155.63V31.6512H152.745V33.9815H156V35.4167H151.027V26.6078H156V28.0492H152.745Z" fill="url(#paint9_linear_388_1851)"/>
<path d="M6.987 58.056C6.84233 58.056 6.73033 58.0163 6.651 57.937C6.57633 57.853 6.539 57.7387 6.539 57.594V53.52C6.539 53.3707 6.57867 53.2587 6.658 53.184C6.73733 53.1047 6.84933 53.065 6.994 53.065H8.681C9.22233 53.065 9.64 53.1957 9.934 53.457C10.228 53.7137 10.375 54.0753 10.375 54.542C10.375 54.8453 10.3073 55.1067 10.172 55.326C10.0413 55.5453 9.85 55.7133 9.598 55.83C9.346 55.9467 9.04033 56.005 8.681 56.005L8.744 55.9H8.975C9.16633 55.9 9.332 55.9467 9.472 56.04C9.61667 56.1333 9.74267 56.2803 9.85 56.481L10.375 57.454C10.431 57.552 10.4567 57.6477 10.452 57.741C10.4473 57.8343 10.4123 57.9113 10.347 57.972C10.2817 58.028 10.186 58.056 10.06 58.056C9.934 58.056 9.83133 58.0303 9.752 57.979C9.67267 57.923 9.60267 57.839 9.542 57.727L8.835 56.425C8.751 56.2663 8.65067 56.1613 8.534 56.11C8.422 56.054 8.27733 56.026 8.1 56.026H7.435V57.594C7.435 57.7387 7.39767 57.853 7.323 57.937C7.24833 58.0163 7.13633 58.056 6.987 58.056ZM7.435 55.361H8.527C8.849 55.361 9.09167 55.2957 9.255 55.165C9.423 55.0297 9.507 54.829 9.507 54.563C9.507 54.3017 9.423 54.1057 9.255 53.975C9.09167 53.8397 8.849 53.772 8.527 53.772H7.435V55.361ZM14.2391 58.056C14.0944 58.056 13.9824 58.0163 13.9031 57.937C13.8284 57.853 13.7911 57.7387 13.7911 57.594V53.814H12.4261C12.3048 53.814 12.2091 53.7813 12.1391 53.716C12.0738 53.646 12.0411 53.5527 12.0411 53.436C12.0411 53.3147 12.0738 53.2237 12.1391 53.163C12.2091 53.0977 12.3048 53.065 12.4261 53.065H16.0521C16.1734 53.065 16.2668 53.0977 16.3321 53.163C16.4021 53.2237 16.4371 53.3147 16.4371 53.436C16.4371 53.5527 16.4021 53.646 16.3321 53.716C16.2668 53.7813 16.1734 53.814 16.0521 53.814H14.6871V57.594C14.6871 57.7387 14.6498 57.853 14.5751 57.937C14.5004 58.0163 14.3884 58.056 14.2391 58.056ZM22.1252 58C21.9712 58 21.8522 57.9603 21.7682 57.881C21.6888 57.797 21.6492 57.678 21.6492 57.524V53.541C21.6492 53.387 21.6888 53.2703 21.7682 53.191C21.8522 53.107 21.9712 53.065 22.1252 53.065H23.8052C24.1505 53.065 24.4445 53.1163 24.6872 53.219C24.9298 53.3217 25.1142 53.4687 25.2402 53.66C25.3708 53.8513 25.4362 54.08 25.4362 54.346C25.4362 54.6447 25.3498 54.8967 25.1772 55.102C25.0045 55.3073 24.7688 55.445 24.4702 55.515V55.41C24.8155 55.4613 25.0838 55.592 25.2752 55.802C25.4665 56.012 25.5622 56.285 25.5622 56.621C25.5622 57.0597 25.4128 57.4003 25.1142 57.643C24.8202 57.881 24.4095 58 23.8822 58H22.1252ZM22.5102 57.321H23.7702C24.0875 57.321 24.3208 57.2603 24.4702 57.139C24.6195 57.013 24.6942 56.8263 24.6942 56.579C24.6942 56.327 24.6195 56.1403 24.4702 56.019C24.3208 55.8977 24.0875 55.837 23.7702 55.837H22.5102V57.321ZM22.5102 55.158H23.6512C23.9592 55.158 24.1878 55.0997 24.3372 54.983C24.4912 54.8617 24.5682 54.6843 24.5682 54.451C24.5682 54.2177 24.4912 54.0427 24.3372 53.926C24.1878 53.8047 23.9592 53.744 23.6512 53.744H22.5102V55.158ZM28.3445 58C28.1905 58 28.0715 57.9603 27.9875 57.881C27.9082 57.797 27.8685 57.678 27.8685 57.524V53.541C27.8685 53.387 27.9082 53.2703 27.9875 53.191C28.0715 53.107 28.1905 53.065 28.3445 53.065H30.8435C30.9602 53.065 31.0488 53.0953 31.1095 53.156C31.1748 53.2167 31.2075 53.303 31.2075 53.415C31.2075 53.5317 31.1748 53.6227 31.1095 53.688C31.0488 53.7487 30.9602 53.779 30.8435 53.779H28.7295V55.137H30.6895C30.8108 55.137 30.9018 55.1673 30.9625 55.228C31.0232 55.2887 31.0535 55.3773 31.0535 55.494C31.0535 55.6107 31.0232 55.6993 30.9625 55.76C30.9018 55.8207 30.8108 55.851 30.6895 55.851H28.7295V57.286H30.8435C30.9602 57.286 31.0488 57.3163 31.1095 57.377C31.1748 57.4377 31.2075 57.5263 31.2075 57.643C31.2075 57.7597 31.1748 57.8483 31.1095 57.909C31.0488 57.9697 30.9602 58 30.8435 58H28.3445ZM33.8933 58.056C33.7486 58.056 33.6366 58.0163 33.5573 57.937C33.4826 57.853 33.4453 57.7387 33.4453 57.594V53.52C33.4453 53.3707 33.4849 53.2587 33.5643 53.184C33.6436 53.1047 33.7556 53.065 33.9003 53.065H35.5873C36.1286 53.065 36.5463 53.1957 36.8403 53.457C37.1343 53.7137 37.2812 54.0753 37.2812 54.542C37.2812 54.8453 37.2136 55.1067 37.0783 55.326C36.9476 55.5453 36.7563 55.7133 36.5042 55.83C36.2523 55.9467 35.9466 56.005 35.5873 56.005L35.6503 55.9H35.8813C36.0726 55.9 36.2383 55.9467 36.3783 56.04C36.5229 56.1333 36.6489 56.2803 36.7563 56.481L37.2812 57.454C37.3373 57.552 37.3629 57.6477 37.3583 57.741C37.3536 57.8343 37.3186 57.9113 37.2533 57.972C37.1879 58.028 37.0923 58.056 36.9663 58.056C36.8403 58.056 36.7376 58.0303 36.6583 57.979C36.5789 57.923 36.5089 57.839 36.4483 57.727L35.7413 56.425C35.6573 56.2663 35.5569 56.1613 35.4403 56.11C35.3283 56.054 35.1836 56.026 35.0063 56.026H34.3413V57.594C34.3413 57.7387 34.3039 57.853 34.2293 57.937C34.1546 58.0163 34.0426 58.056 33.8933 58.056ZM34.3413 55.361H35.4333C35.7553 55.361 35.9979 55.2957 36.1613 55.165C36.3293 55.0297 36.4133 54.829 36.4133 54.563C36.4133 54.3017 36.3293 54.1057 36.1613 53.975C35.9979 53.8397 35.7553 53.772 35.4333 53.772H34.3413V55.361ZM40.0921 58.056C39.9474 58.056 39.8354 58.0163 39.7561 57.937C39.6814 57.853 39.6441 57.7387 39.6441 57.594V53.464C39.6441 53.3147 39.6814 53.2027 39.7561 53.128C39.8354 53.0487 39.9474 53.009 40.0921 53.009C40.2367 53.009 40.3464 53.0487 40.4211 53.128C40.5004 53.2027 40.5401 53.3147 40.5401 53.464V55.249H40.5541L42.5631 53.233C42.6377 53.1583 42.7124 53.1023 42.7871 53.065C42.8617 53.0277 42.9457 53.009 43.0391 53.009C43.1744 53.009 43.2701 53.044 43.3261 53.114C43.3867 53.184 43.4101 53.2657 43.3961 53.359C43.3867 53.4523 43.3424 53.5387 43.2631 53.618L41.2191 55.641L41.2261 55.235L43.3611 57.405C43.4591 57.4983 43.5104 57.5963 43.5151 57.699C43.5197 57.8017 43.4871 57.888 43.4171 57.958C43.3517 58.0233 43.2537 58.056 43.1231 58.056C43.0111 58.056 42.9201 58.0327 42.8501 57.986C42.7847 57.9393 42.7077 57.8717 42.6191 57.783L40.5541 55.718H40.5401V57.594C40.5401 57.7387 40.5027 57.853 40.4281 57.937C40.3534 58.0163 40.2414 58.056 40.0921 58.056ZM47.682 58.07C47.3413 58.07 47.0403 58.0257 46.779 57.937C46.5223 57.8483 46.3053 57.7177 46.128 57.545C45.9507 57.3677 45.8177 57.1483 45.729 56.887C45.6403 56.6257 45.596 56.3223 45.596 55.977V53.464C45.596 53.31 45.6333 53.1957 45.708 53.121C45.7873 53.0463 45.8993 53.009 46.044 53.009C46.1887 53.009 46.2983 53.0463 46.373 53.121C46.4523 53.1957 46.492 53.31 46.492 53.464V55.97C46.492 56.4133 46.5923 56.747 46.793 56.971C46.9983 57.1903 47.2947 57.3 47.682 57.3C48.0693 57.3 48.3633 57.1903 48.564 56.971C48.7647 56.747 48.865 56.4133 48.865 55.97V53.464C48.865 53.31 48.9023 53.1957 48.977 53.121C49.0563 53.0463 49.1683 53.009 49.313 53.009C49.453 53.009 49.5603 53.0463 49.635 53.121C49.7143 53.1957 49.754 53.31 49.754 53.464V55.977C49.754 56.4343 49.6747 56.8193 49.516 57.132C49.362 57.4447 49.131 57.6803 48.823 57.839C48.515 57.993 48.1347 58.07 47.682 58.07ZM52.2138 58.056C52.1018 58.056 52.0108 58.0303 51.9408 57.979C51.8754 57.9277 51.8358 57.86 51.8218 57.776C51.8078 57.6873 51.8241 57.5893 51.8708 57.482L53.7188 53.387C53.7794 53.2517 53.8518 53.156 53.9358 53.1C54.0244 53.0393 54.1248 53.009 54.2368 53.009C54.3441 53.009 54.4398 53.0393 54.5238 53.1C54.6124 53.156 54.6871 53.2517 54.7478 53.387L56.6028 57.482C56.6541 57.5893 56.6728 57.6873 56.6588 57.776C56.6448 57.8647 56.6051 57.9347 56.5398 57.986C56.4744 58.0327 56.3881 58.056 56.2808 58.056C56.1501 58.056 56.0474 58.0257 55.9728 57.965C55.9028 57.8997 55.8398 57.8017 55.7838 57.671L55.3288 56.614L55.7068 56.859H52.7528L53.1308 56.614L52.6828 57.671C52.6221 57.8063 52.5591 57.9043 52.4938 57.965C52.4284 58.0257 52.3351 58.056 52.2138 58.056ZM54.2228 54.038L53.2428 56.369L53.0608 56.145H55.3988L55.2238 56.369L54.2368 54.038H54.2228ZM59.2288 58C59.0841 58 58.9721 57.9603 58.8928 57.881C58.8134 57.797 58.7738 57.6827 58.7738 57.538V53.499C58.7738 53.3497 58.8111 53.2377 58.8858 53.163C58.9651 53.0837 59.0771 53.044 59.2218 53.044C59.3664 53.044 59.4761 53.0837 59.5508 53.163C59.6301 53.2377 59.6698 53.3497 59.6698 53.499V57.237H61.6998C61.8258 57.237 61.9214 57.2697 61.9868 57.335C62.0568 57.4003 62.0918 57.4937 62.0918 57.615C62.0918 57.7363 62.0568 57.832 61.9868 57.902C61.9214 57.9673 61.8258 58 61.6998 58H59.2288ZM64.5524 58.056C64.4078 58.056 64.2958 58.0163 64.2164 57.937C64.1418 57.853 64.1044 57.7387 64.1044 57.594V53.471C64.1044 53.3217 64.1418 53.2073 64.2164 53.128C64.2958 53.0487 64.4078 53.009 64.5524 53.009C64.6971 53.009 64.8068 53.0487 64.8814 53.128C64.9608 53.2073 65.0004 53.3217 65.0004 53.471V57.594C65.0004 57.7387 64.9631 57.853 64.8884 57.937C64.8138 58.0163 64.7018 58.056 64.5524 58.056ZM69.118 58.056C68.9734 58.056 68.8614 58.0163 68.782 57.937C68.7074 57.853 68.67 57.7387 68.67 57.594V53.814H67.305C67.1837 53.814 67.088 53.7813 67.018 53.716C66.9527 53.646 66.92 53.5527 66.92 53.436C66.92 53.3147 66.9527 53.2237 67.018 53.163C67.088 53.0977 67.1837 53.065 67.305 53.065H70.931C71.0524 53.065 71.1457 53.0977 71.211 53.163C71.281 53.2237 71.316 53.3147 71.316 53.436C71.316 53.5527 71.281 53.646 71.211 53.716C71.1457 53.7813 71.0524 53.814 70.931 53.814H69.566V57.594C69.566 57.7387 69.5287 57.853 69.454 57.937C69.3794 58.0163 69.2674 58.056 69.118 58.056ZM72.7298 58.056C72.6178 58.056 72.5268 58.0303 72.4568 57.979C72.3915 57.9277 72.3518 57.86 72.3378 57.776C72.3238 57.6873 72.3401 57.5893 72.3868 57.482L74.2348 53.387C74.2955 53.2517 74.3678 53.156 74.4518 53.1C74.5405 53.0393 74.6408 53.009 74.7528 53.009C74.8601 53.009 74.9558 53.0393 75.0398 53.1C75.1285 53.156 75.2031 53.2517 75.2638 53.387L77.1188 57.482C77.1701 57.5893 77.1888 57.6873 77.1748 57.776C77.1608 57.8647 77.1211 57.9347 77.0558 57.986C76.9905 58.0327 76.9041 58.056 76.7968 58.056C76.6661 58.056 76.5635 58.0257 76.4888 57.965C76.4188 57.8997 76.3558 57.8017 76.2998 57.671L75.8448 56.614L76.2228 56.859H73.2688L73.6468 56.614L73.1988 57.671C73.1381 57.8063 73.0751 57.9043 73.0098 57.965C72.9445 58.0257 72.8511 58.056 72.7298 58.056ZM74.7388 54.038L73.7588 56.369L73.5768 56.145H75.9148L75.7398 56.369L74.7528 54.038H74.7388ZM80.9361 58.07C80.7308 58.07 80.5254 58.0537 80.3201 58.021C80.1148 57.993 79.9211 57.9487 79.7391 57.888C79.5571 57.8227 79.3938 57.7433 79.2491 57.65C79.1651 57.594 79.1068 57.5263 79.0741 57.447C79.0414 57.3677 79.0298 57.2907 79.0391 57.216C79.0531 57.1367 79.0834 57.069 79.1301 57.013C79.1814 56.9523 79.2444 56.915 79.3191 56.901C79.3938 56.887 79.4754 56.908 79.5641 56.964C79.7694 57.0853 79.9864 57.174 80.2151 57.23C80.4438 57.286 80.6841 57.314 80.9361 57.314C81.3048 57.314 81.5731 57.2533 81.7411 57.132C81.9091 57.006 81.9931 56.845 81.9931 56.649C81.9931 56.4857 81.9324 56.3573 81.8111 56.264C81.6944 56.1707 81.4914 56.0937 81.2021 56.033L80.4321 55.872C79.9888 55.7787 79.6574 55.6223 79.4381 55.403C79.2234 55.179 79.1161 54.885 79.1161 54.521C79.1161 54.2923 79.1628 54.0847 79.2561 53.898C79.3494 53.7113 79.4801 53.5503 79.6481 53.415C79.8208 53.2797 80.0238 53.177 80.2571 53.107C80.4951 53.0323 80.7564 52.995 81.0411 52.995C81.3211 52.995 81.5871 53.03 81.8391 53.1C82.0911 53.17 82.3174 53.2727 82.5181 53.408C82.5928 53.4593 82.6418 53.5223 82.6651 53.597C82.6931 53.6717 82.7001 53.7463 82.6861 53.821C82.6721 53.891 82.6394 53.9517 82.5881 54.003C82.5368 54.0543 82.4714 54.0847 82.3921 54.094C82.3174 54.1033 82.2311 54.08 82.1331 54.024C81.9604 53.926 81.7854 53.856 81.6081 53.814C81.4308 53.772 81.2394 53.751 81.0341 53.751C80.8194 53.751 80.6351 53.7813 80.4811 53.842C80.3271 53.9027 80.2081 53.989 80.1241 54.101C80.0448 54.2083 80.0051 54.3367 80.0051 54.486C80.0051 54.654 80.0611 54.7893 80.1731 54.892C80.2851 54.99 80.4764 55.067 80.7471 55.123L81.5101 55.284C81.9721 55.382 82.3151 55.536 82.5391 55.746C82.7678 55.956 82.8821 56.236 82.8821 56.586C82.8821 56.81 82.8354 57.013 82.7421 57.195C82.6534 57.377 82.5228 57.5333 82.3501 57.664C82.1821 57.7947 81.9791 57.895 81.7411 57.965C81.5031 58.035 81.2348 58.07 80.9361 58.07ZM85.4307 58.749C85.3701 58.8237 85.3047 58.8657 85.2347 58.875C85.1694 58.889 85.1111 58.8773 85.0597 58.84C85.0084 58.8027 84.9804 58.749 84.9757 58.679C84.9711 58.6137 85.0014 58.5413 85.0667 58.462C85.1601 58.3453 85.2231 58.2287 85.2557 58.112C85.2884 57.9953 85.3047 57.8903 85.3047 57.797L85.3397 58.035C85.1764 58.035 85.0434 57.9883 84.9407 57.895C84.8427 57.797 84.7937 57.6687 84.7937 57.51C84.7937 57.3607 84.8404 57.2393 84.9337 57.146C85.0271 57.048 85.1531 56.999 85.3117 56.999C85.4751 56.999 85.6034 57.055 85.6967 57.167C85.7901 57.2743 85.8367 57.4307 85.8367 57.636C85.8367 57.748 85.8251 57.8647 85.8017 57.986C85.7831 58.1027 85.7434 58.224 85.6827 58.35C85.6267 58.4807 85.5427 58.6137 85.4307 58.749ZM91.8675 58.056C91.7228 58.056 91.6108 58.0163 91.5315 57.937C91.4568 57.853 91.4195 57.7387 91.4195 57.594V53.52C91.4195 53.3707 91.4591 53.2587 91.5385 53.184C91.6178 53.1047 91.7298 53.065 91.8745 53.065H93.5615C94.1028 53.065 94.5205 53.2003 94.8145 53.471C95.1085 53.7417 95.2555 54.1197 95.2555 54.605C95.2555 55.0903 95.1085 55.4707 94.8145 55.746C94.5205 56.0167 94.1028 56.152 93.5615 56.152H92.3155V57.594C92.3155 57.7387 92.2781 57.853 92.2035 57.937C92.1288 58.0163 92.0168 58.056 91.8675 58.056ZM92.3155 55.445H93.4215C93.7388 55.445 93.9791 55.375 94.1425 55.235C94.3058 55.0903 94.3875 54.8803 94.3875 54.605C94.3875 54.3297 94.3058 54.122 94.1425 53.982C93.9791 53.842 93.7388 53.772 93.4215 53.772H92.3155V55.445ZM97.8619 58C97.7079 58 97.5889 57.9603 97.5049 57.881C97.4255 57.797 97.3859 57.678 97.3859 57.524V53.541C97.3859 53.387 97.4255 53.2703 97.5049 53.191C97.5889 53.107 97.7079 53.065 97.8619 53.065H100.361C100.478 53.065 100.566 53.0953 100.627 53.156C100.692 53.2167 100.725 53.303 100.725 53.415C100.725 53.5317 100.692 53.6227 100.627 53.688C100.566 53.7487 100.478 53.779 100.361 53.779H98.2469V55.137H100.207C100.328 55.137 100.419 55.1673 100.48 55.228C100.541 55.2887 100.571 55.3773 100.571 55.494C100.571 55.6107 100.541 55.6993 100.48 55.76C100.419 55.8207 100.328 55.851 100.207 55.851H98.2469V57.286H100.361C100.478 57.286 100.566 57.3163 100.627 57.377C100.692 57.4377 100.725 57.5263 100.725 57.643C100.725 57.7597 100.692 57.8483 100.627 57.909C100.566 57.9697 100.478 58 100.361 58H97.8619ZM103.383 58.056C103.247 58.056 103.142 58.0187 103.068 57.944C102.998 57.8693 102.963 57.762 102.963 57.622V53.457C102.963 53.3123 102.998 53.2027 103.068 53.128C103.142 53.0487 103.238 53.009 103.355 53.009C103.462 53.009 103.541 53.03 103.593 53.072C103.649 53.1093 103.714 53.1747 103.789 53.268L106.47 56.747H106.288V53.436C106.288 53.3007 106.323 53.1957 106.393 53.121C106.467 53.0463 106.572 53.009 106.708 53.009C106.843 53.009 106.946 53.0463 107.016 53.121C107.086 53.1957 107.121 53.3007 107.121 53.436V57.636C107.121 57.7667 107.088 57.8693 107.023 57.944C106.957 58.0187 106.869 58.056 106.757 58.056C106.649 58.056 106.563 58.035 106.498 57.993C106.437 57.951 106.369 57.8833 106.295 57.79L103.621 54.311H103.796V57.622C103.796 57.762 103.761 57.8693 103.691 57.944C103.621 58.0187 103.518 58.056 103.383 58.056ZM111.972 58.07C111.426 58.07 110.964 57.9673 110.586 57.762C110.213 57.5567 109.928 57.265 109.732 56.887C109.536 56.509 109.438 56.061 109.438 55.543C109.438 55.151 109.494 54.7987 109.606 54.486C109.723 54.1733 109.888 53.9073 110.103 53.688C110.322 53.464 110.588 53.2937 110.901 53.177C111.214 53.0557 111.568 52.995 111.965 52.995C112.226 52.995 112.488 53.0277 112.749 53.093C113.015 53.1537 113.265 53.2587 113.498 53.408C113.577 53.4593 113.629 53.5223 113.652 53.597C113.68 53.6717 113.685 53.7487 113.666 53.828C113.647 53.9027 113.612 53.968 113.561 54.024C113.51 54.08 113.444 54.115 113.365 54.129C113.29 54.143 113.206 54.1243 113.113 54.073C112.936 53.9703 112.756 53.8957 112.574 53.849C112.392 53.8023 112.189 53.779 111.965 53.779C111.62 53.779 111.328 53.849 111.09 53.989C110.852 54.1243 110.672 54.3227 110.551 54.584C110.434 54.8453 110.376 55.165 110.376 55.543C110.376 56.117 110.514 56.5533 110.789 56.852C111.064 57.1507 111.473 57.3 112.014 57.3C112.201 57.3 112.39 57.2813 112.581 57.244C112.772 57.2067 112.959 57.1553 113.141 57.09L112.966 57.489V55.998H112.196C112.079 55.998 111.988 55.9677 111.923 55.907C111.862 55.8463 111.832 55.7647 111.832 55.662C111.832 55.5547 111.862 55.473 111.923 55.417C111.988 55.361 112.079 55.333 112.196 55.333H113.351C113.468 55.333 113.556 55.3657 113.617 55.431C113.682 55.4917 113.715 55.5803 113.715 55.697V57.398C113.715 57.5007 113.694 57.587 113.652 57.657C113.615 57.727 113.552 57.7783 113.463 57.811C113.258 57.8857 113.022 57.9487 112.756 58C112.49 58.0467 112.229 58.07 111.972 58.07ZM118.204 58.07C117.864 58.07 117.563 58.0257 117.301 57.937C117.045 57.8483 116.828 57.7177 116.65 57.545C116.473 57.3677 116.34 57.1483 116.251 56.887C116.163 56.6257 116.118 56.3223 116.118 55.977V53.464C116.118 53.31 116.156 53.1957 116.23 53.121C116.31 53.0463 116.422 53.009 116.566 53.009C116.711 53.009 116.821 53.0463 116.895 53.121C116.975 53.1957 117.014 53.31 117.014 53.464V55.97C117.014 56.4133 117.115 56.747 117.315 56.971C117.521 57.1903 117.817 57.3 118.204 57.3C118.592 57.3 118.886 57.1903 119.086 56.971C119.287 56.747 119.387 56.4133 119.387 55.97V53.464C119.387 53.31 119.425 53.1957 119.499 53.121C119.579 53.0463 119.691 53.009 119.835 53.009C119.975 53.009 120.083 53.0463 120.157 53.121C120.237 53.1957 120.276 53.31 120.276 53.464V55.977C120.276 56.4343 120.197 56.8193 120.038 57.132C119.884 57.4447 119.653 57.6803 119.345 57.839C119.037 57.993 118.657 58.07 118.204 58.07ZM123.169 58.056C123.025 58.056 122.913 58.0163 122.833 57.937C122.759 57.853 122.721 57.7387 122.721 57.594V53.52C122.721 53.3707 122.761 53.2587 122.84 53.184C122.92 53.1047 123.032 53.065 123.176 53.065H124.863C125.405 53.065 125.822 53.1957 126.116 53.457C126.41 53.7137 126.557 54.0753 126.557 54.542C126.557 54.8453 126.49 55.1067 126.354 55.326C126.224 55.5453 126.032 55.7133 125.78 55.83C125.528 55.9467 125.223 56.005 124.863 56.005L124.926 55.9H125.157C125.349 55.9 125.514 55.9467 125.654 56.04C125.799 56.1333 125.925 56.2803 126.032 56.481L126.557 57.454C126.613 57.552 126.639 57.6477 126.634 57.741C126.63 57.8343 126.595 57.9113 126.529 57.972C126.464 58.028 126.368 58.056 126.242 58.056C126.116 58.056 126.014 58.0303 125.934 57.979C125.855 57.923 125.785 57.839 125.724 57.727L125.017 56.425C124.933 56.2663 124.833 56.1613 124.716 56.11C124.604 56.054 124.46 56.026 124.282 56.026H123.617V57.594C123.617 57.7387 123.58 57.853 123.505 57.937C123.431 58.0163 123.319 58.056 123.169 58.056ZM123.617 55.361H124.709C125.031 55.361 125.274 55.2957 125.437 55.165C125.605 55.0297 125.689 54.829 125.689 54.563C125.689 54.3017 125.605 54.1057 125.437 53.975C125.274 53.8397 125.031 53.772 124.709 53.772H123.617V55.361ZM130.971 58.07C130.63 58.07 130.329 58.0257 130.068 57.937C129.811 57.8483 129.594 57.7177 129.417 57.545C129.24 57.3677 129.107 57.1483 129.018 56.887C128.929 56.6257 128.885 56.3223 128.885 55.977V53.464C128.885 53.31 128.922 53.1957 128.997 53.121C129.076 53.0463 129.188 53.009 129.333 53.009C129.478 53.009 129.587 53.0463 129.662 53.121C129.741 53.1957 129.781 53.31 129.781 53.464V55.97C129.781 56.4133 129.881 56.747 130.082 56.971C130.287 57.1903 130.584 57.3 130.971 57.3C131.358 57.3 131.652 57.1903 131.853 56.971C132.054 56.747 132.154 56.4133 132.154 55.97V53.464C132.154 53.31 132.191 53.1957 132.266 53.121C132.345 53.0463 132.457 53.009 132.602 53.009C132.742 53.009 132.849 53.0463 132.924 53.121C133.003 53.1957 133.043 53.31 133.043 53.464V55.977C133.043 56.4343 132.964 56.8193 132.805 57.132C132.651 57.4447 132.42 57.6803 132.112 57.839C131.804 57.993 131.424 58.07 130.971 58.07ZM137.189 58.07C136.984 58.07 136.778 58.0537 136.573 58.021C136.368 57.993 136.174 57.9487 135.992 57.888C135.81 57.8227 135.647 57.7433 135.502 57.65C135.418 57.594 135.36 57.5263 135.327 57.447C135.294 57.3677 135.283 57.2907 135.292 57.216C135.306 57.1367 135.336 57.069 135.383 57.013C135.434 56.9523 135.497 56.915 135.572 56.901C135.647 56.887 135.728 56.908 135.817 56.964C136.022 57.0853 136.239 57.174 136.468 57.23C136.697 57.286 136.937 57.314 137.189 57.314C137.558 57.314 137.826 57.2533 137.994 57.132C138.162 57.006 138.246 56.845 138.246 56.649C138.246 56.4857 138.185 56.3573 138.064 56.264C137.947 56.1707 137.744 56.0937 137.455 56.033L136.685 55.872C136.242 55.7787 135.91 55.6223 135.691 55.403C135.476 55.179 135.369 54.885 135.369 54.521C135.369 54.2923 135.416 54.0847 135.509 53.898C135.602 53.7113 135.733 53.5503 135.901 53.415C136.074 53.2797 136.277 53.177 136.51 53.107C136.748 53.0323 137.009 52.995 137.294 52.995C137.574 52.995 137.84 53.03 138.092 53.1C138.344 53.17 138.57 53.2727 138.771 53.408C138.846 53.4593 138.895 53.5223 138.918 53.597C138.946 53.6717 138.953 53.7463 138.939 53.821C138.925 53.891 138.892 53.9517 138.841 54.003C138.79 54.0543 138.724 54.0847 138.645 54.094C138.57 54.1033 138.484 54.08 138.386 54.024C138.213 53.926 138.038 53.856 137.861 53.814C137.684 53.772 137.492 53.751 137.287 53.751C137.072 53.751 136.888 53.7813 136.734 53.842C136.58 53.9027 136.461 53.989 136.377 54.101C136.298 54.2083 136.258 54.3367 136.258 54.486C136.258 54.654 136.314 54.7893 136.426 54.892C136.538 54.99 136.729 55.067 137 55.123L137.763 55.284C138.225 55.382 138.568 55.536 138.792 55.746C139.021 55.956 139.135 56.236 139.135 56.586C139.135 56.81 139.088 57.013 138.995 57.195C138.906 57.377 138.776 57.5333 138.603 57.664C138.435 57.7947 138.232 57.895 137.994 57.965C137.756 58.035 137.488 58.07 137.189 58.07ZM145.08 58C144.926 58 144.807 57.9603 144.723 57.881C144.644 57.797 144.604 57.678 144.604 57.524V53.541C144.604 53.387 144.644 53.2703 144.723 53.191C144.807 53.107 144.926 53.065 145.08 53.065H146.76C147.106 53.065 147.4 53.1163 147.642 53.219C147.885 53.3217 148.069 53.4687 148.195 53.66C148.326 53.8513 148.391 54.08 148.391 54.346C148.391 54.6447 148.305 54.8967 148.132 55.102C147.96 55.3073 147.724 55.445 147.425 55.515V55.41C147.771 55.4613 148.039 55.592 148.23 55.802C148.422 56.012 148.517 56.285 148.517 56.621C148.517 57.0597 148.368 57.4003 148.069 57.643C147.775 57.881 147.365 58 146.837 58H145.08ZM145.465 57.321H146.725C147.043 57.321 147.276 57.2603 147.425 57.139C147.575 57.013 147.649 56.8263 147.649 56.579C147.649 56.327 147.575 56.1403 147.425 56.019C147.276 55.8977 147.043 55.837 146.725 55.837H145.465V57.321ZM145.465 55.158H146.606C146.914 55.158 147.143 55.0997 147.292 54.983C147.446 54.8617 147.523 54.6843 147.523 54.451C147.523 54.2177 147.446 54.0427 147.292 53.926C147.143 53.8047 146.914 53.744 146.606 53.744H145.465V55.158ZM151.3 58C151.146 58 151.027 57.9603 150.943 57.881C150.863 57.797 150.824 57.678 150.824 57.524V53.541C150.824 53.387 150.863 53.2703 150.943 53.191C151.027 53.107 151.146 53.065 151.3 53.065H153.799C153.915 53.065 154.004 53.0953 154.065 53.156C154.13 53.2167 154.163 53.303 154.163 53.415C154.163 53.5317 154.13 53.6227 154.065 53.688C154.004 53.7487 153.915 53.779 153.799 53.779H151.685V55.137H153.645C153.766 55.137 153.857 55.1673 153.918 55.228C153.978 55.2887 154.009 55.3773 154.009 55.494C154.009 55.6107 153.978 55.6993 153.918 55.76C153.857 55.8207 153.766 55.851 153.645 55.851H151.685V57.286H153.799C153.915 57.286 154.004 57.3163 154.065 57.377C154.13 57.4377 154.163 57.5263 154.163 57.643C154.163 57.7597 154.13 57.8483 154.065 57.909C154.004 57.9697 153.915 58 153.799 58H151.3ZM156.849 58.056C156.704 58.056 156.592 58.0163 156.513 57.937C156.438 57.853 156.401 57.7387 156.401 57.594V53.52C156.401 53.3707 156.44 53.2587 156.52 53.184C156.599 53.1047 156.711 53.065 156.856 53.065H158.543C159.084 53.065 159.502 53.1957 159.796 53.457C160.09 53.7137 160.237 54.0753 160.237 54.542C160.237 54.8453 160.169 55.1067 160.034 55.326C159.903 55.5453 159.712 55.7133 159.46 55.83C159.208 55.9467 158.902 56.005 158.543 56.005L158.606 55.9H158.837C159.028 55.9 159.194 55.9467 159.334 56.04C159.478 56.1333 159.604 56.2803 159.712 56.481L160.237 57.454C160.293 57.552 160.318 57.6477 160.314 57.741C160.309 57.8343 160.274 57.9113 160.209 57.972C160.143 58.028 160.048 58.056 159.922 58.056C159.796 58.056 159.693 58.0303 159.614 57.979C159.534 57.923 159.464 57.839 159.404 57.727L158.697 56.425C158.613 56.2663 158.512 56.1613 158.396 56.11C158.284 56.054 158.139 56.026 157.962 56.026H157.297V57.594C157.297 57.7387 157.259 57.853 157.185 57.937C157.11 58.0163 156.998 58.056 156.849 58.056ZM157.297 55.361H158.389C158.711 55.361 158.953 55.2957 159.117 55.165C159.285 55.0297 159.369 54.829 159.369 54.563C159.369 54.3017 159.285 54.1057 159.117 53.975C158.953 53.8397 158.711 53.772 158.389 53.772H157.297V55.361ZM163.047 58.056C162.903 58.056 162.791 58.0163 162.711 57.937C162.637 57.853 162.599 57.7387 162.599 57.594V53.464C162.599 53.3147 162.637 53.2027 162.711 53.128C162.791 53.0487 162.903 53.009 163.047 53.009C163.192 53.009 163.302 53.0487 163.376 53.128C163.456 53.2027 163.495 53.3147 163.495 53.464V55.249H163.509L165.518 53.233C165.593 53.1583 165.668 53.1023 165.742 53.065C165.817 53.0277 165.901 53.009 165.994 53.009C166.13 53.009 166.225 53.044 166.281 53.114C166.342 53.184 166.365 53.2657 166.351 53.359C166.342 53.4523 166.298 53.5387 166.218 53.618L164.174 55.641L164.181 55.235L166.316 57.405C166.414 57.4983 166.466 57.5963 166.47 57.699C166.475 57.8017 166.442 57.888 166.372 57.958C166.307 58.0233 166.209 58.056 166.078 58.056C165.966 58.056 165.875 58.0327 165.805 57.986C165.74 57.9393 165.663 57.8717 165.574 57.783L163.509 55.718H163.495V57.594C163.495 57.7387 163.458 57.853 163.383 57.937C163.309 58.0163 163.197 58.056 163.047 58.056ZM169.131 58C168.977 58 168.858 57.9603 168.774 57.881C168.694 57.797 168.655 57.678 168.655 57.524V53.541C168.655 53.387 168.694 53.2703 168.774 53.191C168.858 53.107 168.977 53.065 169.131 53.065H171.63C171.746 53.065 171.835 53.0953 171.896 53.156C171.961 53.2167 171.994 53.303 171.994 53.415C171.994 53.5317 171.961 53.6227 171.896 53.688C171.835 53.7487 171.746 53.779 171.63 53.779H169.516V55.137H171.476C171.597 55.137 171.688 55.1673 171.749 55.228C171.809 55.2887 171.84 55.3773 171.84 55.494C171.84 55.6107 171.809 55.6993 171.749 55.76C171.688 55.8207 171.597 55.851 171.476 55.851H169.516V57.286H171.63C171.746 57.286 171.835 57.3163 171.896 57.377C171.961 57.4377 171.994 57.5263 171.994 57.643C171.994 57.7597 171.961 57.8483 171.896 57.909C171.835 57.9697 171.746 58 171.63 58H169.131ZM174.686 58C174.542 58 174.43 57.9603 174.35 57.881C174.271 57.797 174.231 57.6827 174.231 57.538V53.499C174.231 53.3497 174.269 53.2377 174.343 53.163C174.423 53.0837 174.535 53.044 174.679 53.044C174.824 53.044 174.934 53.0837 175.008 53.163C175.088 53.2377 175.127 53.3497 175.127 53.499V57.237H177.157C177.283 57.237 177.379 57.2697 177.444 57.335C177.514 57.4003 177.549 57.4937 177.549 57.615C177.549 57.7363 177.514 57.832 177.444 57.902C177.379 57.9673 177.283 58 177.157 58H174.686ZM179.502 58.056C179.39 58.056 179.299 58.0303 179.229 57.979C179.163 57.9277 179.124 57.86 179.11 57.776C179.096 57.6873 179.112 57.5893 179.159 57.482L181.007 53.387C181.067 53.2517 181.14 53.156 181.224 53.1C181.312 53.0393 181.413 53.009 181.525 53.009C181.632 53.009 181.728 53.0393 181.812 53.1C181.9 53.156 181.975 53.2517 182.036 53.387L183.891 57.482C183.942 57.5893 183.961 57.6873 183.947 57.776C183.933 57.8647 183.893 57.9347 183.828 57.986C183.762 58.0327 183.676 58.056 183.569 58.056C183.438 58.056 183.335 58.0257 183.261 57.965C183.191 57.8997 183.128 57.8017 183.072 57.671L182.617 56.614L182.995 56.859H180.041L180.419 56.614L179.971 57.671C179.91 57.8063 179.847 57.9043 179.782 57.965C179.716 58.0257 179.623 58.056 179.502 58.056ZM181.511 54.038L180.531 56.369L180.349 56.145H182.687L182.512 56.369L181.525 54.038H181.511ZM187.708 58.07C187.503 58.07 187.297 58.0537 187.092 58.021C186.887 57.993 186.693 57.9487 186.511 57.888C186.329 57.8227 186.166 57.7433 186.021 57.65C185.937 57.594 185.879 57.5263 185.846 57.447C185.813 57.3677 185.802 57.2907 185.811 57.216C185.825 57.1367 185.855 57.069 185.902 57.013C185.953 56.9523 186.016 56.915 186.091 56.901C186.166 56.887 186.247 56.908 186.336 56.964C186.541 57.0853 186.758 57.174 186.987 57.23C187.216 57.286 187.456 57.314 187.708 57.314C188.077 57.314 188.345 57.2533 188.513 57.132C188.681 57.006 188.765 56.845 188.765 56.649C188.765 56.4857 188.704 56.3573 188.583 56.264C188.466 56.1707 188.263 56.0937 187.974 56.033L187.204 55.872C186.761 55.7787 186.429 55.6223 186.21 55.403C185.995 55.179 185.888 54.885 185.888 54.521C185.888 54.2923 185.935 54.0847 186.028 53.898C186.121 53.7113 186.252 53.5503 186.42 53.415C186.593 53.2797 186.796 53.177 187.029 53.107C187.267 53.0323 187.528 52.995 187.813 52.995C188.093 52.995 188.359 53.03 188.611 53.1C188.863 53.17 189.089 53.2727 189.29 53.408C189.365 53.4593 189.414 53.5223 189.437 53.597C189.465 53.6717 189.472 53.7463 189.458 53.821C189.444 53.891 189.411 53.9517 189.36 54.003C189.309 54.0543 189.243 54.0847 189.164 54.094C189.089 54.1033 189.003 54.08 188.905 54.024C188.732 53.926 188.557 53.856 188.38 53.814C188.203 53.772 188.011 53.751 187.806 53.751C187.591 53.751 187.407 53.7813 187.253 53.842C187.099 53.9027 186.98 53.989 186.896 54.101C186.817 54.2083 186.777 54.3367 186.777 54.486C186.777 54.654 186.833 54.7893 186.945 54.892C187.057 54.99 187.248 55.067 187.519 55.123L188.282 55.284C188.744 55.382 189.087 55.536 189.311 55.746C189.54 55.956 189.654 56.236 189.654 56.586C189.654 56.81 189.607 57.013 189.514 57.195C189.425 57.377 189.295 57.5333 189.122 57.664C188.954 57.7947 188.751 57.895 188.513 57.965C188.275 58.035 188.007 58.07 187.708 58.07Z" fill="#6454F0"/>
<defs>
<linearGradient id="paint0_linear_388_1851" x1="48.6611" y1="7.41504" x2="78.1924" y2="21.7264" gradientUnits="userSpaceOnUse">
<stop stop-color="#6EE2F5"/>
<stop offset="1" stop-color="#6454F0"/>
</linearGradient>
<linearGradient id="paint1_linear_388_1851" x1="49.1628" y1="-4.89595" x2="88.479" y2="14.4464" gradientUnits="userSpaceOnUse">
<stop stop-color="#6EE2F5"/>
<stop offset="1" stop-color="#6454F0"/>
</linearGradient>
<linearGradient id="paint2_linear_388_1851" x1="91.1033" y1="20.4943" x2="100.349" y2="23.8111" gradientUnits="userSpaceOnUse">
<stop stop-color="#6EE2F5"/>
<stop offset="1" stop-color="#6454F0"/>
</linearGradient>
<linearGradient id="paint3_linear_388_1851" x1="99.1763" y1="20.4931" x2="108.285" y2="23.6961" gradientUnits="userSpaceOnUse">
<stop stop-color="#6EE2F5"/>
<stop offset="1" stop-color="#6454F0"/>
</linearGradient>
<linearGradient id="paint4_linear_388_1851" x1="112.004" y1="20.2311" x2="123.615" y2="25.8011" gradientUnits="userSpaceOnUse">
<stop stop-color="#6EE2F5"/>
<stop offset="1" stop-color="#6454F0"/>
</linearGradient>
<linearGradient id="paint5_linear_388_1851" x1="122.483" y1="20.4764" x2="132.699" y2="24.6605" gradientUnits="userSpaceOnUse">
<stop stop-color="#6EE2F5"/>
<stop offset="1" stop-color="#6454F0"/>
</linearGradient>
<linearGradient id="paint6_linear_388_1851" x1="131.705" y1="20.4974" x2="138.65" y2="22.2633" gradientUnits="userSpaceOnUse">
<stop stop-color="#6EE2F5"/>
<stop offset="1" stop-color="#6454F0"/>
</linearGradient>
<linearGradient id="paint7_linear_388_1851" x1="137.53" y1="20.4974" x2="140.301" y2="20.7638" gradientUnits="userSpaceOnUse">
<stop stop-color="#6EE2F5"/>
<stop offset="1" stop-color="#6454F0"/>
</linearGradient>
<linearGradient id="paint8_linear_388_1851" x1="142.596" y1="20.4764" x2="152.815" y2="24.6635" gradientUnits="userSpaceOnUse">
<stop stop-color="#6EE2F5"/>
<stop offset="1" stop-color="#6454F0"/>
</linearGradient>
<linearGradient id="paint9_linear_388_1851" x1="151.883" y1="20.4721" x2="159.398" y2="22.5594" gradientUnits="userSpaceOnUse">
<stop stop-color="#6EE2F5"/>
<stop offset="1" stop-color="#6454F0"/>
</linearGradient>
</defs>
</svg>
