<svg width="30" height="30" viewBox="0 0 30 30" fill="none" xmlns="http://www.w3.org/2000/svg">
<path fill-rule="evenodd" clip-rule="evenodd" d="M5 0C2.23858 0 0 2.23858 0 5V25C0 27.7614 2.23858 30 5 30H25C27.7614 30 30 27.7614 30 25V5C30 2.23858 27.7614 0 25 0H5ZM15.4375 14.0625H21.0625C21.58 14.0625 22 14.4815 22 15C22 15.5184 21.58 15.9375 21.0625 15.9375H15.4375V21.5625C15.4375 22.0809 15.0175 22.5 14.5 22.5C13.9825 22.5 13.5625 22.0809 13.5625 21.5625V15.9375H7.93747C7.41997 15.9375 6.99997 15.5184 6.99997 15C6.99997 14.4815 7.41997 14.0625 7.93747 14.0625H13.5625V8.43748C13.5625 7.91904 13.9825 7.49998 14.5 7.49998C15.0175 7.49998 15.4375 7.91904 15.4375 8.43748V14.0625Z" fill="white"/>
</svg>
