<svg width="73" height="63" viewBox="0 0 73 63" fill="none" xmlns="http://www.w3.org/2000/svg">
<path style="mix-blend-mode:multiply" d="M72.9338 37.9106C74.1307 22.5749 59.0787 8.87853 39.3143 7.31903C19.5499 5.75952 2.55736 16.9274 1.36049 32.2632C0.163617 47.5989 15.2156 61.2952 34.98 62.8547C54.7445 64.4142 71.737 53.2464 72.9338 37.9106Z" fill="url(#paint0_radial_1562_13780)" fill-opacity="0.2"/>
<mask id="mask0_1562_13780" style="mask-type:luminance" maskUnits="userSpaceOnUse" x="4" y="13" width="65" height="45">
<path d="M6.51732 40.4871C22.7206 49.5831 39.617 55.0918 56.0458 57.0133C57.1284 57.1412 58.2738 56.3803 58.7292 55.2507C61.9215 47.3413 65.0908 39.2956 68.237 31.1135C68.7553 29.7608 68.1773 28.5366 66.9727 28.4231C51.1936 26.9171 34.7218 21.9919 18.6373 13.6474C17.5138 13.0662 16.2685 13.3905 15.795 14.4066C12.2037 22.1174 8.63917 29.6567 5.10129 37.0245C4.57175 38.1275 5.23368 39.7649 6.51732 40.4871Z" fill="white"/>
</mask>
<g mask="url(#mask0_1562_13780)">
<path d="M5.58402 43.0681C22.0464 51.4676 39.2495 56.1518 55.9704 57.1208C57.1072 57.1877 58.2659 56.3808 58.7355 55.2171C61.901 47.3798 65.0439 39.4085 68.1642 31.3031C68.7222 29.8477 68.0956 28.5306 66.7934 28.406C51.0476 26.8778 34.6164 21.9471 18.5721 13.6137C17.3533 12.9826 16.0047 13.3316 15.4993 14.4312C11.6067 22.9092 7.74629 31.1855 3.91801 39.2603C3.33717 40.4855 4.13095 42.3247 5.58402 43.0681Z" fill="url(#paint1_linear_1562_13780)"/>
<path d="M5.51483 43.0229C21.9967 51.4469 39.2231 56.1459 55.9661 57.1198C57.1043 57.1872 58.2644 56.3802 58.7339 55.2167C61.9001 47.3796 65.0437 39.4083 68.1646 31.3029C68.723 29.8476 68.0948 28.5303 66.7906 28.4055C51.023 26.8748 34.5683 21.9323 18.5031 13.5775C17.2827 12.9447 15.9326 13.2921 15.4274 14.3914C11.5345 22.8666 7.6739 31.14 3.8455 39.2117C3.2647 40.4365 4.06009 42.2775 5.51483 43.0229Z" fill="url(#paint2_linear_1562_13780)"/>
</g>
<path d="M13.8025 30.3241C13.5867 30.7862 13.8184 31.4133 14.3158 31.7336C17.2951 33.6406 18.9124 37.0771 18.067 40.1123C17.9251 40.6207 18.214 41.2171 18.7389 41.4534C29.2306 46.1747 39.8862 49.4414 50.406 51.2536C50.8823 51.3328 51.3879 51.0702 51.6585 50.6171C52.9341 48.4854 55.372 47.1422 57.698 47.0386C58.203 47.0172 58.6936 46.6436 58.8879 46.1283C59.5712 44.3176 60.2536 42.5007 60.9349 40.6775C61.1442 40.1167 60.9559 39.5545 60.4753 39.3893C58.1235 38.5743 56.943 35.9819 57.6352 33.2293C57.7803 32.6497 57.4684 32.1404 56.9359 32.0448C46.8114 30.2242 36.5007 27.0386 26.2769 22.4876C25.824 22.2863 25.3164 22.4202 25.076 22.8136C23.4756 25.4387 20.182 26.4264 17.0784 25.1578C16.6065 24.9667 16.1245 25.1328 15.9384 25.5498C15.2255 27.148 14.5135 28.7394 13.8025 30.3241ZM51.765 37.569C53.5383 37.971 54.4509 39.9713 53.8477 42.097C53.2447 44.2239 50.8638 45.9477 49.0857 45.4938C47.3077 45.043 46.8123 42.6514 47.4194 40.5682C48.0264 38.4833 49.9917 37.1685 51.765 37.569ZM40.3173 31.7671C43.2647 32.72 44.6819 35.9503 43.5483 39.8163C42.4148 43.6823 38.7074 45.6197 35.7577 44.525C32.8086 43.4361 31.7381 39.8771 32.8732 36.1401C34.0081 32.3993 37.3696 30.8179 40.3173 31.767L40.3173 31.7671ZM26.1987 29.5201C28.2289 30.4281 29.0788 32.6469 28.3691 34.9703C27.6594 37.2949 25.0131 38.5085 22.9883 37.5303C20.9632 36.5553 20.3207 33.8367 21.0264 31.5693C21.7322 29.3019 24.1683 28.6146 26.1986 29.52L26.1987 29.5201Z" fill="#B3CFA1"/>
<path d="M50.4629 50.4667C50.4368 50.4667 50.4107 50.4646 50.3849 50.4604C39.8035 48.6376 29.195 45.3544 18.8573 40.7025C18.5694 40.5728 18.4405 40.2541 18.5007 40.0379C19.4 36.8102 17.7578 33.1029 14.5074 31.0223C14.2334 30.846 14.1206 30.5157 14.2034 30.3385C14.918 28.7455 15.6313 27.1511 16.3433 25.5552C16.3925 25.4452 16.4957 25.4221 16.5736 25.4221C16.6348 25.423 16.6954 25.4357 16.7519 25.4596C17.6848 25.8464 18.6837 26.0471 19.6929 26.0505C22.087 26.0505 24.238 24.8666 25.4469 22.8837C25.5272 22.7524 25.6743 22.738 25.7338 22.738C25.8024 22.7386 25.8702 22.7535 25.9328 22.782C36.0892 27.3029 46.4482 30.5317 56.7217 32.3788C56.7643 32.3847 56.8052 32.3997 56.8416 32.4227C56.878 32.4457 56.909 32.4763 56.9327 32.5124C56.9903 32.602 57.0034 32.7259 56.9697 32.8607C56.2019 35.9141 57.5502 38.7911 60.176 39.701C60.2038 39.7099 60.2294 39.7248 60.251 39.7446C60.2725 39.7643 60.2896 39.7886 60.301 39.8156C60.3528 39.9261 60.3481 40.0875 60.2885 40.2475C59.6114 42.0592 58.9229 43.8925 58.2421 45.6962C58.1302 45.9934 57.8369 46.2262 57.5601 46.238C54.9408 46.3545 52.3887 47.8678 51.0572 50.093C50.9236 50.3166 50.6849 50.4665 50.4628 50.4665L50.4629 50.4667ZM51.0029 36.6965C49.1315 36.6965 47.3469 38.1611 46.7594 40.1787C46.3165 41.6984 46.429 43.3241 47.0529 44.4214C47.4645 45.1453 48.0799 45.6288 48.8325 45.8196C49.0742 45.8805 49.3225 45.9109 49.5717 45.9101C51.5273 45.9101 53.6837 44.131 54.2807 42.0249C54.6512 40.7202 54.5187 39.3873 53.9175 38.3686C53.4339 37.5491 52.6734 36.9857 51.7761 36.7822C51.5223 36.7251 51.263 36.6964 51.0029 36.6965ZM38.4946 30.6967C35.6102 30.6967 33.1454 32.678 32.2151 35.7443C30.9453 39.924 32.2746 43.6616 35.4476 44.833C36.0584 45.0585 36.7043 45.1731 37.3551 45.1713C40.32 45.1713 43.0442 42.9416 43.9799 39.749C45.1768 35.6667 43.6954 32.0664 40.3774 30.9938C39.7689 30.7973 39.1337 30.697 38.4946 30.6967ZM24.3016 28.3328C22.4204 28.3328 20.9137 29.4199 20.3694 31.1697C19.6399 33.5138 20.1835 36.6401 22.6284 37.8172C23.1765 38.0811 23.7769 38.2168 24.3845 38.2139C26.3895 38.2139 28.2048 36.8549 28.7988 34.9091C29.5948 32.3035 28.5738 29.7783 26.3158 28.7686C25.6817 28.4846 24.9958 28.3362 24.3016 28.3328Z" fill="#F2FDEB"/>
<mask id="mask1_1562_13780" style="mask-type:luminance" maskUnits="userSpaceOnUse" x="10" y="0" width="62" height="38">
<path d="M69.5672 29.0139C53.1228 36.73 35.299 39.1119 18.5938 36.1599C17.4928 35.9665 16.4808 34.9207 16.2181 33.7434C14.3759 25.4961 12.5501 17.1831 10.7408 8.80439C10.4429 7.41924 11.2301 6.47899 12.4672 6.71459C28.6703 9.78908 46.2675 7.65116 62.846 0.301173C64.0042 -0.210595 65.113 0.204151 65.382 1.28167C67.4227 9.45436 69.4444 17.547 71.4469 25.5597C71.7465 26.7596 70.8701 28.4018 69.5672 29.0139Z" fill="white"/>
</mask>
<g mask="url(#mask1_1562_13780)">
<path d="M69.9917 31.792C53.4484 38.7026 35.4832 40.1991 18.6504 36.2813C17.5059 36.0159 16.4884 34.9233 16.2173 33.7104C14.3896 25.5378 12.578 17.3005 10.7825 8.9984C10.4618 7.50816 11.3132 6.49774 12.6511 6.74933C28.8252 9.77694 46.3776 7.61764 62.9129 0.271416C64.1692 -0.284865 65.3696 0.161161 65.6537 1.3272C67.843 10.3121 70.0099 19.2048 72.1545 28.0052C72.4798 29.3412 71.4521 31.1814 69.9917 31.792Z" fill="url(#paint3_linear_1562_13780)"/>
<path d="M70.0634 31.7528C53.502 38.6912 35.511 40.2009 18.6553 36.2817C17.5095 36.0164 16.4905 34.9234 16.2194 33.7106C14.3909 25.538 12.5786 17.3005 10.7825 8.99827C10.4616 7.50803 11.3147 6.49792 12.6545 6.74975C28.851 9.78069 46.4294 7.61079 62.9845 0.239541C64.2423 -0.318564 65.4439 0.125522 65.728 1.29125C67.9176 10.2738 70.0847 19.164 72.2294 27.9618C72.5544 29.2975 71.5253 31.1397 70.0634 31.7528Z" fill="url(#paint4_linear_1562_13780)"/>
</g>
<path d="M63.3435 12.6977C63.2403 12.2536 62.8157 12.0399 62.3384 12.1911C59.1988 13.1953 56.2138 11.8245 55.1322 9.0157C54.9695 8.59435 54.5052 8.40613 54.0332 8.55849C43.3853 12.0064 32.5002 13.3759 21.9851 12.6668C21.4319 12.6294 21.0301 13.0286 21.0767 13.6048C21.3001 16.3423 19.6666 18.4815 17.1644 18.5952C16.6532 18.6176 16.3682 19.0836 16.4834 19.6594C16.8583 21.5313 17.2339 23.4003 17.61 25.2666C17.7169 25.7976 18.1447 26.2808 18.6467 26.4392C20.9591 27.1743 23.1672 29.0485 24.0711 31.3765C24.2628 31.8713 24.7221 32.2467 25.2109 32.2915C36.0193 33.2178 47.1491 31.9766 57.9537 28.5679C58.4943 28.3972 58.8714 27.8293 58.8248 27.2961C58.5446 24.115 60.6866 20.8405 63.8072 19.1856C64.3285 18.9084 64.652 18.287 64.529 17.7919C64.1345 16.0968 63.7393 14.3987 63.3435 12.6977ZM30.0523 22.8644C30.294 24.9791 29.3824 27.1564 27.5295 27.1697C25.6758 27.1864 23.5923 24.972 23.3544 22.8297C23.1166 20.6874 24.3785 19.0387 26.2269 19.0599C28.075 19.0835 29.8111 20.7464 30.0523 22.8644ZM45.229 21.2557C45.6815 25.1126 44.0141 28.4631 40.922 28.9864C37.8291 29.5181 34.4918 26.883 34.0414 22.9461C33.5901 19.007 35.5732 16.1944 38.6638 15.7682C41.7549 15.3487 44.7771 17.3916 45.229 21.2557ZM57.4882 18.2924C57.7669 20.6653 56.6867 23.345 54.5737 24.0558C52.4607 24.7708 50.1088 23.1736 49.8263 20.7648C49.5437 18.3552 50.7621 16.2732 52.8811 15.6143C55.0007 14.9593 57.2093 15.9173 57.4882 18.2924Z" fill="#84D180"/>
<path d="M32.1771 31.7878C29.8693 31.7878 27.5417 31.6886 25.2589 31.4928C24.9936 31.4686 24.7154 31.236 24.6008 30.9401C23.6759 28.5583 21.4061 26.4879 18.8179 25.6652C18.5121 25.5687 18.2329 25.2504 18.1673 24.9245C17.7911 23.0582 17.4156 21.1893 17.0406 19.3178C17.0072 19.1506 17.0378 19.0363 17.0777 18.9851C17.0888 18.9708 17.1118 18.9412 17.1889 18.9379C18.463 18.88 19.6104 18.3387 20.4204 17.4135C21.3384 16.3651 21.7726 14.9146 21.6433 13.3292C21.6373 13.2551 21.6433 13.1519 21.7064 13.0831C21.734 13.057 21.7667 13.0369 21.8023 13.0239C21.8379 13.011 21.8757 13.0054 21.9136 13.0076C21.9244 13.0076 21.9354 13.008 21.9466 13.0087C23.7447 13.13 25.5777 13.1915 27.3947 13.1915C36.3398 13.1915 45.3608 11.7389 54.2072 8.87428C54.2555 8.85821 54.3059 8.8498 54.3567 8.84937C54.4273 8.84937 54.553 8.86815 54.6017 8.99416C55.5203 11.38 57.7031 12.8624 60.2976 12.8622C61.049 12.8592 61.7954 12.7395 62.5105 12.5075C62.5513 12.494 62.5939 12.4868 62.6369 12.4861C62.7533 12.4861 62.7766 12.5446 62.7893 12.5992L63.9749 17.6935C64.0305 17.9176 63.8553 18.284 63.541 18.4513C60.14 20.2547 57.9673 23.8187 58.2579 27.1179C58.2817 27.3902 58.0598 27.7062 57.7831 27.7935C49.3828 30.4437 40.7668 31.7878 32.1771 31.7878ZM39.4592 14.9136C39.1676 14.9138 38.8763 14.9336 38.5873 14.9728C35.1053 15.4531 33.0039 18.6646 33.4758 22.7829C33.9001 26.4922 36.8183 29.3979 40.1189 29.3979C40.42 29.398 40.7205 29.3725 41.0174 29.3216C44.2877 28.7681 46.2969 25.2514 45.7933 20.9599C45.3771 17.4 42.7725 14.9136 39.4593 14.9136H39.4592ZM26.1912 18.2589C25.2281 18.2589 24.3512 18.6485 23.7219 19.356C22.9869 20.1821 22.6468 21.388 22.7886 22.6644C23.0603 25.1113 25.398 27.513 27.5083 27.513H27.5341C28.3333 27.5072 29.0461 27.1751 29.5943 26.5524C30.401 25.636 30.7929 24.1102 30.6169 22.5703C30.3493 20.2207 28.383 18.2867 26.2336 18.2592L26.1912 18.2589ZM54.1819 14.6124C53.6839 14.6139 53.189 14.6903 52.7134 14.8389C50.3304 15.5798 48.9433 17.8962 49.2608 20.6031C49.5217 22.8281 51.3967 24.5709 53.5293 24.5709C53.9459 24.571 54.3598 24.5028 54.7547 24.3691C57.2827 23.5185 58.341 20.4509 58.0526 17.9964C57.8151 15.9725 56.2596 14.6125 54.182 14.6125L54.1819 14.6124Z" fill="#CAE9F8"/>
<path d="M37.0761 40.4378C26.7121 39.8834 14.4355 38.493 4.63775 36.1887C0.942797 35.2764 -0.635682 32.4165 0.233278 28.8275C1.63583 23.3278 4.48352 16.1782 7.49477 10.8734C9.5004 7.42437 12.6229 5.24698 16.6609 5.64706C27.4689 6.7179 38.895 7.32805 49.0288 8.70657C52.9018 9.23343 55.6686 13.4517 54.7689 17.1686C53.252 23.0605 50.6205 29.5353 47.2541 35.2228C45.1083 38.7473 41.0957 40.6141 37.0761 40.4378Z" fill="url(#paint5_linear_1562_13780)"/>
<g filter="url(#filter0_d_1562_13780)">
<path d="M37.0761 40.4378C26.7121 39.8834 14.4355 38.493 4.63775 36.1887C0.942797 35.2764 -0.635682 32.4165 0.233278 28.8275C1.63583 23.3278 4.48352 16.1782 7.49477 10.8734C9.50032 7.4244 12.6237 5.23726 16.6608 5.64708C27.4688 6.74397 38.8949 7.82121 49.0287 8.70659C52.9222 9.04679 55.6685 13.4517 54.7688 17.1687C53.2519 23.0605 50.6205 29.5354 47.2541 35.2228C45.1083 38.7474 41.0957 40.6141 37.0761 40.4378Z" fill="url(#paint6_linear_1562_13780)"/>
</g>
<path opacity="0.3" d="M39.8506 31.1433C39.7197 31.1465 39.5887 31.1394 39.4588 31.1223L36.3986 30.7159C34.9901 30.5289 34.2811 29.1801 34.8149 27.7033C35.3487 26.2266 36.9231 25.1808 38.3318 25.368L41.3921 25.7744C42.8005 25.9615 43.5095 27.3102 42.9757 28.787C42.4909 30.128 41.1481 31.1135 39.8506 31.1433ZM30.6699 29.9241C30.5389 29.9273 30.4079 29.9203 30.278 29.9032L27.2178 29.4965C25.8093 29.3095 25.1004 27.9606 25.6342 26.4839C26.168 25.0071 27.7432 23.9613 29.1511 24.1487L32.2114 24.5552C33.6198 24.7422 34.3288 26.091 33.7949 27.5678C33.3101 28.9089 31.9672 29.8942 30.6699 29.9241ZM21.4891 28.7048C21.3582 28.708 21.2272 28.701 21.0973 28.6839L18.037 28.2775C16.6286 28.0905 15.9196 26.7417 16.4534 25.265C16.9873 23.7882 18.562 22.7427 19.9703 22.9296L23.0305 23.336C24.439 23.523 25.148 24.8718 24.6142 26.3486C24.1294 27.6896 22.7865 28.675 21.4891 28.7048ZM12.3082 27.4856C12.1773 27.4888 12.0463 27.4818 11.9164 27.4646L8.85611 27.0583C7.44769 26.8712 6.73867 25.5225 7.2725 24.0457C7.80632 22.5689 9.38133 21.5233 10.7894 21.7104L13.8496 22.1168C15.2581 22.3038 15.9671 23.6525 15.4332 25.1293C14.9486 26.4704 13.6057 27.4557 12.3082 27.4856Z" fill="#3453FA"/>
<path opacity="0.3" d="M16.9004 29.1621L10.5722 28.3217L8.4627 28.0415C7.49216 27.9126 6.40659 28.6332 6.03858 29.6512C5.67056 30.6692 6.1593 31.5989 7.13016 31.7278C7.13016 31.7278 15.7473 32.8649 15.8379 32.8628C16.7322 32.8422 17.6578 32.163 17.992 31.2386C18.3599 30.2207 17.8712 29.2908 16.9004 29.1621Z" fill="#FA3434"/>
<path opacity="0.3" d="M26.9494 30.3473L23.7557 29.9674L21.6463 29.6873C20.6758 29.5584 19.5902 30.279 19.2222 31.297C18.8542 32.315 19.3429 33.2446 20.3138 33.3736C20.3138 33.3736 25.7963 34.0501 25.8871 34.048C26.7814 34.0274 27.707 33.3482 28.0411 32.4239C28.409 31.4058 27.9203 30.4762 26.9494 30.3473Z" fill="#FA3434"/>
<path d="M39.8506 30.4439C39.7197 30.447 39.5887 30.44 39.4588 30.4229L36.3986 30.0165C34.9901 29.8294 34.2811 28.4807 34.8149 27.0039C35.3487 25.5271 36.9231 24.4814 38.3318 24.6686L41.3921 25.075C42.8005 25.262 43.5095 26.6108 42.9757 28.0876C42.4909 29.4286 41.1481 30.4141 39.8506 30.4439ZM30.6699 29.2248C30.5389 29.228 30.4079 29.221 30.278 29.2038L27.2178 28.7973C25.8093 28.6103 25.1004 27.2614 25.6342 25.7847C26.168 24.3079 27.7432 23.2621 29.1511 23.4495L32.2114 23.856C33.6198 24.043 34.3288 25.3918 33.7949 26.8686C33.3101 28.2094 31.9673 29.1948 30.6699 29.2248ZM21.4891 28.0054C21.3582 28.0086 21.2272 28.0016 21.0973 27.9844L18.037 27.5781C16.6286 27.3911 15.9196 26.0423 16.4534 24.5655C16.9873 23.0888 18.562 22.0433 19.9703 22.2302L23.0305 22.6366C24.439 22.8236 25.148 24.1724 24.6142 25.6491C24.1294 26.9902 22.7865 27.9756 21.4891 28.0054ZM12.3082 26.7862C12.1773 26.7893 12.0463 26.7823 11.9164 26.7652L8.85611 26.3588C7.44769 26.1718 6.73867 24.823 7.2725 23.3463C7.80632 21.8695 9.38133 20.8237 10.7894 21.0109L13.8496 21.4173C15.2581 21.6044 15.9671 22.9531 15.4332 24.4299C14.9486 25.7708 13.6057 26.7563 12.3082 26.7862Z" fill="url(#paint7_linear_1562_13780)"/>
<path opacity="0.3" d="M15.2351 18.5913L12.2662 18.1379C12.0689 18.1077 11.8812 18.0316 11.7184 17.9155C11.5555 17.7994 11.4219 17.6466 11.3283 17.4694C11.2346 17.2921 11.1835 17.0952 11.179 16.8946C11.1746 16.6939 11.2168 16.4949 11.3025 16.3136L12.7625 13.2233C12.9531 12.8199 13.2642 12.4864 13.6524 12.2694C14.0405 12.0523 14.4864 11.9625 14.9278 12.0125L18.1853 12.3812C18.3841 12.4037 18.5748 12.4728 18.7422 12.5829C18.9096 12.6929 19.049 12.8409 19.1492 13.015C19.2495 13.189 19.3077 13.3842 19.3194 13.585C19.331 13.7858 19.2956 13.9865 19.2162 14.171L17.9681 17.0694C17.7436 17.5909 17.3537 18.023 16.8593 18.2983C16.3649 18.5736 15.7938 18.6767 15.2351 18.5913Z" fill="#3453FA"/>
<path opacity="0.3" d="M42.6736 21.9019L39.7047 21.4484C39.5073 21.4183 39.3197 21.3421 39.1569 21.2261C38.994 21.11 38.8604 20.9572 38.7667 20.7799C38.6731 20.6027 38.622 20.4058 38.6175 20.2051C38.613 20.0045 38.6553 19.8055 38.741 19.6242L40.201 16.5339C40.3916 16.1305 40.7027 15.797 41.0909 15.5799C41.479 15.3629 41.9249 15.2731 42.3663 15.3231L45.6238 15.6917C45.8226 15.7142 46.0134 15.7833 46.1808 15.8933C46.3482 16.0034 46.4877 16.1514 46.5879 16.3254C46.6882 16.4995 46.7465 16.6947 46.7581 16.8955C46.7698 17.0963 46.7344 17.297 46.6549 17.4816L45.4066 20.3802C45.182 20.9017 44.7921 21.3337 44.2978 21.609C43.8034 21.8842 43.2323 21.9872 42.6736 21.9019Z" fill="#FA3434"/>
<path d="M15.0124 18.0076L12.0436 17.5542C11.8462 17.524 11.6586 17.4479 11.4957 17.3318C11.3328 17.2157 11.1992 17.0629 11.1056 16.8857C11.0119 16.7084 10.9608 16.5115 10.9564 16.3109C10.9519 16.1102 10.9942 15.9112 11.0799 15.7299L12.5399 12.6396C12.7305 12.2362 13.0415 11.9027 13.4297 11.6856C13.8179 11.4686 14.2638 11.3788 14.7051 11.4288L17.9627 11.7975C18.1615 11.82 18.3522 11.8891 18.5196 11.9992C18.687 12.1092 18.8265 12.2573 18.9267 12.4313C19.0269 12.6054 19.0852 12.8006 19.0968 13.0014C19.1084 13.2022 19.073 13.403 18.9935 13.5875L17.7453 16.4859C17.5208 17.0073 17.1309 17.4394 16.6366 17.7146C16.1422 17.9899 15.5711 18.0929 15.0124 18.0076Z" fill="url(#paint8_linear_1562_13780)"/>
<path d="M15.3972 17.1791C15.3111 17.1791 15.225 17.1726 15.1399 17.1597L12.1711 16.7062C12.1053 16.6962 12.0427 16.6708 11.9885 16.6321C11.9342 16.5934 11.8896 16.5424 11.8584 16.4834C11.8272 16.4243 11.8102 16.3587 11.8087 16.2918C11.8072 16.2249 11.8213 16.1586 11.8499 16.0981L13.3099 13.0078C13.4241 12.7657 13.6108 12.5655 13.8437 12.4353C14.0766 12.305 14.3442 12.2512 14.609 12.2813L17.8663 12.6503C17.9326 12.6577 17.9962 12.6807 18.052 12.7174C18.1078 12.7541 18.1543 12.8034 18.1877 12.8614C18.2211 12.9194 18.2406 12.9845 18.2445 13.0515C18.2483 13.1184 18.2365 13.1853 18.2101 13.2468L16.962 16.1452C16.83 16.4522 16.6115 16.7138 16.3334 16.8975C16.0554 17.0812 15.7299 17.1791 15.3972 17.1791Z" fill="url(#paint9_linear_1562_13780)"/>
<defs>
<filter id="filter0_d_1562_13780" x="0" y="5.5979" width="63.9404" height="48.8513" filterUnits="userSpaceOnUse" color-interpolation-filters="sRGB">
<feFlood flood-opacity="0" result="BackgroundImageFix"/>
<feColorMatrix in="SourceAlpha" type="matrix" values="0 0 0 0 0 0 0 0 0 0 0 0 0 0 0 0 0 0 127 0" result="hardAlpha"/>
<feOffset dx="5" dy="10"/>
<feGaussianBlur stdDeviation="2"/>
<feComposite in2="hardAlpha" operator="out"/>
<feColorMatrix type="matrix" values="0 0 0 0 0 0 0 0 0 0 0 0 0 0 0 0 0 0 0.15 0"/>
<feBlend mode="normal" in2="BackgroundImageFix" result="effect1_dropShadow_1562_13780"/>
<feBlend mode="normal" in="SourceGraphic" in2="effect1_dropShadow_1562_13780" result="shape"/>
</filter>
<radialGradient id="paint0_radial_1562_13780" cx="0" cy="0" r="1" gradientUnits="userSpaceOnUse" gradientTransform="translate(37.1513 35.0936) rotate(-85.5374) scale(27.853 35.8993)">
<stop offset="0.358" stop-color="#729EB1"/>
<stop offset="0.456" stop-color="#7DA4B4"/>
<stop offset="0.808" stop-color="#9EB8BF"/>
<stop offset="1" stop-color="#ABC0C3"/>
</radialGradient>
<linearGradient id="paint1_linear_1562_13780" x1="39.5585" y1="23.1725" x2="31.0861" y2="51.5307" gradientUnits="userSpaceOnUse">
<stop stop-color="#3F9D7B"/>
<stop offset="0.386" stop-color="#43AB85"/>
<stop offset="0.854" stop-color="#4AC296"/>
<stop offset="1" stop-color="#3F9D7B"/>
</linearGradient>
<linearGradient id="paint2_linear_1562_13780" x1="63.5764" y1="46.2573" x2="7.29459" y2="26.0229" gradientUnits="userSpaceOnUse">
<stop offset="0.019" stop-color="#F2FDEB"/>
<stop offset="0.037" stop-color="#E6F9DB"/>
<stop offset="0.056" stop-color="#D8F0CA"/>
<stop offset="0.0729967" stop-color="#C5E4B3"/>
<stop offset="0.091" stop-color="#B3D89D"/>
<stop offset="0.868" stop-color="#E6F9DB"/>
<stop offset="0.901" stop-color="#D8F0CA"/>
<stop offset="0.94" stop-color="#C5E4B3"/>
<stop offset="0.972" stop-color="#B3D89D"/>
</linearGradient>
<linearGradient id="paint3_linear_1562_13780" x1="37.6668" y1="8.16545" x2="47.8912" y2="37.205" gradientUnits="userSpaceOnUse">
<stop stop-color="#8EE8CD"/>
<stop offset="0.045" stop-color="#73D9B7"/>
<stop offset="0.103" stop-color="#55C89F"/>
<stop offset="0.136" stop-color="#4AC296"/>
<stop offset="0.844" stop-color="#4AC296"/>
<stop offset="0.899" stop-color="#49BF94"/>
<stop offset="0.946" stop-color="#46B48C"/>
<stop offset="0.989" stop-color="#41A37F"/>
<stop offset="1" stop-color="#3F9D7B"/>
</linearGradient>
<linearGradient id="paint4_linear_1562_13780" x1="12.8142" y1="28.2249" x2="69.4579" y2="10.7632" gradientUnits="userSpaceOnUse">
<stop offset="0.632857" stop-color="#92DD8E"/>
<stop offset="0.791678" stop-color="#A2E99E"/>
<stop offset="0.921" stop-color="#93DC8F"/>
<stop offset="0.922" stop-color="#92DD8E"/>
<stop offset="0.939" stop-color="#A5F2A1" stop-opacity="0.65"/>
<stop offset="0.964" stop-color="#BDF7BA"/>
<stop offset="0.995" stop-color="#C0F7BD"/>
<stop offset="1" stop-color="#D7F9D5"/>
</linearGradient>
<linearGradient id="paint5_linear_1562_13780" x1="30.1817" y1="2.99512" x2="24.8511" y2="42.226" gradientUnits="userSpaceOnUse">
<stop stop-color="#496CFB"/>
<stop offset="0.002" stop-color="#4B6FFB"/>
<stop offset="0.021" stop-color="#5F8BFB"/>
<stop offset="0.042" stop-color="#6FA1FA"/>
<stop offset="0.065" stop-color="#7AB0FA"/>
<stop offset="0.091" stop-color="#81B9FA"/>
<stop offset="0.13" stop-color="#83BCFA"/>
<stop offset="0.165" stop-color="#7AB0F9"/>
<stop offset="0.236" stop-color="#6B9EF8"/>
<stop offset="0.322" stop-color="#6191F7"/>
<stop offset="0.433" stop-color="#5C89F6"/>
<stop offset="0.667" stop-color="#5A87F6"/>
<stop offset="0.741" stop-color="#5782F7"/>
<stop offset="0.824" stop-color="#4F75F9"/>
<stop offset="0.85" stop-color="#4C6FFA"/>
<stop offset="0.927" stop-color="#3453FA"/>
</linearGradient>
<linearGradient id="paint6_linear_1562_13780" x1="6.0608" y1="12.7991" x2="49.5268" y2="32.5641" gradientUnits="userSpaceOnUse">
<stop offset="0.843" stop-color="#EF8080"/>
<stop offset="1" stop-color="#F56666"/>
</linearGradient>
<linearGradient id="paint7_linear_1562_13780" x1="25.5241" y1="22.9018" x2="24.6217" y2="29.1844" gradientUnits="userSpaceOnUse">
<stop offset="0.029" stop-color="#CFEBFE"/>
<stop offset="0.076" stop-color="#E1F1FD"/>
<stop offset="0.131" stop-color="#EEF6FB"/>
<stop offset="0.179" stop-color="#F3F8FB"/>
<stop offset="0.295" stop-color="#EFF6FB"/>
<stop offset="0.415" stop-color="#E2F2FC"/>
<stop offset="0.531" stop-color="#CFEBFE"/>
<stop offset="0.6" stop-color="#C8E6FB"/>
<stop offset="0.702" stop-color="#B4DAF3"/>
<stop offset="0.824" stop-color="#93C5E6"/>
<stop offset="0.933" stop-color="#70AED8"/>
</linearGradient>
<linearGradient id="paint8_linear_1562_13780" x1="13.2817" y1="11.8792" x2="16.911" y2="17.6365" gradientUnits="userSpaceOnUse">
<stop stop-color="#F9D075"/>
<stop offset="0.183" stop-color="#F9C870"/>
<stop offset="0.459" stop-color="#FAB463"/>
<stop offset="0.793" stop-color="#FA924E"/>
<stop offset="1" stop-color="#FB793F"/>
</linearGradient>
<linearGradient id="paint9_linear_1562_13780" x1="12.3081" y1="14.3008" x2="16.9912" y2="16.6906" gradientUnits="userSpaceOnUse">
<stop stop-color="#F29E50"/>
<stop offset="0.037" stop-color="#F4AC5A"/>
<stop offset="0.109" stop-color="#F7C069"/>
<stop offset="0.18" stop-color="#F8CC72"/>
<stop offset="0.251" stop-color="#F9D075"/>
<stop offset="0.376" stop-color="#F9BF6A"/>
<stop offset="0.624" stop-color="#FA914E"/>
<stop offset="0.745" stop-color="#FB793F"/>
<stop offset="0.86" stop-color="#FA7B40"/>
<stop offset="0.921" stop-color="#F98344"/>
<stop offset="0.969" stop-color="#F5914A"/>
<stop offset="1" stop-color="#F29E50"/>
</linearGradient>
</defs>
</svg>
