<svg width="25" height="24" viewBox="0 0 25 24" fill="none" xmlns="http://www.w3.org/2000/svg">
<path d="M15 9V7.5H14.25C13.8522 7.5 13.4706 7.65804 13.1893 7.93934C12.908 8.22064 12.75 8.60218 12.75 9V15C12.75 15.3978 12.908 15.7794 13.1893 16.0607C13.4706 16.342 13.8522 16.5 14.25 16.5H15V15C15 14.6022 15.158 14.2206 15.4393 13.9393C15.7206 13.658 16.1022 13.5 16.5 13.5H21C21.3978 13.5 21.7794 13.658 22.0607 13.9393C22.342 14.2206 22.5 14.6022 22.5 15V19.5C22.5 19.8978 22.342 20.2794 22.0607 20.5607C21.7794 20.842 21.3978 21 21 21H16.5C16.1022 21 15.7206 20.842 15.4393 20.5607C15.158 20.2794 15 19.8978 15 19.5V18H14.25C13.4544 18 12.6913 17.6839 12.1287 17.1213C11.5661 16.5587 11.25 15.7956 11.25 15V12.75H8.25V13.5C8.25 13.8978 8.09196 14.2794 7.81066 14.5607C7.52936 14.842 7.14782 15 6.75 15H3.75C3.35218 15 2.97064 14.842 2.68934 14.5607C2.40804 14.2794 2.25 13.8978 2.25 13.5V10.5C2.25 10.1022 2.40804 9.72064 2.68934 9.43934C2.97064 9.15804 3.35218 9 3.75 9H6.75C7.14782 9 7.52936 9.15804 7.81066 9.43934C8.09196 9.72064 8.25 10.1022 8.25 10.5V11.25H11.25V9C11.25 8.20435 11.5661 7.44129 12.1287 6.87868C12.6913 6.31607 13.4544 6 14.25 6H15V4.5C15 4.10218 15.158 3.72064 15.4393 3.43934C15.7206 3.15804 16.1022 3 16.5 3H21C21.3978 3 21.7794 3.15804 22.0607 3.43934C22.342 3.72064 22.5 4.10218 22.5 4.5V9C22.5 9.39782 22.342 9.77936 22.0607 10.0607C21.7794 10.342 21.3978 10.5 21 10.5H16.5C16.1022 10.5 15.7206 10.342 15.4393 10.0607C15.158 9.77936 15 9.39782 15 9Z" fill="url(#paint0_linear_6759_3539)"/>
<defs>
<linearGradient id="paint0_linear_6759_3539" x1="5.73488" y1="-9.53757" x2="30.9672" y2="4.42768" gradientUnits="userSpaceOnUse">
<stop stop-color="#6EE2F5"/>
<stop offset="1" stop-color="#6454F0"/>
</linearGradient>
</defs>
</svg>
