<svg width="25" height="24" viewBox="0 0 25 24" fill="none" xmlns="http://www.w3.org/2000/svg">
<path d="M20.25 1.5H5.25001C4.8523 1.5004 4.471 1.65856 4.18978 1.93978C3.90857 2.221 3.7504 2.6023 3.75001 3V12.75C3.74833 14.2458 4.15404 15.7137 4.92359 16.9964C5.69313 18.279 6.79745 19.3278 8.11801 20.0303L12.75 22.5L17.382 20.0303C18.7026 19.3278 19.8069 18.279 20.5764 16.9964C21.346 15.7137 21.7517 14.2458 21.75 12.75V3C21.7496 2.6023 21.5914 2.221 21.3102 1.93978C21.029 1.65856 20.6477 1.5004 20.25 1.5ZM18 13.5H7.50001V12H18V13.5ZM18 9H7.50001V7.5H18V9Z" fill="url(#paint0_linear_6759_1107)"/>
<defs>
<linearGradient id="paint0_linear_6759_1107" x1="6.84767" y1="-13.1272" x2="31.7235" y2="-2.63732" gradientUnits="userSpaceOnUse">
<stop stop-color="#6EE2F5"/>
<stop offset="1" stop-color="#6454F0"/>
</linearGradient>
</defs>
</svg>
