<svg width="25" height="24" viewBox="0 0 25 24" fill="none" xmlns="http://www.w3.org/2000/svg">
<path fill-rule="evenodd" clip-rule="evenodd" d="M16.5 16C16.5 16.55 16.05 17 15.5 17C14.95 17 14.5 16.55 14.5 16V12C14.5 11.45 14.95 11 15.5 11C16.05 11 16.5 11.45 16.5 12V16ZM10.5 4.328C10.5 4.173 10.714 4 11 4H14C14.286 4 14.5 4.173 14.5 4.328V6H10.5V4.328ZM10.5 16C10.5 16.55 10.05 17 9.5 17C8.95 17 8.5 16.55 8.5 16V12C8.5 11.45 8.95 11 9.5 11C10.05 11 10.5 11.45 10.5 12V16ZM21.5 6H20.5H16.5V4.328C16.5 3.044 15.379 2 14 2H11C9.621 2 8.5 3.044 8.5 4.328V6H4.5H3.5C2.95 6 2.5 6.45 2.5 7C2.5 7.55 2.95 8 3.5 8H4.5V19C4.5 20.654 5.846 22 7.5 22H17.5C19.154 22 20.5 20.654 20.5 19V8H21.5C22.05 8 22.5 7.55 22.5 7C22.5 6.45 22.05 6 21.5 6Z" fill="white"/>
<mask id="mask0_6782_13577" style="mask-type:luminance" maskUnits="userSpaceOnUse" x="2" y="2" width="21" height="20">
<path fill-rule="evenodd" clip-rule="evenodd" d="M16.5 16C16.5 16.55 16.05 17 15.5 17C14.95 17 14.5 16.55 14.5 16V12C14.5 11.45 14.95 11 15.5 11C16.05 11 16.5 11.45 16.5 12V16ZM10.5 4.328C10.5 4.173 10.714 4 11 4H14C14.286 4 14.5 4.173 14.5 4.328V6H10.5V4.328ZM10.5 16C10.5 16.55 10.05 17 9.5 17C8.95 17 8.5 16.55 8.5 16V12C8.5 11.45 8.95 11 9.5 11C10.05 11 10.5 11.45 10.5 12V16ZM21.5 6H20.5H16.5V4.328C16.5 3.044 15.379 2 14 2H11C9.621 2 8.5 3.044 8.5 4.328V6H4.5H3.5C2.95 6 2.5 6.45 2.5 7C2.5 7.55 2.95 8 3.5 8H4.5V19C4.5 20.654 5.846 22 7.5 22H17.5C19.154 22 20.5 20.654 20.5 19V8H21.5C22.05 8 22.5 7.55 22.5 7C22.5 6.45 22.05 6 21.5 6Z" fill="white"/>
</mask>
<g mask="url(#mask0_6782_13577)">
<rect x="0.5" width="24" height="24" fill="white"/>
</g>
</svg>
