<svg width="30" height="30" viewBox="0 0 30 30" fill="none" xmlns="http://www.w3.org/2000/svg">
<path fill-rule="evenodd" clip-rule="evenodd" d="M15 17.5C14.31 17.5 13.75 18.06 13.75 18.75C13.75 19.44 14.31 20 15 20C15.69 20 16.25 19.44 16.25 18.75C16.25 18.06 15.69 17.5 15 17.5M15 22.5C12.9325 22.5 11.25 20.8175 11.25 18.75C11.25 16.6825 12.9325 15 15 15C17.0675 15 18.75 16.6825 18.75 18.75C18.75 20.8175 17.0675 22.5 15 22.5M21.25 10H12.5V7.5C12.5 6.12125 13.6212 5 15 5C16.3788 5 17.5 6.12125 17.5 7.5C17.5 8.19125 18.0588 8.75 18.75 8.75C19.4412 8.75 20 8.19125 20 7.5C20 4.7425 17.7575 2.5 15 2.5C12.2425 2.5 10 4.7425 10 7.5V10H8.75C6.6825 10 5 11.6825 5 13.75V23.75C5 25.8175 6.6825 27.5 8.75 27.5H21.25C23.3175 27.5 25 25.8175 25 23.75V13.75C25 11.6825 23.3175 10 21.25 10" fill="#6454F0"/>
<mask id="mask0_1332_9750" style="mask-type:luminance" maskUnits="userSpaceOnUse" x="5" y="2" width="20" height="26">
<path fill-rule="evenodd" clip-rule="evenodd" d="M15 17.5C14.31 17.5 13.75 18.06 13.75 18.75C13.75 19.44 14.31 20 15 20C15.69 20 16.25 19.44 16.25 18.75C16.25 18.06 15.69 17.5 15 17.5M15 22.5C12.9325 22.5 11.25 20.8175 11.25 18.75C11.25 16.6825 12.9325 15 15 15C17.0675 15 18.75 16.6825 18.75 18.75C18.75 20.8175 17.0675 22.5 15 22.5M21.25 10H12.5V7.5C12.5 6.12125 13.6212 5 15 5C16.3788 5 17.5 6.12125 17.5 7.5C17.5 8.19125 18.0588 8.75 18.75 8.75C19.4412 8.75 20 8.19125 20 7.5C20 4.7425 17.7575 2.5 15 2.5C12.2425 2.5 10 4.7425 10 7.5V10H8.75C6.6825 10 5 11.6825 5 13.75V23.75C5 25.8175 6.6825 27.5 8.75 27.5H21.25C23.3175 27.5 25 25.8175 25 23.75V13.75C25 11.6825 23.3175 10 21.25 10" fill="white"/>
</mask>
<g mask="url(#mask0_1332_9750)">
<rect width="30" height="30" fill="#6454F0"/>
</g>
</svg>
