<svg width="42" height="42" viewBox="0 0 42 42" fill="none" xmlns="http://www.w3.org/2000/svg">
<path fill-rule="evenodd" clip-rule="evenodd" d="M28.5172 16.8097L20.5232 27.3097C20.1942 27.742 19.685 27.9975 19.1425 28.001H19.1302C18.593 28.001 18.0855 27.7525 17.753 27.329L13.497 21.8917C12.902 21.1322 13.035 20.0315 13.7962 19.4365C14.5557 18.8397 15.6582 18.9727 16.2532 19.7357L19.111 23.3862L25.733 14.6905C26.3175 13.9222 27.4147 13.7717 28.1865 14.358C28.9547 14.9442 29.1035 16.0415 28.5172 16.8097ZM21.001 3.50098C11.3357 3.50098 3.50098 11.3357 3.50098 21.001C3.50098 30.6645 11.3357 38.501 21.001 38.501C30.6662 38.501 38.501 30.6645 38.501 21.001C38.501 11.3357 30.6662 3.50098 21.001 3.50098Z" fill="#27D18A"/>
<mask id="mask0_1422_11495" style="mask-type:luminance" maskUnits="userSpaceOnUse" x="3" y="3" width="36" height="36">
<path fill-rule="evenodd" clip-rule="evenodd" d="M28.5172 16.8097L20.5232 27.3097C20.1942 27.742 19.685 27.9975 19.1425 28.001H19.1302C18.593 28.001 18.0855 27.7525 17.753 27.329L13.497 21.8917C12.902 21.1322 13.035 20.0315 13.7962 19.4365C14.5557 18.8397 15.6582 18.9727 16.2532 19.7357L19.111 23.3862L25.733 14.6905C26.3175 13.9222 27.4147 13.7717 28.1865 14.358C28.9547 14.9442 29.1035 16.0415 28.5172 16.8097ZM21.001 3.50098C11.3357 3.50098 3.50098 11.3357 3.50098 21.001C3.50098 30.6645 11.3357 38.501 21.001 38.501C30.6662 38.501 38.501 30.6645 38.501 21.001C38.501 11.3357 30.6662 3.50098 21.001 3.50098Z" fill="white"/>
</mask>
<g mask="url(#mask0_1422_11495)">
<rect width="42" height="42" fill="#27D18A"/>
</g>
</svg>
