<svg width="19" height="18" viewBox="0 0 19 18" fill="none" xmlns="http://www.w3.org/2000/svg">
<path fill-rule="evenodd" clip-rule="evenodd" d="M11.5752 9.96975C11.8684 10.263 11.8684 10.737 11.5752 11.0302C11.4289 11.1765 11.2369 11.25 11.0449 11.25C10.8529 11.25 10.6609 11.1765 10.5147 11.0302L9.54492 10.0605L8.57517 11.0302C8.42892 11.1765 8.23692 11.25 8.04492 11.25C7.85292 11.25 7.66092 11.1765 7.51467 11.0302C7.22142 10.737 7.22142 10.263 7.51467 9.96975L8.48442 9L7.51467 8.03025C7.22142 7.737 7.22142 7.263 7.51467 6.96975C7.80792 6.6765 8.28192 6.6765 8.57517 6.96975L9.54492 7.9395L10.5147 6.96975C10.8079 6.6765 11.2819 6.6765 11.5752 6.96975C11.8684 7.263 11.8684 7.737 11.5752 8.03025L10.6054 9L11.5752 9.96975ZM9.54492 1.5C5.40942 1.5 2.04492 4.8645 2.04492 9C2.04492 13.1355 5.40942 16.5 9.54492 16.5C13.6804 16.5 17.0449 13.1355 17.0449 9C17.0449 4.8645 13.6804 1.5 9.54492 1.5V1.5Z" fill="#D40202"/>
<mask id="mask0_2361_17268" style="mask-type:luminance" maskUnits="userSpaceOnUse" x="2" y="1" width="16" height="16">
<path fill-rule="evenodd" clip-rule="evenodd" d="M11.5752 9.96975C11.8684 10.263 11.8684 10.737 11.5752 11.0302C11.4289 11.1765 11.2369 11.25 11.0449 11.25C10.8529 11.25 10.6609 11.1765 10.5147 11.0302L9.54492 10.0605L8.57517 11.0302C8.42892 11.1765 8.23692 11.25 8.04492 11.25C7.85292 11.25 7.66092 11.1765 7.51467 11.0302C7.22142 10.737 7.22142 10.263 7.51467 9.96975L8.48442 9L7.51467 8.03025C7.22142 7.737 7.22142 7.263 7.51467 6.96975C7.80792 6.6765 8.28192 6.6765 8.57517 6.96975L9.54492 7.9395L10.5147 6.96975C10.8079 6.6765 11.2819 6.6765 11.5752 6.96975C11.8684 7.263 11.8684 7.737 11.5752 8.03025L10.6054 9L11.5752 9.96975ZM9.54492 1.5C5.40942 1.5 2.04492 4.8645 2.04492 9C2.04492 13.1355 5.40942 16.5 9.54492 16.5C13.6804 16.5 17.0449 13.1355 17.0449 9C17.0449 4.8645 13.6804 1.5 9.54492 1.5V1.5Z" fill="white"/>
</mask>
<g mask="url(#mask0_2361_17268)">
<rect x="0.544922" width="18" height="18" fill="#D40202"/>
</g>
</svg>
