<svg width="31" height="31" viewBox="0 0 31 31" fill="none" xmlns="http://www.w3.org/2000/svg">
<path fill-rule="evenodd" clip-rule="evenodd" d="M15.5 13.625C14.4663 13.625 13.625 14.4663 13.625 15.5C13.625 16.5338 14.4663 17.375 15.5 17.375C16.5337 17.375 17.375 16.5338 17.375 15.5C17.375 14.4663 16.5337 13.625 15.5 13.625ZM15.5 19.875C13.0875 19.875 11.125 17.9125 11.125 15.5C11.125 13.0875 13.0875 11.125 15.5 11.125C17.9125 11.125 19.875 13.0875 19.875 15.5C19.875 17.9125 17.9125 19.875 15.5 19.875ZM27.835 14.8775C27.0362 13.4875 22.6325 6.52004 15.1613 6.75379C8.2525 6.93004 4.2325 13.0175 3.165 14.8775C2.945 15.2638 2.945 15.7363 3.165 16.1225C3.9525 17.4938 8.2025 24.25 15.5312 24.25C15.6325 24.25 15.735 24.2488 15.8387 24.2463C22.7475 24.07 26.7675 17.9825 27.835 16.1225C28.055 15.7363 28.055 15.2638 27.835 14.8775Z" fill="white"/>
<mask id="mask0_1332_10764" style="mask-type:luminance" maskUnits="userSpaceOnUse" x="3" y="6" width="25" height="19">
<path fill-rule="evenodd" clip-rule="evenodd" d="M15.5 13.625C14.4663 13.625 13.625 14.4663 13.625 15.5C13.625 16.5338 14.4663 17.375 15.5 17.375C16.5337 17.375 17.375 16.5338 17.375 15.5C17.375 14.4663 16.5337 13.625 15.5 13.625ZM15.5 19.875C13.0875 19.875 11.125 17.9125 11.125 15.5C11.125 13.0875 13.0875 11.125 15.5 11.125C17.9125 11.125 19.875 13.0875 19.875 15.5C19.875 17.9125 17.9125 19.875 15.5 19.875ZM27.835 14.8775C27.0362 13.4875 22.6325 6.52004 15.1613 6.75379C8.2525 6.93004 4.2325 13.0175 3.165 14.8775C2.945 15.2638 2.945 15.7363 3.165 16.1225C3.9525 17.4938 8.2025 24.25 15.5312 24.25C15.6325 24.25 15.735 24.2488 15.8387 24.2463C22.7475 24.07 26.7675 17.9825 27.835 16.1225C28.055 15.7363 28.055 15.2638 27.835 14.8775Z" fill="white"/>
</mask>
<g mask="url(#mask0_1332_10764)">
<rect x="0.5" y="0.5" width="30" height="30" fill="white"/>
</g>
</svg>
