<svg width="24" height="24" viewBox="0 0 24 24" fill="none" xmlns="http://www.w3.org/2000/svg">
<path d="M14.9162 5.90119C13.8961 6.08595 12.9992 6.82886 12.6028 7.81426C12.5489 7.95283 12.4911 8.1222 12.4796 8.18763L12.4565 8.30311H8.36861C4.46934 8.30311 4.27688 8.30696 4.12676 8.37625C3.89196 8.48402 3.78418 8.65724 3.78418 8.92669C3.78418 9.16919 3.85732 9.30006 4.07287 9.44633L4.1999 9.53486H8.32242H12.445L12.5489 9.8736C12.7914 10.6473 13.3803 11.3248 14.1309 11.6904C14.6198 11.9252 14.8661 11.9791 15.4666 11.9791C16.0671 11.9753 16.3096 11.9252 16.8023 11.6866C17.5529 11.3286 18.1264 10.6704 18.3805 9.8813L18.4882 9.53486H19.5314C20.5476 9.53486 20.5784 9.53102 20.7016 9.44633C20.894 9.31931 20.9787 9.17689 20.9979 8.96903C21.0172 8.71883 20.8979 8.50712 20.6631 8.38779C20.4975 8.30696 20.4552 8.30311 19.4852 8.30311H18.4805L18.4536 8.18763C18.4113 7.96823 18.2265 7.55251 18.0571 7.28691C17.5837 6.54786 16.8331 6.04746 15.9862 5.89734C15.5821 5.82806 15.3165 5.82806 14.9162 5.90119ZM15.8554 7.12525C16.606 7.28691 17.1757 7.89894 17.2873 8.66494C17.4759 9.97368 16.2711 11.0438 14.9854 10.7089C14.3041 10.528 13.7729 9.94673 13.6498 9.23462C13.4881 8.28386 14.1194 7.3331 15.0547 7.1291C15.3665 7.05981 15.5474 7.05981 15.8554 7.12525Z" fill="#0B0C0D"/>
<path d="M8.75739 12.06C7.73734 12.2448 6.84047 12.9877 6.444 13.9731C6.39011 14.1116 6.33237 14.281 6.32082 14.3464L6.29773 14.4619H5.28923C4.39236 14.4619 4.26918 14.4696 4.12676 14.5351C3.89196 14.6428 3.78418 14.8161 3.78418 15.0855C3.78418 15.328 3.85732 15.4589 4.07287 15.6051C4.19605 15.6898 4.22684 15.6937 5.24304 15.6937H6.28618L6.39011 16.0324C6.63261 16.8061 7.22154 17.4836 7.97214 17.8492C8.461 18.0841 8.70735 18.1379 9.30783 18.1379C9.90831 18.1341 10.1508 18.0841 10.6435 17.8454C11.3941 17.4874 11.9676 16.8292 12.2217 16.0401L12.3295 15.6937H16.452H20.5745L20.7016 15.6051C20.894 15.4781 20.9787 15.3357 20.9979 15.1278C21.0172 14.8776 20.8979 14.6659 20.6631 14.5466L20.4937 14.4619H16.4058H12.3218L12.2948 14.3464C12.2525 14.127 12.0677 13.7113 11.8984 13.4457C11.4249 12.7067 10.6743 12.2063 9.82747 12.0562C9.4233 11.9869 9.15771 11.9869 8.75739 12.06ZM9.6966 13.2841C10.4472 13.4457 11.0169 14.0578 11.1285 14.8238C11.3171 16.1325 10.1123 17.2026 8.82667 16.8677C8.14536 16.6868 7.61416 16.1055 7.49099 15.3934C7.32932 14.4427 7.9606 13.4919 8.89596 13.2879C9.20775 13.2186 9.38866 13.2186 9.6966 13.2841Z" fill="#0B0C0D"/>
</svg>
