<svg width="202" height="62" viewBox="0 0 202 62" fill="none" xmlns="http://www.w3.org/2000/svg">
<path d="M65.2866 23.2564H48.5047L45.3057 28.4033H52.9463V45.9996H57.7785V28.4033H65.2877C65.6054 28.4039 65.92 28.3379 66.2137 28.2089C66.5074 28.0799 66.7743 27.8905 66.9992 27.6515C67.2241 27.4126 67.4025 27.1287 67.5243 26.8163C67.6461 26.5038 67.7089 26.1688 67.7091 25.8304C67.7091 25.4919 67.6464 25.1567 67.5245 24.8439C67.4027 24.5312 67.2242 24.2472 66.9992 24.0081C66.7741 23.769 66.507 23.5795 66.2132 23.4505C65.9193 23.3215 65.6044 23.2555 65.2866 23.2564Z" fill="url(#paint0_linear_1422_11488)"/>
<path d="M66.2571 35.5204L74.487 46H67.9054L59.6731 35.5204L59.4743 35.2728V30.1432H65.3306C66.4217 30.1432 67.468 29.6816 68.2395 28.8598C69.011 28.0381 69.4444 26.9236 69.4444 25.7615C69.4444 24.5993 69.011 23.4848 68.2395 22.6631C67.468 21.8413 66.4217 21.3797 65.3306 21.3797H48.4453L44.5 16.109V16H65.3306C67.6846 15.9984 69.9488 16.9617 71.654 18.6902C73.3591 20.4188 74.3743 22.7799 74.4891 25.2842C74.6039 27.7885 73.8095 30.2438 72.2706 32.141C70.7316 34.0383 68.5663 35.232 66.2234 35.4746L66.2571 35.5204Z" fill="url(#paint1_linear_1422_11488)"/>
<path d="M94.9195 35.4106L93.0301 31.9846H92.2178V35.4106H90.5V26.6202H93.7161C94.3012 26.6018 94.8823 26.7244 95.4129 26.9783C95.8476 27.1891 96.2127 27.5261 96.4628 27.9474C96.6969 28.3627 96.8175 28.8351 96.8118 29.3147C96.816 29.8777 96.6441 30.4273 96.3214 30.8827C95.9605 31.3711 95.4424 31.7123 94.8593 31.8457L96.9111 35.4106H94.9195ZM92.2118 30.6636H93.6499C94.0292 30.6939 94.4047 30.5684 94.6938 30.3148C94.8126 30.1871 94.9043 30.0357 94.9633 29.87C95.0223 29.7043 95.0474 29.5279 95.0368 29.3518C95.0451 29.1815 95.0188 29.0113 94.9598 28.852C94.9008 28.6926 94.8102 28.5475 94.6938 28.4258C94.4005 28.1813 94.0267 28.0619 93.6499 28.0925H92.2118V30.6636Z" fill="url(#paint2_linear_1422_11488)"/>
<path d="M104.881 26.6201V28.0492H102.592V35.4167H100.877V28.0492H98.5938V26.6263L104.881 26.6201Z" fill="url(#paint3_linear_1422_11488)"/>
<path d="M113.176 34.9199C112.512 34.5428 111.961 33.9881 111.581 33.3149C111.196 32.6075 110.993 31.8105 110.993 31C110.993 30.1895 111.196 29.3926 111.581 28.6851C111.961 28.012 112.512 27.4573 113.176 27.0801C113.854 26.6995 114.615 26.5 115.388 26.5C116.162 26.5 116.923 26.6995 117.601 27.0801C118.262 27.4576 118.81 28.0124 119.187 28.6851C119.568 29.3939 119.768 30.1903 119.768 31C119.768 31.8097 119.568 32.6062 119.187 33.3149C118.808 33.9886 118.258 34.5436 117.595 34.9199C116.918 35.3006 116.158 35.5001 115.385 35.5001C114.613 35.5001 113.853 35.3006 113.176 34.9199ZM116.741 33.5649C117.137 33.3211 117.457 32.9654 117.661 32.5402C117.888 32.0596 118.002 31.5309 117.992 30.9969C118.004 30.4628 117.89 29.9336 117.661 29.4537C117.455 29.0319 117.136 28.6795 116.741 28.4382C116.321 28.2072 115.851 28.0863 115.375 28.0863C114.898 28.0863 114.429 28.2072 114.009 28.4382C113.61 28.6764 113.288 29.0294 113.082 29.4537C112.851 29.9328 112.736 30.4624 112.748 30.9969C112.738 31.5313 112.853 32.0604 113.082 32.5402C113.286 32.9676 113.609 33.324 114.009 33.5649C114.427 33.8019 114.897 33.9262 115.375 33.9262C115.852 33.9262 116.322 33.8019 116.741 33.5649Z" fill="url(#paint4_linear_1422_11488)"/>
<path d="M129.051 35.4107H127.333L123.441 29.3765V35.4107H121.723V26.6079H123.441L127.333 32.6544V26.6079H129.051V35.4107Z" fill="url(#paint5_linear_1422_11488)"/>
<path d="M133.144 34.0123H135.966V35.4105H131.423V26.6201H133.144V34.0123Z" fill="url(#paint6_linear_1422_11488)"/>
<path d="M139.452 26.6201V35.4105H137.734V26.6201H139.452Z" fill="url(#paint7_linear_1422_11488)"/>
<path d="M149.157 35.4107H147.436L143.546 29.3765V35.4107H141.834V26.6079H143.555L147.445 32.6544V26.6079H149.166L149.157 35.4107Z" fill="url(#paint8_linear_1422_11488)"/>
<path d="M153.245 28.0493V30.2531H156.13V31.6513H153.245V33.9816H156.5V35.4168H151.527V26.6079H156.5V28.0493H153.245Z" fill="url(#paint9_linear_1422_11488)"/>
<path d="M7.487 58.056C7.34233 58.056 7.23033 58.0163 7.151 57.937C7.07633 57.853 7.039 57.7387 7.039 57.594V53.52C7.039 53.3707 7.07867 53.2587 7.158 53.184C7.23733 53.1047 7.34933 53.065 7.494 53.065H9.181C9.72233 53.065 10.14 53.1957 10.434 53.457C10.728 53.7137 10.875 54.0753 10.875 54.542C10.875 54.8453 10.8073 55.1067 10.672 55.326C10.5413 55.5453 10.35 55.7133 10.098 55.83C9.846 55.9467 9.54033 56.005 9.181 56.005L9.244 55.9H9.475C9.66633 55.9 9.832 55.9467 9.972 56.04C10.1167 56.1333 10.2427 56.2803 10.35 56.481L10.875 57.454C10.931 57.552 10.9567 57.6477 10.952 57.741C10.9473 57.8343 10.9123 57.9113 10.847 57.972C10.7817 58.028 10.686 58.056 10.56 58.056C10.434 58.056 10.3313 58.0303 10.252 57.979C10.1727 57.923 10.1027 57.839 10.042 57.727L9.335 56.425C9.251 56.2663 9.15067 56.1613 9.034 56.11C8.922 56.054 8.77733 56.026 8.6 56.026H7.935V57.594C7.935 57.7387 7.89767 57.853 7.823 57.937C7.74833 58.0163 7.63633 58.056 7.487 58.056ZM7.935 55.361H9.027C9.349 55.361 9.59167 55.2957 9.755 55.165C9.923 55.0297 10.007 54.829 10.007 54.563C10.007 54.3017 9.923 54.1057 9.755 53.975C9.59167 53.8397 9.349 53.772 9.027 53.772H7.935V55.361ZM14.7391 58.056C14.5944 58.056 14.4824 58.0163 14.4031 57.937C14.3284 57.853 14.2911 57.7387 14.2911 57.594V53.814H12.9261C12.8048 53.814 12.7091 53.7813 12.6391 53.716C12.5738 53.646 12.5411 53.5527 12.5411 53.436C12.5411 53.3147 12.5738 53.2237 12.6391 53.163C12.7091 53.0977 12.8048 53.065 12.9261 53.065H16.5521C16.6734 53.065 16.7668 53.0977 16.8321 53.163C16.9021 53.2237 16.9371 53.3147 16.9371 53.436C16.9371 53.5527 16.9021 53.646 16.8321 53.716C16.7668 53.7813 16.6734 53.814 16.5521 53.814H15.1871V57.594C15.1871 57.7387 15.1498 57.853 15.0751 57.937C15.0004 58.0163 14.8884 58.056 14.7391 58.056ZM22.6252 58C22.4712 58 22.3522 57.9603 22.2682 57.881C22.1888 57.797 22.1492 57.678 22.1492 57.524V53.541C22.1492 53.387 22.1888 53.2703 22.2682 53.191C22.3522 53.107 22.4712 53.065 22.6252 53.065H24.3052C24.6505 53.065 24.9445 53.1163 25.1872 53.219C25.4298 53.3217 25.6142 53.4687 25.7402 53.66C25.8708 53.8513 25.9362 54.08 25.9362 54.346C25.9362 54.6447 25.8498 54.8967 25.6772 55.102C25.5045 55.3073 25.2688 55.445 24.9702 55.515V55.41C25.3155 55.4613 25.5838 55.592 25.7752 55.802C25.9665 56.012 26.0622 56.285 26.0622 56.621C26.0622 57.0597 25.9128 57.4003 25.6142 57.643C25.3202 57.881 24.9095 58 24.3822 58H22.6252ZM23.0102 57.321H24.2702C24.5875 57.321 24.8208 57.2603 24.9702 57.139C25.1195 57.013 25.1942 56.8263 25.1942 56.579C25.1942 56.327 25.1195 56.1403 24.9702 56.019C24.8208 55.8977 24.5875 55.837 24.2702 55.837H23.0102V57.321ZM23.0102 55.158H24.1512C24.4592 55.158 24.6878 55.0997 24.8372 54.983C24.9912 54.8617 25.0682 54.6843 25.0682 54.451C25.0682 54.2177 24.9912 54.0427 24.8372 53.926C24.6878 53.8047 24.4592 53.744 24.1512 53.744H23.0102V55.158ZM28.8445 58C28.6905 58 28.5715 57.9603 28.4875 57.881C28.4082 57.797 28.3685 57.678 28.3685 57.524V53.541C28.3685 53.387 28.4082 53.2703 28.4875 53.191C28.5715 53.107 28.6905 53.065 28.8445 53.065H31.3435C31.4602 53.065 31.5488 53.0953 31.6095 53.156C31.6748 53.2167 31.7075 53.303 31.7075 53.415C31.7075 53.5317 31.6748 53.6227 31.6095 53.688C31.5488 53.7487 31.4602 53.779 31.3435 53.779H29.2295V55.137H31.1895C31.3108 55.137 31.4018 55.1673 31.4625 55.228C31.5232 55.2887 31.5535 55.3773 31.5535 55.494C31.5535 55.6107 31.5232 55.6993 31.4625 55.76C31.4018 55.8207 31.3108 55.851 31.1895 55.851H29.2295V57.286H31.3435C31.4602 57.286 31.5488 57.3163 31.6095 57.377C31.6748 57.4377 31.7075 57.5263 31.7075 57.643C31.7075 57.7597 31.6748 57.8483 31.6095 57.909C31.5488 57.9697 31.4602 58 31.3435 58H28.8445ZM34.3933 58.056C34.2486 58.056 34.1366 58.0163 34.0573 57.937C33.9826 57.853 33.9453 57.7387 33.9453 57.594V53.52C33.9453 53.3707 33.9849 53.2587 34.0643 53.184C34.1436 53.1047 34.2556 53.065 34.4003 53.065H36.0873C36.6286 53.065 37.0463 53.1957 37.3403 53.457C37.6343 53.7137 37.7812 54.0753 37.7812 54.542C37.7812 54.8453 37.7136 55.1067 37.5783 55.326C37.4476 55.5453 37.2563 55.7133 37.0042 55.83C36.7523 55.9467 36.4466 56.005 36.0873 56.005L36.1503 55.9H36.3813C36.5726 55.9 36.7383 55.9467 36.8783 56.04C37.0229 56.1333 37.1489 56.2803 37.2563 56.481L37.7812 57.454C37.8373 57.552 37.8629 57.6477 37.8583 57.741C37.8536 57.8343 37.8186 57.9113 37.7533 57.972C37.6879 58.028 37.5923 58.056 37.4663 58.056C37.3403 58.056 37.2376 58.0303 37.1583 57.979C37.0789 57.923 37.0089 57.839 36.9483 57.727L36.2413 56.425C36.1573 56.2663 36.0569 56.1613 35.9403 56.11C35.8283 56.054 35.6836 56.026 35.5063 56.026H34.8413V57.594C34.8413 57.7387 34.8039 57.853 34.7293 57.937C34.6546 58.0163 34.5426 58.056 34.3933 58.056ZM34.8413 55.361H35.9333C36.2553 55.361 36.4979 55.2957 36.6613 55.165C36.8293 55.0297 36.9133 54.829 36.9133 54.563C36.9133 54.3017 36.8293 54.1057 36.6613 53.975C36.4979 53.8397 36.2553 53.772 35.9333 53.772H34.8413V55.361ZM40.5921 58.056C40.4474 58.056 40.3354 58.0163 40.2561 57.937C40.1814 57.853 40.1441 57.7387 40.1441 57.594V53.464C40.1441 53.3147 40.1814 53.2027 40.2561 53.128C40.3354 53.0487 40.4474 53.009 40.5921 53.009C40.7367 53.009 40.8464 53.0487 40.9211 53.128C41.0004 53.2027 41.0401 53.3147 41.0401 53.464V55.249H41.0541L43.0631 53.233C43.1377 53.1583 43.2124 53.1023 43.2871 53.065C43.3617 53.0277 43.4457 53.009 43.5391 53.009C43.6744 53.009 43.7701 53.044 43.8261 53.114C43.8867 53.184 43.9101 53.2657 43.8961 53.359C43.8867 53.4523 43.8424 53.5387 43.7631 53.618L41.7191 55.641L41.7261 55.235L43.8611 57.405C43.9591 57.4983 44.0104 57.5963 44.0151 57.699C44.0197 57.8017 43.9871 57.888 43.9171 57.958C43.8517 58.0233 43.7537 58.056 43.6231 58.056C43.5111 58.056 43.4201 58.0327 43.3501 57.986C43.2847 57.9393 43.2077 57.8717 43.1191 57.783L41.0541 55.718H41.0401V57.594C41.0401 57.7387 41.0027 57.853 40.9281 57.937C40.8534 58.0163 40.7414 58.056 40.5921 58.056ZM48.182 58.07C47.8413 58.07 47.5403 58.0257 47.279 57.937C47.0223 57.8483 46.8053 57.7177 46.628 57.545C46.4507 57.3677 46.3177 57.1483 46.229 56.887C46.1403 56.6257 46.096 56.3223 46.096 55.977V53.464C46.096 53.31 46.1333 53.1957 46.208 53.121C46.2873 53.0463 46.3993 53.009 46.544 53.009C46.6887 53.009 46.7983 53.0463 46.873 53.121C46.9523 53.1957 46.992 53.31 46.992 53.464V55.97C46.992 56.4133 47.0923 56.747 47.293 56.971C47.4983 57.1903 47.7947 57.3 48.182 57.3C48.5693 57.3 48.8633 57.1903 49.064 56.971C49.2647 56.747 49.365 56.4133 49.365 55.97V53.464C49.365 53.31 49.4023 53.1957 49.477 53.121C49.5563 53.0463 49.6683 53.009 49.813 53.009C49.953 53.009 50.0603 53.0463 50.135 53.121C50.2143 53.1957 50.254 53.31 50.254 53.464V55.977C50.254 56.4343 50.1747 56.8193 50.016 57.132C49.862 57.4447 49.631 57.6803 49.323 57.839C49.015 57.993 48.6347 58.07 48.182 58.07ZM52.7138 58.056C52.6018 58.056 52.5108 58.0303 52.4408 57.979C52.3754 57.9277 52.3358 57.86 52.3218 57.776C52.3078 57.6873 52.3241 57.5893 52.3708 57.482L54.2188 53.387C54.2794 53.2517 54.3518 53.156 54.4358 53.1C54.5244 53.0393 54.6248 53.009 54.7368 53.009C54.8441 53.009 54.9398 53.0393 55.0238 53.1C55.1124 53.156 55.1871 53.2517 55.2478 53.387L57.1028 57.482C57.1541 57.5893 57.1728 57.6873 57.1588 57.776C57.1448 57.8647 57.1051 57.9347 57.0398 57.986C56.9744 58.0327 56.8881 58.056 56.7808 58.056C56.6501 58.056 56.5474 58.0257 56.4728 57.965C56.4028 57.8997 56.3398 57.8017 56.2838 57.671L55.8288 56.614L56.2068 56.859H53.2528L53.6308 56.614L53.1828 57.671C53.1221 57.8063 53.0591 57.9043 52.9938 57.965C52.9284 58.0257 52.8351 58.056 52.7138 58.056ZM54.7228 54.038L53.7428 56.369L53.5608 56.145H55.8988L55.7238 56.369L54.7368 54.038H54.7228ZM59.7288 58C59.5841 58 59.4721 57.9603 59.3928 57.881C59.3134 57.797 59.2738 57.6827 59.2738 57.538V53.499C59.2738 53.3497 59.3111 53.2377 59.3858 53.163C59.4651 53.0837 59.5771 53.044 59.7218 53.044C59.8664 53.044 59.9761 53.0837 60.0508 53.163C60.1301 53.2377 60.1698 53.3497 60.1698 53.499V57.237H62.1998C62.3258 57.237 62.4214 57.2697 62.4868 57.335C62.5568 57.4003 62.5918 57.4937 62.5918 57.615C62.5918 57.7363 62.5568 57.832 62.4868 57.902C62.4214 57.9673 62.3258 58 62.1998 58H59.7288ZM65.0524 58.056C64.9078 58.056 64.7958 58.0163 64.7164 57.937C64.6418 57.853 64.6044 57.7387 64.6044 57.594V53.471C64.6044 53.3217 64.6418 53.2073 64.7164 53.128C64.7958 53.0487 64.9078 53.009 65.0524 53.009C65.1971 53.009 65.3068 53.0487 65.3814 53.128C65.4608 53.2073 65.5004 53.3217 65.5004 53.471V57.594C65.5004 57.7387 65.4631 57.853 65.3884 57.937C65.3138 58.0163 65.2018 58.056 65.0524 58.056ZM69.618 58.056C69.4734 58.056 69.3614 58.0163 69.282 57.937C69.2074 57.853 69.17 57.7387 69.17 57.594V53.814H67.805C67.6837 53.814 67.588 53.7813 67.518 53.716C67.4527 53.646 67.42 53.5527 67.42 53.436C67.42 53.3147 67.4527 53.2237 67.518 53.163C67.588 53.0977 67.6837 53.065 67.805 53.065H71.431C71.5524 53.065 71.6457 53.0977 71.711 53.163C71.781 53.2237 71.816 53.3147 71.816 53.436C71.816 53.5527 71.781 53.646 71.711 53.716C71.6457 53.7813 71.5524 53.814 71.431 53.814H70.066V57.594C70.066 57.7387 70.0287 57.853 69.954 57.937C69.8794 58.0163 69.7674 58.056 69.618 58.056ZM73.2298 58.056C73.1178 58.056 73.0268 58.0303 72.9568 57.979C72.8915 57.9277 72.8518 57.86 72.8378 57.776C72.8238 57.6873 72.8401 57.5893 72.8868 57.482L74.7348 53.387C74.7955 53.2517 74.8678 53.156 74.9518 53.1C75.0405 53.0393 75.1408 53.009 75.2528 53.009C75.3601 53.009 75.4558 53.0393 75.5398 53.1C75.6285 53.156 75.7031 53.2517 75.7638 53.387L77.6188 57.482C77.6701 57.5893 77.6888 57.6873 77.6748 57.776C77.6608 57.8647 77.6211 57.9347 77.5558 57.986C77.4905 58.0327 77.4041 58.056 77.2968 58.056C77.1661 58.056 77.0635 58.0257 76.9888 57.965C76.9188 57.8997 76.8558 57.8017 76.7998 57.671L76.3448 56.614L76.7228 56.859H73.7688L74.1468 56.614L73.6988 57.671C73.6381 57.8063 73.5751 57.9043 73.5098 57.965C73.4445 58.0257 73.3511 58.056 73.2298 58.056ZM75.2388 54.038L74.2588 56.369L74.0768 56.145H76.4148L76.2398 56.369L75.2528 54.038H75.2388ZM81.4361 58.07C81.2308 58.07 81.0254 58.0537 80.8201 58.021C80.6148 57.993 80.4211 57.9487 80.2391 57.888C80.0571 57.8227 79.8938 57.7433 79.7491 57.65C79.6651 57.594 79.6068 57.5263 79.5741 57.447C79.5414 57.3677 79.5298 57.2907 79.5391 57.216C79.5531 57.1367 79.5834 57.069 79.6301 57.013C79.6814 56.9523 79.7444 56.915 79.8191 56.901C79.8938 56.887 79.9754 56.908 80.0641 56.964C80.2694 57.0853 80.4864 57.174 80.7151 57.23C80.9438 57.286 81.1841 57.314 81.4361 57.314C81.8048 57.314 82.0731 57.2533 82.2411 57.132C82.4091 57.006 82.4931 56.845 82.4931 56.649C82.4931 56.4857 82.4324 56.3573 82.3111 56.264C82.1944 56.1707 81.9914 56.0937 81.7021 56.033L80.9321 55.872C80.4888 55.7787 80.1574 55.6223 79.9381 55.403C79.7234 55.179 79.6161 54.885 79.6161 54.521C79.6161 54.2923 79.6628 54.0847 79.7561 53.898C79.8494 53.7113 79.9801 53.5503 80.1481 53.415C80.3208 53.2797 80.5238 53.177 80.7571 53.107C80.9951 53.0323 81.2564 52.995 81.5411 52.995C81.8211 52.995 82.0871 53.03 82.3391 53.1C82.5911 53.17 82.8174 53.2727 83.0181 53.408C83.0928 53.4593 83.1418 53.5223 83.1651 53.597C83.1931 53.6717 83.2001 53.7463 83.1861 53.821C83.1721 53.891 83.1394 53.9517 83.0881 54.003C83.0368 54.0543 82.9714 54.0847 82.8921 54.094C82.8174 54.1033 82.7311 54.08 82.6331 54.024C82.4604 53.926 82.2854 53.856 82.1081 53.814C81.9308 53.772 81.7394 53.751 81.5341 53.751C81.3194 53.751 81.1351 53.7813 80.9811 53.842C80.8271 53.9027 80.7081 53.989 80.6241 54.101C80.5448 54.2083 80.5051 54.3367 80.5051 54.486C80.5051 54.654 80.5611 54.7893 80.6731 54.892C80.7851 54.99 80.9764 55.067 81.2471 55.123L82.0101 55.284C82.4721 55.382 82.8151 55.536 83.0391 55.746C83.2678 55.956 83.3821 56.236 83.3821 56.586C83.3821 56.81 83.3354 57.013 83.2421 57.195C83.1534 57.377 83.0228 57.5333 82.8501 57.664C82.6821 57.7947 82.4791 57.895 82.2411 57.965C82.0031 58.035 81.7348 58.07 81.4361 58.07ZM85.9307 58.749C85.8701 58.8237 85.8047 58.8657 85.7347 58.875C85.6694 58.889 85.6111 58.8773 85.5597 58.84C85.5084 58.8027 85.4804 58.749 85.4757 58.679C85.4711 58.6137 85.5014 58.5413 85.5667 58.462C85.6601 58.3453 85.7231 58.2287 85.7557 58.112C85.7884 57.9953 85.8047 57.8903 85.8047 57.797L85.8397 58.035C85.6764 58.035 85.5434 57.9883 85.4407 57.895C85.3427 57.797 85.2937 57.6687 85.2937 57.51C85.2937 57.3607 85.3404 57.2393 85.4337 57.146C85.5271 57.048 85.6531 56.999 85.8117 56.999C85.9751 56.999 86.1034 57.055 86.1967 57.167C86.2901 57.2743 86.3367 57.4307 86.3367 57.636C86.3367 57.748 86.3251 57.8647 86.3017 57.986C86.2831 58.1027 86.2434 58.224 86.1827 58.35C86.1267 58.4807 86.0427 58.6137 85.9307 58.749ZM92.3675 58.056C92.2228 58.056 92.1108 58.0163 92.0315 57.937C91.9568 57.853 91.9195 57.7387 91.9195 57.594V53.52C91.9195 53.3707 91.9591 53.2587 92.0385 53.184C92.1178 53.1047 92.2298 53.065 92.3745 53.065H94.0615C94.6028 53.065 95.0205 53.2003 95.3145 53.471C95.6085 53.7417 95.7555 54.1197 95.7555 54.605C95.7555 55.0903 95.6085 55.4707 95.3145 55.746C95.0205 56.0167 94.6028 56.152 94.0615 56.152H92.8155V57.594C92.8155 57.7387 92.7781 57.853 92.7035 57.937C92.6288 58.0163 92.5168 58.056 92.3675 58.056ZM92.8155 55.445H93.9215C94.2388 55.445 94.4791 55.375 94.6425 55.235C94.8058 55.0903 94.8875 54.8803 94.8875 54.605C94.8875 54.3297 94.8058 54.122 94.6425 53.982C94.4791 53.842 94.2388 53.772 93.9215 53.772H92.8155V55.445ZM98.3619 58C98.2079 58 98.0889 57.9603 98.0049 57.881C97.9255 57.797 97.8859 57.678 97.8859 57.524V53.541C97.8859 53.387 97.9255 53.2703 98.0049 53.191C98.0889 53.107 98.2079 53.065 98.3619 53.065H100.861C100.978 53.065 101.066 53.0953 101.127 53.156C101.192 53.2167 101.225 53.303 101.225 53.415C101.225 53.5317 101.192 53.6227 101.127 53.688C101.066 53.7487 100.978 53.779 100.861 53.779H98.7469V55.137H100.707C100.828 55.137 100.919 55.1673 100.98 55.228C101.041 55.2887 101.071 55.3773 101.071 55.494C101.071 55.6107 101.041 55.6993 100.98 55.76C100.919 55.8207 100.828 55.851 100.707 55.851H98.7469V57.286H100.861C100.978 57.286 101.066 57.3163 101.127 57.377C101.192 57.4377 101.225 57.5263 101.225 57.643C101.225 57.7597 101.192 57.8483 101.127 57.909C101.066 57.9697 100.978 58 100.861 58H98.3619ZM103.883 58.056C103.747 58.056 103.642 58.0187 103.568 57.944C103.498 57.8693 103.463 57.762 103.463 57.622V53.457C103.463 53.3123 103.498 53.2027 103.568 53.128C103.642 53.0487 103.738 53.009 103.855 53.009C103.962 53.009 104.041 53.03 104.093 53.072C104.149 53.1093 104.214 53.1747 104.289 53.268L106.97 56.747H106.788V53.436C106.788 53.3007 106.823 53.1957 106.893 53.121C106.967 53.0463 107.072 53.009 107.208 53.009C107.343 53.009 107.446 53.0463 107.516 53.121C107.586 53.1957 107.621 53.3007 107.621 53.436V57.636C107.621 57.7667 107.588 57.8693 107.523 57.944C107.457 58.0187 107.369 58.056 107.257 58.056C107.149 58.056 107.063 58.035 106.998 57.993C106.937 57.951 106.869 57.8833 106.795 57.79L104.121 54.311H104.296V57.622C104.296 57.762 104.261 57.8693 104.191 57.944C104.121 58.0187 104.018 58.056 103.883 58.056ZM112.472 58.07C111.926 58.07 111.464 57.9673 111.086 57.762C110.713 57.5567 110.428 57.265 110.232 56.887C110.036 56.509 109.938 56.061 109.938 55.543C109.938 55.151 109.994 54.7987 110.106 54.486C110.223 54.1733 110.388 53.9073 110.603 53.688C110.822 53.464 111.088 53.2937 111.401 53.177C111.714 53.0557 112.068 52.995 112.465 52.995C112.726 52.995 112.988 53.0277 113.249 53.093C113.515 53.1537 113.765 53.2587 113.998 53.408C114.077 53.4593 114.129 53.5223 114.152 53.597C114.18 53.6717 114.185 53.7487 114.166 53.828C114.147 53.9027 114.112 53.968 114.061 54.024C114.01 54.08 113.944 54.115 113.865 54.129C113.79 54.143 113.706 54.1243 113.613 54.073C113.436 53.9703 113.256 53.8957 113.074 53.849C112.892 53.8023 112.689 53.779 112.465 53.779C112.12 53.779 111.828 53.849 111.59 53.989C111.352 54.1243 111.172 54.3227 111.051 54.584C110.934 54.8453 110.876 55.165 110.876 55.543C110.876 56.117 111.014 56.5533 111.289 56.852C111.564 57.1507 111.973 57.3 112.514 57.3C112.701 57.3 112.89 57.2813 113.081 57.244C113.272 57.2067 113.459 57.1553 113.641 57.09L113.466 57.489V55.998H112.696C112.579 55.998 112.488 55.9677 112.423 55.907C112.362 55.8463 112.332 55.7647 112.332 55.662C112.332 55.5547 112.362 55.473 112.423 55.417C112.488 55.361 112.579 55.333 112.696 55.333H113.851C113.968 55.333 114.056 55.3657 114.117 55.431C114.182 55.4917 114.215 55.5803 114.215 55.697V57.398C114.215 57.5007 114.194 57.587 114.152 57.657C114.115 57.727 114.052 57.7783 113.963 57.811C113.758 57.8857 113.522 57.9487 113.256 58C112.99 58.0467 112.729 58.07 112.472 58.07ZM118.704 58.07C118.364 58.07 118.063 58.0257 117.801 57.937C117.545 57.8483 117.328 57.7177 117.15 57.545C116.973 57.3677 116.84 57.1483 116.751 56.887C116.663 56.6257 116.618 56.3223 116.618 55.977V53.464C116.618 53.31 116.656 53.1957 116.73 53.121C116.81 53.0463 116.922 53.009 117.066 53.009C117.211 53.009 117.321 53.0463 117.395 53.121C117.475 53.1957 117.514 53.31 117.514 53.464V55.97C117.514 56.4133 117.615 56.747 117.815 56.971C118.021 57.1903 118.317 57.3 118.704 57.3C119.092 57.3 119.386 57.1903 119.586 56.971C119.787 56.747 119.887 56.4133 119.887 55.97V53.464C119.887 53.31 119.925 53.1957 119.999 53.121C120.079 53.0463 120.191 53.009 120.335 53.009C120.475 53.009 120.583 53.0463 120.657 53.121C120.737 53.1957 120.776 53.31 120.776 53.464V55.977C120.776 56.4343 120.697 56.8193 120.538 57.132C120.384 57.4447 120.153 57.6803 119.845 57.839C119.537 57.993 119.157 58.07 118.704 58.07ZM123.669 58.056C123.525 58.056 123.413 58.0163 123.333 57.937C123.259 57.853 123.221 57.7387 123.221 57.594V53.52C123.221 53.3707 123.261 53.2587 123.34 53.184C123.42 53.1047 123.532 53.065 123.676 53.065H125.363C125.905 53.065 126.322 53.1957 126.616 53.457C126.91 53.7137 127.057 54.0753 127.057 54.542C127.057 54.8453 126.99 55.1067 126.854 55.326C126.724 55.5453 126.532 55.7133 126.28 55.83C126.028 55.9467 125.723 56.005 125.363 56.005L125.426 55.9H125.657C125.849 55.9 126.014 55.9467 126.154 56.04C126.299 56.1333 126.425 56.2803 126.532 56.481L127.057 57.454C127.113 57.552 127.139 57.6477 127.134 57.741C127.13 57.8343 127.095 57.9113 127.029 57.972C126.964 58.028 126.868 58.056 126.742 58.056C126.616 58.056 126.514 58.0303 126.434 57.979C126.355 57.923 126.285 57.839 126.224 57.727L125.517 56.425C125.433 56.2663 125.333 56.1613 125.216 56.11C125.104 56.054 124.96 56.026 124.782 56.026H124.117V57.594C124.117 57.7387 124.08 57.853 124.005 57.937C123.931 58.0163 123.819 58.056 123.669 58.056ZM124.117 55.361H125.209C125.531 55.361 125.774 55.2957 125.937 55.165C126.105 55.0297 126.189 54.829 126.189 54.563C126.189 54.3017 126.105 54.1057 125.937 53.975C125.774 53.8397 125.531 53.772 125.209 53.772H124.117V55.361ZM131.471 58.07C131.13 58.07 130.829 58.0257 130.568 57.937C130.311 57.8483 130.094 57.7177 129.917 57.545C129.74 57.3677 129.607 57.1483 129.518 56.887C129.429 56.6257 129.385 56.3223 129.385 55.977V53.464C129.385 53.31 129.422 53.1957 129.497 53.121C129.576 53.0463 129.688 53.009 129.833 53.009C129.978 53.009 130.087 53.0463 130.162 53.121C130.241 53.1957 130.281 53.31 130.281 53.464V55.97C130.281 56.4133 130.381 56.747 130.582 56.971C130.787 57.1903 131.084 57.3 131.471 57.3C131.858 57.3 132.152 57.1903 132.353 56.971C132.554 56.747 132.654 56.4133 132.654 55.97V53.464C132.654 53.31 132.691 53.1957 132.766 53.121C132.845 53.0463 132.957 53.009 133.102 53.009C133.242 53.009 133.349 53.0463 133.424 53.121C133.503 53.1957 133.543 53.31 133.543 53.464V55.977C133.543 56.4343 133.464 56.8193 133.305 57.132C133.151 57.4447 132.92 57.6803 132.612 57.839C132.304 57.993 131.924 58.07 131.471 58.07ZM137.689 58.07C137.484 58.07 137.278 58.0537 137.073 58.021C136.868 57.993 136.674 57.9487 136.492 57.888C136.31 57.8227 136.147 57.7433 136.002 57.65C135.918 57.594 135.86 57.5263 135.827 57.447C135.794 57.3677 135.783 57.2907 135.792 57.216C135.806 57.1367 135.836 57.069 135.883 57.013C135.934 56.9523 135.997 56.915 136.072 56.901C136.147 56.887 136.228 56.908 136.317 56.964C136.522 57.0853 136.739 57.174 136.968 57.23C137.197 57.286 137.437 57.314 137.689 57.314C138.058 57.314 138.326 57.2533 138.494 57.132C138.662 57.006 138.746 56.845 138.746 56.649C138.746 56.4857 138.685 56.3573 138.564 56.264C138.447 56.1707 138.244 56.0937 137.955 56.033L137.185 55.872C136.742 55.7787 136.41 55.6223 136.191 55.403C135.976 55.179 135.869 54.885 135.869 54.521C135.869 54.2923 135.916 54.0847 136.009 53.898C136.102 53.7113 136.233 53.5503 136.401 53.415C136.574 53.2797 136.777 53.177 137.01 53.107C137.248 53.0323 137.509 52.995 137.794 52.995C138.074 52.995 138.34 53.03 138.592 53.1C138.844 53.17 139.07 53.2727 139.271 53.408C139.346 53.4593 139.395 53.5223 139.418 53.597C139.446 53.6717 139.453 53.7463 139.439 53.821C139.425 53.891 139.392 53.9517 139.341 54.003C139.29 54.0543 139.224 54.0847 139.145 54.094C139.07 54.1033 138.984 54.08 138.886 54.024C138.713 53.926 138.538 53.856 138.361 53.814C138.184 53.772 137.992 53.751 137.787 53.751C137.572 53.751 137.388 53.7813 137.234 53.842C137.08 53.9027 136.961 53.989 136.877 54.101C136.798 54.2083 136.758 54.3367 136.758 54.486C136.758 54.654 136.814 54.7893 136.926 54.892C137.038 54.99 137.229 55.067 137.5 55.123L138.263 55.284C138.725 55.382 139.068 55.536 139.292 55.746C139.521 55.956 139.635 56.236 139.635 56.586C139.635 56.81 139.588 57.013 139.495 57.195C139.406 57.377 139.276 57.5333 139.103 57.664C138.935 57.7947 138.732 57.895 138.494 57.965C138.256 58.035 137.988 58.07 137.689 58.07ZM145.58 58C145.426 58 145.307 57.9603 145.223 57.881C145.144 57.797 145.104 57.678 145.104 57.524V53.541C145.104 53.387 145.144 53.2703 145.223 53.191C145.307 53.107 145.426 53.065 145.58 53.065H147.26C147.606 53.065 147.9 53.1163 148.142 53.219C148.385 53.3217 148.569 53.4687 148.695 53.66C148.826 53.8513 148.891 54.08 148.891 54.346C148.891 54.6447 148.805 54.8967 148.632 55.102C148.46 55.3073 148.224 55.445 147.925 55.515V55.41C148.271 55.4613 148.539 55.592 148.73 55.802C148.922 56.012 149.017 56.285 149.017 56.621C149.017 57.0597 148.868 57.4003 148.569 57.643C148.275 57.881 147.865 58 147.337 58H145.58ZM145.965 57.321H147.225C147.543 57.321 147.776 57.2603 147.925 57.139C148.075 57.013 148.149 56.8263 148.149 56.579C148.149 56.327 148.075 56.1403 147.925 56.019C147.776 55.8977 147.543 55.837 147.225 55.837H145.965V57.321ZM145.965 55.158H147.106C147.414 55.158 147.643 55.0997 147.792 54.983C147.946 54.8617 148.023 54.6843 148.023 54.451C148.023 54.2177 147.946 54.0427 147.792 53.926C147.643 53.8047 147.414 53.744 147.106 53.744H145.965V55.158ZM151.8 58C151.646 58 151.527 57.9603 151.443 57.881C151.363 57.797 151.324 57.678 151.324 57.524V53.541C151.324 53.387 151.363 53.2703 151.443 53.191C151.527 53.107 151.646 53.065 151.8 53.065H154.299C154.415 53.065 154.504 53.0953 154.565 53.156C154.63 53.2167 154.663 53.303 154.663 53.415C154.663 53.5317 154.63 53.6227 154.565 53.688C154.504 53.7487 154.415 53.779 154.299 53.779H152.185V55.137H154.145C154.266 55.137 154.357 55.1673 154.418 55.228C154.478 55.2887 154.509 55.3773 154.509 55.494C154.509 55.6107 154.478 55.6993 154.418 55.76C154.357 55.8207 154.266 55.851 154.145 55.851H152.185V57.286H154.299C154.415 57.286 154.504 57.3163 154.565 57.377C154.63 57.4377 154.663 57.5263 154.663 57.643C154.663 57.7597 154.63 57.8483 154.565 57.909C154.504 57.9697 154.415 58 154.299 58H151.8ZM157.349 58.056C157.204 58.056 157.092 58.0163 157.013 57.937C156.938 57.853 156.901 57.7387 156.901 57.594V53.52C156.901 53.3707 156.94 53.2587 157.02 53.184C157.099 53.1047 157.211 53.065 157.356 53.065H159.043C159.584 53.065 160.002 53.1957 160.296 53.457C160.59 53.7137 160.737 54.0753 160.737 54.542C160.737 54.8453 160.669 55.1067 160.534 55.326C160.403 55.5453 160.212 55.7133 159.96 55.83C159.708 55.9467 159.402 56.005 159.043 56.005L159.106 55.9H159.337C159.528 55.9 159.694 55.9467 159.834 56.04C159.978 56.1333 160.104 56.2803 160.212 56.481L160.737 57.454C160.793 57.552 160.818 57.6477 160.814 57.741C160.809 57.8343 160.774 57.9113 160.709 57.972C160.643 58.028 160.548 58.056 160.422 58.056C160.296 58.056 160.193 58.0303 160.114 57.979C160.034 57.923 159.964 57.839 159.904 57.727L159.197 56.425C159.113 56.2663 159.012 56.1613 158.896 56.11C158.784 56.054 158.639 56.026 158.462 56.026H157.797V57.594C157.797 57.7387 157.759 57.853 157.685 57.937C157.61 58.0163 157.498 58.056 157.349 58.056ZM157.797 55.361H158.889C159.211 55.361 159.453 55.2957 159.617 55.165C159.785 55.0297 159.869 54.829 159.869 54.563C159.869 54.3017 159.785 54.1057 159.617 53.975C159.453 53.8397 159.211 53.772 158.889 53.772H157.797V55.361ZM163.547 58.056C163.403 58.056 163.291 58.0163 163.211 57.937C163.137 57.853 163.099 57.7387 163.099 57.594V53.464C163.099 53.3147 163.137 53.2027 163.211 53.128C163.291 53.0487 163.403 53.009 163.547 53.009C163.692 53.009 163.802 53.0487 163.876 53.128C163.956 53.2027 163.995 53.3147 163.995 53.464V55.249H164.009L166.018 53.233C166.093 53.1583 166.168 53.1023 166.242 53.065C166.317 53.0277 166.401 53.009 166.494 53.009C166.63 53.009 166.725 53.044 166.781 53.114C166.842 53.184 166.865 53.2657 166.851 53.359C166.842 53.4523 166.798 53.5387 166.718 53.618L164.674 55.641L164.681 55.235L166.816 57.405C166.914 57.4983 166.966 57.5963 166.97 57.699C166.975 57.8017 166.942 57.888 166.872 57.958C166.807 58.0233 166.709 58.056 166.578 58.056C166.466 58.056 166.375 58.0327 166.305 57.986C166.24 57.9393 166.163 57.8717 166.074 57.783L164.009 55.718H163.995V57.594C163.995 57.7387 163.958 57.853 163.883 57.937C163.809 58.0163 163.697 58.056 163.547 58.056ZM169.631 58C169.477 58 169.358 57.9603 169.274 57.881C169.194 57.797 169.155 57.678 169.155 57.524V53.541C169.155 53.387 169.194 53.2703 169.274 53.191C169.358 53.107 169.477 53.065 169.631 53.065H172.13C172.246 53.065 172.335 53.0953 172.396 53.156C172.461 53.2167 172.494 53.303 172.494 53.415C172.494 53.5317 172.461 53.6227 172.396 53.688C172.335 53.7487 172.246 53.779 172.13 53.779H170.016V55.137H171.976C172.097 55.137 172.188 55.1673 172.249 55.228C172.309 55.2887 172.34 55.3773 172.34 55.494C172.34 55.6107 172.309 55.6993 172.249 55.76C172.188 55.8207 172.097 55.851 171.976 55.851H170.016V57.286H172.13C172.246 57.286 172.335 57.3163 172.396 57.377C172.461 57.4377 172.494 57.5263 172.494 57.643C172.494 57.7597 172.461 57.8483 172.396 57.909C172.335 57.9697 172.246 58 172.13 58H169.631ZM175.186 58C175.042 58 174.93 57.9603 174.85 57.881C174.771 57.797 174.731 57.6827 174.731 57.538V53.499C174.731 53.3497 174.769 53.2377 174.843 53.163C174.923 53.0837 175.035 53.044 175.179 53.044C175.324 53.044 175.434 53.0837 175.508 53.163C175.588 53.2377 175.627 53.3497 175.627 53.499V57.237H177.657C177.783 57.237 177.879 57.2697 177.944 57.335C178.014 57.4003 178.049 57.4937 178.049 57.615C178.049 57.7363 178.014 57.832 177.944 57.902C177.879 57.9673 177.783 58 177.657 58H175.186ZM180.002 58.056C179.89 58.056 179.799 58.0303 179.729 57.979C179.663 57.9277 179.624 57.86 179.61 57.776C179.596 57.6873 179.612 57.5893 179.659 57.482L181.507 53.387C181.567 53.2517 181.64 53.156 181.724 53.1C181.812 53.0393 181.913 53.009 182.025 53.009C182.132 53.009 182.228 53.0393 182.312 53.1C182.4 53.156 182.475 53.2517 182.536 53.387L184.391 57.482C184.442 57.5893 184.461 57.6873 184.447 57.776C184.433 57.8647 184.393 57.9347 184.328 57.986C184.262 58.0327 184.176 58.056 184.069 58.056C183.938 58.056 183.835 58.0257 183.761 57.965C183.691 57.8997 183.628 57.8017 183.572 57.671L183.117 56.614L183.495 56.859H180.541L180.919 56.614L180.471 57.671C180.41 57.8063 180.347 57.9043 180.282 57.965C180.216 58.0257 180.123 58.056 180.002 58.056ZM182.011 54.038L181.031 56.369L180.849 56.145H183.187L183.012 56.369L182.025 54.038H182.011ZM188.208 58.07C188.003 58.07 187.797 58.0537 187.592 58.021C187.387 57.993 187.193 57.9487 187.011 57.888C186.829 57.8227 186.666 57.7433 186.521 57.65C186.437 57.594 186.379 57.5263 186.346 57.447C186.313 57.3677 186.302 57.2907 186.311 57.216C186.325 57.1367 186.355 57.069 186.402 57.013C186.453 56.9523 186.516 56.915 186.591 56.901C186.666 56.887 186.747 56.908 186.836 56.964C187.041 57.0853 187.258 57.174 187.487 57.23C187.716 57.286 187.956 57.314 188.208 57.314C188.577 57.314 188.845 57.2533 189.013 57.132C189.181 57.006 189.265 56.845 189.265 56.649C189.265 56.4857 189.204 56.3573 189.083 56.264C188.966 56.1707 188.763 56.0937 188.474 56.033L187.704 55.872C187.261 55.7787 186.929 55.6223 186.71 55.403C186.495 55.179 186.388 54.885 186.388 54.521C186.388 54.2923 186.435 54.0847 186.528 53.898C186.621 53.7113 186.752 53.5503 186.92 53.415C187.093 53.2797 187.296 53.177 187.529 53.107C187.767 53.0323 188.028 52.995 188.313 52.995C188.593 52.995 188.859 53.03 189.111 53.1C189.363 53.17 189.589 53.2727 189.79 53.408C189.865 53.4593 189.914 53.5223 189.937 53.597C189.965 53.6717 189.972 53.7463 189.958 53.821C189.944 53.891 189.911 53.9517 189.86 54.003C189.809 54.0543 189.743 54.0847 189.664 54.094C189.589 54.1033 189.503 54.08 189.405 54.024C189.232 53.926 189.057 53.856 188.88 53.814C188.703 53.772 188.511 53.751 188.306 53.751C188.091 53.751 187.907 53.7813 187.753 53.842C187.599 53.9027 187.48 53.989 187.396 54.101C187.317 54.2083 187.277 54.3367 187.277 54.486C187.277 54.654 187.333 54.7893 187.445 54.892C187.557 54.99 187.748 55.067 188.019 55.123L188.782 55.284C189.244 55.382 189.587 55.536 189.811 55.746C190.04 55.956 190.154 56.236 190.154 56.586C190.154 56.81 190.107 57.013 190.014 57.195C189.925 57.377 189.795 57.5333 189.622 57.664C189.454 57.7947 189.251 57.895 189.013 57.965C188.775 58.035 188.507 58.07 188.208 58.07Z" fill="#6454F0"/>
<defs>
<linearGradient id="paint0_linear_1422_11488" x1="49.1611" y1="7.41492" x2="78.6924" y2="21.7263" gradientUnits="userSpaceOnUse">
<stop stop-color="#6EE2F5"/>
<stop offset="1" stop-color="#6454F0"/>
</linearGradient>
<linearGradient id="paint1_linear_1422_11488" x1="49.6628" y1="-4.89595" x2="88.979" y2="14.4464" gradientUnits="userSpaceOnUse">
<stop stop-color="#6EE2F5"/>
<stop offset="1" stop-color="#6454F0"/>
</linearGradient>
<linearGradient id="paint2_linear_1422_11488" x1="91.6033" y1="20.4944" x2="100.849" y2="23.8111" gradientUnits="userSpaceOnUse">
<stop stop-color="#6EE2F5"/>
<stop offset="1" stop-color="#6454F0"/>
</linearGradient>
<linearGradient id="paint3_linear_1422_11488" x1="99.6758" y1="20.493" x2="108.784" y2="23.6961" gradientUnits="userSpaceOnUse">
<stop stop-color="#6EE2F5"/>
<stop offset="1" stop-color="#6454F0"/>
</linearGradient>
<linearGradient id="paint4_linear_1422_11488" x1="112.503" y1="20.2312" x2="124.115" y2="25.8011" gradientUnits="userSpaceOnUse">
<stop stop-color="#6EE2F5"/>
<stop offset="1" stop-color="#6454F0"/>
</linearGradient>
<linearGradient id="paint5_linear_1422_11488" x1="122.984" y1="20.4765" x2="133.199" y2="24.6606" gradientUnits="userSpaceOnUse">
<stop stop-color="#6EE2F5"/>
<stop offset="1" stop-color="#6454F0"/>
</linearGradient>
<linearGradient id="paint6_linear_1422_11488" x1="132.205" y1="20.4973" x2="139.15" y2="22.2632" gradientUnits="userSpaceOnUse">
<stop stop-color="#6EE2F5"/>
<stop offset="1" stop-color="#6454F0"/>
</linearGradient>
<linearGradient id="paint7_linear_1422_11488" x1="138.03" y1="20.4973" x2="140.801" y2="20.7637" gradientUnits="userSpaceOnUse">
<stop stop-color="#6EE2F5"/>
<stop offset="1" stop-color="#6454F0"/>
</linearGradient>
<linearGradient id="paint8_linear_1422_11488" x1="143.096" y1="20.4765" x2="153.314" y2="24.6636" gradientUnits="userSpaceOnUse">
<stop stop-color="#6EE2F5"/>
<stop offset="1" stop-color="#6454F0"/>
</linearGradient>
<linearGradient id="paint9_linear_1422_11488" x1="152.383" y1="20.4722" x2="159.898" y2="22.5595" gradientUnits="userSpaceOnUse">
<stop stop-color="#6EE2F5"/>
<stop offset="1" stop-color="#6454F0"/>
</linearGradient>
</defs>
</svg>
